{"glyphs":{"0":{"ha":731,"x_min":49,"x_max":682,"o":"m 371 775 q 186 411 186 775 q 232 153 186 232 q 371 75 278 75 q 504 157 464 75 q 544 419 544 239 q 503 688 544 600 q 371 775 461 775 m 368 -21 q 130 92 211 -21 q 49 420 49 204 q 130 751 49 636 q 371 871 211 867 q 682 429 682 879 q 368 -21 682 -21 z "},"1":{"ha":539,"x_min":49,"x_max":490,"o":"m 436 0 l 74 0 l 74 11 q 103 75 74 60 q 128 82 114 82 l 215 85 l 215 711 l 125 682 q 70 699 93 672 q 49 746 47 726 l 243 856 q 306 871 271 871 q 356 808 356 871 l 356 88 l 490 79 q 436 0 499 0 z "},"2":{"ha":689,"x_min":51,"x_max":642,"o":"m 71 676 q 149 815 71 758 q 346 871 226 871 q 536 806 465 871 q 607 635 607 740 q 490 356 607 499 q 424 278 450 307 q 350 206 399 249 q 231 101 286 147 l 550 101 l 560 183 q 590 228 564 217 q 642 232 617 240 l 642 1 l 67 1 q 51 75 49 56 q 281 293 221 228 q 458 633 458 488 q 425 738 458 699 q 326 776 392 776 q 186 579 186 776 q 106 599 140 576 q 71 676 71 621 z "},"3":{"ha":636,"x_min":49,"x_max":604,"o":"m 371 563 q 415 667 415 607 q 308 782 415 782 q 217 743 247 782 q 185 647 188 704 q 108 671 133 649 q 85 731 83 693 q 150 831 88 790 q 318 871 213 871 q 492 818 424 871 q 560 676 560 765 q 518 553 560 611 q 382 464 476 496 q 544 392 483 451 q 604 243 604 333 q 513 56 604 132 q 275 -21 422 -21 q 110 19 171 -21 q 49 121 49 58 q 71 180 49 154 q 136 207 93 206 q 179 110 140 147 q 290 74 218 74 q 408 117 361 74 q 454 233 456 160 q 429 316 453 282 q 365 365 406 350 q 188 388 292 393 l 186 490 q 371 563 299 490 z "},"4":{"ha":674,"x_min":24,"x_max":653,"o":"m 653 274 l 653 178 l 529 178 l 529 0 l 390 -14 l 390 178 l 60 178 q 24 261 29 221 l 418 858 q 529 865 479 874 l 529 274 l 653 274 m 390 274 l 390 661 l 136 274 l 390 274 z "},"5":{"ha":631,"x_min":53,"x_max":597,"o":"m 324 532 q 519 470 442 532 q 597 277 597 408 q 506 63 597 146 q 275 -21 415 -21 q 114 17 175 -21 q 53 115 53 54 q 76 173 53 153 q 132 193 99 193 q 278 69 150 69 q 406 122 357 69 q 454 258 454 174 q 405 379 454 342 q 289 417 356 417 q 140 388 222 417 l 122 397 l 142 857 l 540 857 l 529 744 l 226 744 l 218 519 q 324 532 267 532 z "},"6":{"ha":671,"x_min":57,"x_max":633,"o":"m 207 453 q 400 507 299 507 q 567 444 501 507 q 633 260 633 381 q 556 60 633 140 q 344 -21 478 -21 q 57 364 57 -21 q 153 740 57 608 q 419 871 250 871 q 548 842 503 871 q 593 774 593 813 q 572 712 593 736 q 504 689 551 688 q 479 758 504 732 q 406 783 454 783 q 269 701 321 783 q 207 453 217 619 m 204 368 q 242 138 204 207 q 350 69 281 69 q 490 240 490 69 q 343 410 490 410 q 204 368 265 410 z "},"7":{"ha":567,"x_min":36,"x_max":554,"o":"m 36 857 l 539 857 q 554 788 554 829 l 211 -18 l 72 29 l 426 740 l 125 739 l 117 669 q 79 634 113 644 q 36 633 46 624 l 36 857 z "},"8":{"ha":651,"x_min":49,"x_max":610,"o":"m 610 246 q 530 61 610 143 q 324 -21 450 -21 q 124 40 197 -21 q 49 196 50 101 q 211 439 47 340 q 96 639 96 524 q 163 803 96 735 q 341 871 231 871 q 514 819 451 871 q 576 681 576 768 q 446 468 576 556 q 566 372 522 424 q 610 246 610 321 m 419 756 q 403 771 419 756 q 340 786 388 786 q 259 757 293 786 q 225 677 225 728 q 260 590 225 626 q 378 507 294 554 q 450 665 450 574 q 419 756 450 725 m 186 208 q 223 105 186 144 q 331 65 260 65 q 442 102 403 65 q 482 194 482 139 q 311 379 482 294 q 282 394 292 389 q 186 208 186 318 z "},"9":{"ha":643,"x_min":19,"x_max":596,"o":"m 307 871 q 596 481 596 871 q 499 110 596 240 q 229 -21 401 -21 q 105 8 150 -21 q 60 85 60 38 q 81 138 60 114 q 149 161 101 163 q 174 92 149 118 q 247 67 199 67 q 384 149 332 67 q 446 399 436 231 q 255 344 358 344 q 85 408 151 344 q 19 590 19 471 q 97 790 19 708 q 307 871 175 871 m 449 482 q 411 713 449 644 q 303 781 374 781 q 163 610 163 781 q 307 440 163 440 q 449 482 388 440 z "},"\u0000":{"ha":0,"x_min":0,"x_max":0,"o":""},"\r":{"ha":0,"x_min":0,"x_max":0,"o":""}," ":{"ha":372,"x_min":0,"x_max":0,"o":""},"!":{"ha":336,"x_min":72,"x_max":264,"o":"m 236 7 q 222 -7 236 7 q 168 -21 208 -21 q 100 7 128 -21 q 72 75 72 35 q 100 144 72 115 q 168 172 128 172 q 236 144 208 172 q 264 75 264 115 q 236 7 264 35 m 119 290 l 97 967 q 253 975 165 993 l 215 290 q 119 290 171 276 z "},"\"":{"ha":469,"x_min":74,"x_max":403,"o":"m 101 672 l 74 953 q 219 961 142 975 l 183 672 q 101 672 144 661 m 285 672 l 257 953 q 403 961 325 975 l 367 672 q 285 672 328 661 z "},"#":{"ha":974,"x_min":64,"x_max":910,"o":"m 656 361 l 819 361 q 857 265 853 325 l 635 265 l 578 24 l 469 24 l 526 265 l 322 265 l 265 24 l 156 24 l 213 265 l 101 265 q 64 361 68 301 l 233 361 l 290 599 l 154 599 q 117 694 121 635 l 311 694 l 365 924 l 475 924 l 421 694 l 625 694 l 679 924 l 788 924 l 733 694 l 872 694 q 910 599 906 661 l 713 599 l 656 361 m 547 361 l 604 599 l 400 599 l 343 361 l 547 361 z "},"$":{"ha":679,"x_min":61,"x_max":618,"o":"m 583 713 q 555 643 583 668 q 483 625 526 618 q 339 772 483 772 q 240 742 278 772 q 203 671 203 711 q 215 606 203 631 q 258 561 228 582 q 396 494 303 533 q 567 392 517 440 q 618 247 618 344 q 551 73 618 149 q 372 -18 485 -3 l 383 -153 q 326 -162 364 -162 q 271 -153 289 -162 l 282 -21 q 126 26 192 -14 q 61 132 61 65 q 88 200 61 174 q 168 226 114 226 q 215 106 174 143 q 334 68 257 68 q 456 101 411 68 q 500 197 500 133 q 444 314 500 274 q 339 374 399 350 q 251 412 279 399 q 188 447 224 425 q 133 492 153 469 q 85 626 85 542 q 140 770 85 710 q 283 850 196 831 l 271 990 q 326 1000 289 1000 q 383 990 364 1000 l 372 860 q 519 824 454 858 q 583 713 583 789 z "},"%":{"ha":1093,"x_min":63,"x_max":1031,"o":"m 842 468 q 1031 228 1031 468 q 981 42 1031 104 q 838 -21 931 -21 q 696 40 746 -21 q 646 222 646 100 q 697 406 646 344 q 842 468 747 468 m 839 396 q 746 224 746 396 q 837 51 746 51 q 928 224 928 51 q 839 396 928 396 m 258 872 q 447 631 447 872 q 397 445 447 507 q 255 383 347 383 q 113 444 163 383 q 63 626 63 504 q 113 810 63 747 q 258 872 163 872 m 256 800 q 163 628 163 800 q 253 456 163 456 q 344 628 344 456 q 256 800 344 800 m 858 871 l 365 0 l 240 0 l 735 871 l 858 871 z "},"&":{"ha":1024,"x_min":51,"x_max":1006,"o":"m 893 94 q 946 106 918 94 q 986 133 974 117 q 1006 79 1006 117 q 974 9 1006 42 q 881 -24 942 -24 q 639 75 781 -24 q 361 -25 518 -25 q 128 42 204 -25 q 51 217 51 110 q 228 481 51 383 q 126 714 126 617 q 193 874 126 811 q 365 938 260 938 q 532 885 469 938 q 594 740 594 832 q 536 580 594 649 q 394 481 478 511 q 650 222 511 339 q 719 379 696 289 l 632 388 q 682 464 625 464 l 908 464 l 908 451 q 860 386 908 390 l 815 383 q 722 168 783 260 q 893 94 829 94 m 469 741 q 469 772 469 741 q 439 832 469 803 q 364 861 408 861 q 288 826 319 861 q 256 739 256 792 q 350 536 256 661 q 440 623 410 567 q 469 741 469 679 m 188 242 q 238 122 188 168 q 385 75 289 75 q 564 133 482 75 q 325 365 453 222 q 301 392 317 375 q 278 418 285 410 q 188 242 188 347 z "},"'":{"ha":285,"x_min":69,"x_max":215,"o":"m 97 672 l 69 953 q 215 961 138 975 l 179 672 q 97 672 140 661 z "},"(":{"ha":413,"x_min":74,"x_max":378,"o":"m 378 963 q 258 697 307 853 q 210 372 210 540 q 258 49 210 203 q 376 -201 307 -104 l 321 -256 q 143 14 213 -153 q 74 373 74 181 q 146 739 74 565 q 325 1013 218 913 l 378 963 z "},")":{"ha":413,"x_min":35,"x_max":339,"o":"m 88 1013 q 267 739 194 913 q 339 373 339 565 q 269 14 339 181 q 92 -256 200 -153 l 36 -201 q 154 49 106 -104 q 203 372 203 203 q 154 697 203 540 q 35 963 106 853 l 88 1013 z "},"*":{"ha":708,"x_min":71,"x_max":600,"o":"m 367 785 l 558 886 q 588 819 575 864 q 600 744 600 775 l 381 725 l 542 578 q 489 526 526 553 q 421 492 451 499 l 335 686 l 251 493 q 183 527 222 500 q 131 579 144 554 l 289 725 l 71 744 q 83 822 71 778 q 113 888 94 867 l 304 783 l 260 999 q 333 1008 289 1010 q 407 997 378 1007 l 367 785 z "},"+":{"ha":690,"x_min":69,"x_max":621,"o":"m 621 431 l 621 332 l 397 332 l 397 106 l 296 106 l 296 332 l 69 332 l 69 431 l 296 431 l 296 657 l 397 657 l 397 431 l 621 431 z "},",":{"ha":321,"x_min":65,"x_max":256,"o":"m 91 143 q 104 156 91 143 q 160 169 117 169 q 229 142 203 169 q 256 58 256 115 q 208 -73 256 0 q 107 -168 160 -146 q 84 -160 99 -172 q 69 -139 69 -147 q 146 -21 125 -100 q 88 10 110 -17 q 65 77 65 38 q 91 143 65 117 z "},"-":{"ha":553,"x_min":60,"x_max":493,"o":"m 60 415 l 493 415 l 493 307 l 60 307 l 60 415 z "},".":{"ha":322,"x_min":65,"x_max":257,"o":"m 229 7 q 215 -7 229 7 q 161 -21 201 -21 q 93 7 121 -21 q 65 75 65 35 q 93 144 65 115 q 161 172 121 172 q 229 144 201 172 q 257 75 257 115 q 229 7 257 35 z "},"/":{"ha":535,"x_min":28,"x_max":507,"o":"m 149 -147 l 28 -147 l 386 968 l 507 968 l 149 -147 z "},":":{"ha":331,"x_min":65,"x_max":265,"o":"m 265 529 q 265 508 265 529 q 237 458 265 486 q 166 429 208 429 q 94 458 124 429 q 65 529 65 486 q 94 601 65 572 q 166 631 124 631 q 237 601 208 631 q 265 529 265 572 m 265 78 q 265 57 265 78 q 237 7 265 36 q 166 -22 208 -22 q 94 7 124 -22 q 65 78 65 36 q 94 150 65 121 q 166 179 124 179 q 237 150 208 179 q 265 78 265 121 z "},";":{"ha":331,"x_min":65,"x_max":265,"o":"m 101 125 q 114 138 101 125 q 169 151 126 151 q 239 124 213 151 q 265 40 265 97 q 217 -91 265 -18 q 117 -186 169 -164 q 94 -178 108 -190 q 79 -157 79 -165 q 156 -39 135 -118 q 97 -8 119 -35 q 75 59 75 19 q 101 125 75 99 m 229 487 q 215 473 229 487 q 161 458 201 458 q 93 487 121 458 q 65 556 65 515 q 93 624 65 596 q 161 651 121 651 q 229 624 201 651 q 257 556 257 596 q 229 487 257 515 z "},"<":{"ha":676,"x_min":46,"x_max":603,"o":"m 603 592 l 210 389 l 597 192 l 547 96 l 46 356 l 46 424 l 551 686 l 603 592 z "},"=":{"ha":690,"x_min":69,"x_max":621,"o":"m 69 329 l 621 329 l 621 231 l 69 231 l 69 329 m 69 536 l 621 536 l 621 438 l 69 438 l 69 536 z "},">":{"ha":668,"x_min":65,"x_max":622,"o":"m 117 518 l 622 413 l 622 385 l 121 282 l 71 319 l 456 399 l 65 479 l 117 518 z "},"?":{"ha":690,"x_min":60,"x_max":631,"o":"m 218 144 q 232 158 218 144 q 286 172 246 172 q 354 144 326 172 q 382 75 382 115 q 354 7 382 35 q 286 -21 326 -21 q 218 7 246 -21 q 190 75 190 35 q 218 144 190 115 m 60 797 q 135 930 60 869 q 342 990 210 990 q 553 925 475 990 q 631 748 631 860 q 547 553 631 636 q 342 447 463 471 l 333 286 q 239 286 299 278 l 231 515 q 482 746 482 581 q 443 855 482 810 q 328 900 404 900 q 208 838 251 900 q 165 715 165 776 q 90 735 119 715 q 60 797 60 756 z "},"@":{"ha":1407,"x_min":104,"x_max":1304,"o":"m 1211 486 q 1082 761 1211 657 q 742 865 953 865 q 349 723 497 865 q 200 353 200 581 q 351 -9 200 126 q 749 -144 501 -144 q 1058 -68 942 -144 l 1075 -146 q 732 -229 919 -229 q 276 -72 449 -229 q 104 352 104 86 q 279 784 104 618 q 742 950 454 950 q 1149 827 994 950 q 1304 507 1304 704 q 1190 192 1304 310 q 888 74 1075 74 q 809 88 835 74 q 782 138 783 101 q 594 68 693 68 q 436 136 496 68 q 394 351 376 204 q 494 589 411 499 q 717 679 576 679 q 850 649 789 679 l 851 657 l 990 667 l 919 160 q 1131 247 1051 157 q 1211 486 1211 338 m 835 542 q 710 590 786 590 q 591 525 635 590 q 534 369 547 460 q 549 224 521 279 q 647 169 578 169 q 792 231 715 169 l 835 542 z "},"A":{"ha":890,"x_min":17,"x_max":871,"o":"m 818 0 l 515 0 l 515 11 q 569 82 515 76 l 618 85 l 557 307 l 290 307 l 226 88 l 336 79 q 282 0 344 0 l 17 0 l 17 11 q 71 82 17 76 l 125 85 l 392 947 q 513 947 444 953 l 776 88 l 871 79 q 818 0 879 0 m 314 390 l 533 390 l 426 774 l 314 390 z "},"B":{"ha":797,"x_min":58,"x_max":763,"o":"m 107 949 l 413 949 q 644 883 569 949 q 719 724 719 818 q 554 500 719 561 q 704 431 646 486 q 763 285 763 376 q 674 76 764 151 q 419 0 583 0 l 58 0 q 70 59 60 39 q 108 81 81 79 l 161 86 l 161 861 l 60 869 q 71 925 56 901 q 107 949 86 949 m 307 526 l 347 526 q 516 572 464 526 q 568 708 568 618 q 514 838 568 797 q 368 871 460 878 l 307 868 l 307 526 m 613 268 q 551 410 613 367 q 364 451 490 453 l 307 450 l 307 88 l 385 86 q 613 268 613 85 z "},"C":{"ha":814,"x_min":50,"x_max":774,"o":"m 496 968 q 689 915 614 968 q 764 788 764 863 q 733 711 764 738 q 646 685 701 685 q 603 819 646 772 q 481 865 561 865 q 275 758 347 865 q 203 469 203 650 q 273 188 203 288 q 495 89 343 89 q 753 174 647 89 q 774 133 774 160 q 680 31 774 82 q 458 -21 586 -21 q 156 105 260 -21 q 51 458 53 231 q 165 826 49 685 q 496 968 281 968 z "},"D":{"ha":964,"x_min":57,"x_max":914,"o":"m 119 949 l 432 949 q 795 833 676 949 q 914 482 914 718 q 790 123 914 246 q 436 0 665 0 l 57 0 q 103 81 54 78 l 158 86 l 158 860 l 60 868 q 71 928 58 908 q 119 949 83 949 m 399 85 q 673 170 585 76 q 761 476 761 264 q 670 779 761 688 q 381 864 579 871 l 306 861 l 304 861 l 304 89 l 399 85 z "},"E":{"ha":785,"x_min":57,"x_max":736,"o":"m 57 0 l 57 17 q 65 57 57 47 q 79 72 74 67 q 111 82 92 82 l 160 85 l 160 860 l 60 868 q 114 947 51 947 l 714 947 l 714 743 q 635 694 714 686 l 622 857 l 306 861 l 306 507 l 561 532 q 563 408 575 476 l 306 424 l 306 88 l 646 99 l 658 260 q 736 213 736 268 l 736 0 l 57 0 z "},"F":{"ha":726,"x_min":57,"x_max":704,"o":"m 704 947 l 704 747 q 625 699 704 690 l 613 854 l 307 861 l 307 518 l 561 543 q 563 419 576 482 l 307 433 l 307 88 l 432 79 q 378 0 440 0 l 57 0 q 57 11 57 0 q 111 82 57 76 l 160 85 l 160 860 l 60 868 q 114 947 51 947 l 704 947 z "},"G":{"ha":919,"x_min":50,"x_max":897,"o":"m 551 433 l 897 433 q 897 422 897 433 q 843 351 897 357 l 806 349 l 800 349 l 800 117 q 664 17 760 56 q 454 -21 568 -21 q 156 104 260 -21 q 51 458 53 229 q 165 828 49 686 q 501 969 282 969 q 733 917 654 969 q 813 789 813 865 q 781 713 813 742 q 693 685 750 685 q 644 833 693 786 q 485 879 594 879 q 272 772 340 879 q 203 475 203 664 q 496 85 203 85 q 681 143 618 85 l 681 346 l 499 354 q 551 433 490 433 z "},"H":{"ha":1036,"x_min":57,"x_max":979,"o":"m 924 0 l 626 0 l 626 11 q 636 57 626 44 q 682 82 654 79 l 731 85 l 731 428 l 306 428 l 306 88 l 407 79 q 353 0 415 0 l 57 0 l 57 11 q 111 82 57 76 l 160 85 l 160 860 l 60 868 q 113 947 51 947 l 410 947 l 410 936 q 356 865 410 871 l 306 863 l 306 513 l 731 513 l 731 860 l 631 868 q 683 947 622 947 l 979 947 l 979 936 q 925 865 979 871 l 876 863 l 876 88 l 976 79 q 924 0 985 0 z "},"I":{"ha":465,"x_min":57,"x_max":410,"o":"m 353 0 l 57 0 l 57 11 q 111 82 57 76 l 160 85 l 160 860 l 60 868 q 113 947 51 947 l 410 947 l 410 936 q 356 865 410 871 l 306 863 l 306 88 l 307 88 l 407 79 q 353 0 415 0 z "},"J":{"ha":526,"x_min":14,"x_max":492,"o":"m 190 947 l 492 947 q 492 936 492 947 q 482 890 492 903 q 436 865 464 868 l 390 863 l 390 189 q 325 -10 390 68 q 149 -87 260 -87 q 52 -57 90 -87 q 14 16 14 -26 q 38 84 14 58 q 113 108 61 110 q 182 14 115 14 q 229 49 214 14 q 244 178 244 85 l 244 860 l 243 860 l 138 868 q 190 947 129 947 z "},"K":{"ha":869,"x_min":57,"x_max":844,"o":"m 576 947 l 836 947 q 826 892 836 906 q 782 865 808 865 l 726 863 l 451 521 l 757 86 l 844 78 q 839 31 853 61 q 790 0 825 0 l 639 0 l 357 403 l 306 340 l 306 88 l 417 79 q 363 0 425 0 l 57 0 l 57 11 q 111 82 57 76 l 160 85 l 160 860 l 60 868 q 113 947 51 947 l 410 947 l 410 936 q 356 865 410 871 l 306 863 l 306 471 l 613 861 l 522 868 q 576 947 514 947 z "},"L":{"ha":760,"x_min":57,"x_max":728,"o":"m 728 226 l 728 0 l 57 0 l 57 11 q 111 82 57 76 l 160 85 l 160 860 l 61 868 q 114 949 53 949 l 431 949 l 431 939 q 401 872 431 889 q 376 867 390 867 l 307 863 l 306 863 l 306 88 l 629 96 l 649 274 q 728 226 728 282 z "},"M":{"ha":1193,"x_min":17,"x_max":1175,"o":"m 1122 0 l 829 0 l 829 11 q 883 82 829 76 l 929 85 l 879 779 l 625 158 q 547 153 581 144 l 278 753 l 232 88 l 340 79 q 288 0 349 0 l 17 0 l 17 11 q 71 82 17 76 l 129 85 l 183 860 l 88 868 q 140 949 79 949 l 350 949 l 610 365 l 839 949 l 1063 949 q 1117 868 1125 949 l 1019 860 l 1078 89 l 1175 79 q 1122 0 1183 0 z "},"N":{"ha":958,"x_min":57,"x_max":932,"o":"m 689 947 l 932 947 q 932 936 932 947 q 878 865 932 871 l 828 863 l 828 17 q 735 -1 788 -1 l 254 725 l 254 88 l 354 79 q 301 0 363 0 l 57 0 l 57 11 q 111 82 57 76 l 160 85 l 160 860 l 60 868 q 113 947 51 947 l 282 947 l 735 263 l 735 860 l 635 868 q 689 947 626 947 z "},"O":{"ha":932,"x_min":50,"x_max":882,"o":"m 466 872 q 400 871 466 872 q 268 768 335 871 q 201 476 201 665 q 267 182 201 286 q 461 76 332 78 q 663 180 594 78 q 731 472 731 282 q 664 767 731 661 q 466 872 597 872 m 486 968 q 771 848 661 968 q 881 490 881 728 q 767 116 882 253 q 442 -21 651 -21 q 156 106 258 -21 q 51 463 53 232 q 165 831 49 693 q 486 968 281 968 z "},"P":{"ha":800,"x_min":57,"x_max":772,"o":"m 106 949 l 418 949 q 681 876 589 949 q 772 681 772 804 q 667 444 772 525 q 379 364 563 364 l 306 364 l 306 88 l 419 79 q 365 0 428 0 l 57 0 q 57 11 57 0 q 111 82 57 76 l 160 85 l 160 863 l 58 871 q 106 949 56 949 m 306 442 l 364 442 q 553 500 488 442 q 619 665 619 558 q 561 825 619 772 q 392 872 503 878 l 306 869 l 306 442 z "},"Q":{"ha":939,"x_min":51,"x_max":886,"o":"m 875 -64 q 886 -112 886 -78 q 854 -171 886 -146 q 772 -196 822 -196 q 633 -159 721 -196 q 501 -96 546 -122 q 363 -14 456 -69 q 134 136 215 14 q 51 456 53 258 q 165 831 49 693 q 486 968 281 968 q 771 848 661 968 q 881 503 881 728 q 791 147 882 279 q 532 -14 700 15 q 804 -86 711 -86 q 875 -64 840 -86 m 466 872 q 400 871 466 872 q 268 768 335 871 q 201 476 201 665 q 267 182 201 286 q 461 76 332 78 q 663 180 594 78 q 731 472 731 282 q 664 767 731 661 q 466 872 597 872 z "},"R":{"ha":846,"x_min":57,"x_max":842,"o":"m 57 0 l 57 17 q 65 57 57 47 q 79 72 74 67 q 111 82 92 82 l 160 85 l 160 863 l 58 871 q 106 949 56 949 l 419 949 q 749 707 749 949 q 683 529 749 600 q 499 435 618 458 q 672 178 582 269 q 842 86 763 86 q 806 9 838 39 q 722 -21 775 -21 q 596 53 668 -21 q 378 424 461 192 q 306 425 331 424 l 306 88 l 418 79 q 365 0 425 0 l 57 0 m 306 869 l 306 503 q 356 501 324 501 q 597 694 597 501 q 392 872 597 882 l 308 869 l 306 869 z "},"S":{"ha":721,"x_min":35,"x_max":682,"o":"m 597 903 q 639 808 639 864 q 607 724 639 751 q 525 703 575 697 q 365 874 525 874 q 247 840 293 874 q 201 747 201 807 q 228 672 201 701 q 246 653 239 661 q 270 635 253 646 q 296 619 288 625 q 326 603 304 614 q 356 589 347 593 q 425 560 396 575 q 624 444 565 499 q 682 290 682 390 q 585 67 682 156 q 326 -21 489 -21 q 123 24 211 -21 q 35 153 35 69 q 65 230 35 200 q 157 260 96 260 q 349 74 169 74 q 500 119 444 74 q 556 239 556 165 q 494 356 556 311 q 433 393 461 379 q 349 431 406 407 q 263 469 292 456 q 192 510 235 483 q 128 561 149 536 q 75 708 75 625 q 167 899 75 832 q 388 968 258 967 q 597 903 519 971 z "},"T":{"ha":865,"x_min":28,"x_max":838,"o":"m 28 947 l 838 947 l 838 763 q 806 715 838 724 q 760 710 785 710 l 747 856 l 506 856 l 506 88 l 617 79 q 564 0 625 0 l 247 0 l 247 11 q 301 82 247 76 l 361 85 l 361 856 l 118 856 l 107 710 q 36 731 50 710 q 28 763 28 743 l 28 947 z "},"U":{"ha":917,"x_min":22,"x_max":897,"o":"m 650 947 l 897 947 q 897 936 897 947 q 843 865 897 871 l 794 863 l 794 383 q 449 -21 794 -21 q 204 74 286 -21 q 122 378 122 169 l 122 860 l 22 868 q 75 947 14 947 l 371 947 l 371 936 q 317 865 371 871 l 268 863 l 267 367 q 315 146 267 215 q 469 76 363 76 q 697 354 697 76 l 696 860 l 597 868 q 650 947 589 947 z "},"V":{"ha":881,"x_min":4,"x_max":878,"o":"m 632 947 l 878 947 q 878 936 878 947 q 822 865 878 871 l 790 863 l 489 0 l 374 0 l 88 860 l 4 868 q 57 947 -4 947 l 353 947 l 353 936 q 343 890 353 903 q 299 865 325 868 l 249 863 l 458 182 l 685 860 l 579 868 q 578 896 578 882 q 592 928 579 910 q 632 947 606 947 z "},"W":{"ha":1335,"x_min":4,"x_max":1332,"o":"m 1101 947 l 1332 947 q 1332 935 1332 947 q 1311 875 1332 889 q 1257 863 1300 867 l 983 0 l 860 0 l 668 600 l 463 0 l 338 0 l 82 860 l 4 868 q 56 947 -4 947 l 344 947 l 344 936 q 290 865 344 871 l 243 863 l 424 182 l 644 856 l 747 856 l 944 179 l 1147 860 l 1049 868 q 1101 947 1040 947 z "},"X":{"ha":922,"x_min":18,"x_max":906,"o":"m 851 0 l 536 0 l 536 11 q 546 57 536 44 q 590 82 564 79 l 633 85 l 636 85 l 438 379 l 250 88 l 251 88 l 356 79 q 303 0 364 0 l 22 0 l 22 11 q 32 57 22 44 q 78 82 50 79 l 126 85 l 383 457 l 111 860 l 18 868 q 71 949 10 949 l 385 949 l 385 939 q 331 867 385 872 l 285 863 l 486 567 l 674 860 l 569 868 q 624 949 561 949 l 899 949 l 899 939 q 844 867 899 872 l 801 864 l 799 864 l 540 486 l 810 88 l 906 79 q 851 0 914 0 z "},"Y":{"ha":860,"x_min":4,"x_max":856,"o":"m 610 949 l 856 949 q 856 939 856 949 q 801 867 856 872 l 769 863 l 504 392 l 504 88 l 506 88 l 606 79 q 551 0 614 0 l 254 0 l 254 11 q 308 82 254 76 l 358 85 l 358 389 l 89 860 l 4 868 q 57 949 -4 949 l 364 949 l 364 939 q 335 872 364 889 q 310 867 324 867 l 258 863 l 257 863 l 461 494 l 660 860 l 557 868 q 610 949 549 949 z "},"Z":{"ha":789,"x_min":24,"x_max":746,"o":"m 744 0 l 46 0 q 24 60 28 35 l 553 860 l 196 847 l 182 729 q 92 663 171 646 l 92 951 l 715 951 q 746 894 744 931 l 219 89 l 639 108 l 656 231 q 744 294 667 310 l 744 0 z "},"[":{"ha":363,"x_min":103,"x_max":329,"o":"m 218 919 l 218 -146 l 329 -146 l 329 -226 l 103 -226 l 103 999 l 329 999 l 329 919 l 218 919 z "},"\\":{"ha":535,"x_min":28,"x_max":507,"o":"m 507 -147 l 386 -147 l 28 968 l 149 968 l 507 -147 z "},"]":{"ha":358,"x_min":33,"x_max":260,"o":"m 144 -146 l 144 919 l 33 919 l 33 999 l 260 999 l 260 -226 l 33 -226 l 33 -146 l 144 -146 z "},"^":{"ha":703,"x_min":79,"x_max":624,"o":"m 624 283 l 499 283 l 356 676 l 206 283 l 79 283 l 322 907 l 394 907 l 624 283 z "},"_":{"ha":547,"x_min":-46,"x_max":593,"o":"m -46 -106 l 593 -106 l 593 -199 l -46 -199 l -46 -106 z "},"`":{"ha":610,"x_min":99,"x_max":433,"o":"m 381 757 l 99 908 q 141 961 110 933 q 201 993 172 989 l 433 808 q 381 757 418 775 z "},"a":{"ha":714,"x_min":50,"x_max":696,"o":"m 696 56 q 595 -21 696 -21 q 471 56 494 -21 q 274 -21 381 -21 q 108 30 167 -21 q 50 169 50 81 q 117 317 50 258 q 335 375 185 375 q 463 364 400 375 l 463 442 q 325 618 463 618 q 237 581 269 618 q 201 486 204 543 q 123 503 154 482 q 92 567 92 524 q 158 672 92 631 q 337 714 224 714 q 527 653 450 714 q 604 450 604 592 l 604 67 l 696 56 m 463 267 q 341 290 407 290 q 238 263 275 290 q 200 184 200 235 q 229 106 200 133 q 324 78 258 78 q 463 129 390 78 l 463 267 z "},"b":{"ha":797,"x_min":18,"x_max":746,"o":"m 264 632 q 469 714 356 714 q 663 631 583 714 q 746 374 743 549 q 661 89 749 199 q 407 -21 574 -21 q 264 8 329 -21 l 124 54 l 124 874 l 61 879 q 18 956 13 885 l 264 985 l 264 632 m 422 78 q 597 347 597 78 q 553 538 597 468 q 428 608 510 608 q 264 535 346 608 l 264 139 q 422 78 335 78 z "},"c":{"ha":646,"x_min":50,"x_max":613,"o":"m 389 714 q 544 674 485 714 q 603 574 603 633 q 571 492 603 514 q 499 474 539 469 q 465 572 497 529 q 369 615 433 615 q 243 544 288 615 q 199 353 199 472 q 404 88 199 88 q 588 161 497 88 q 606 138 599 154 q 613 111 613 122 q 532 24 613 68 q 351 -21 451 -21 q 131 73 210 -21 q 51 334 51 167 q 142 608 50 501 q 389 714 233 714 z "},"d":{"ha":783,"x_min":51,"x_max":765,"o":"m 765 58 q 659 -22 765 -22 q 536 64 553 -22 q 330 -21 444 -21 q 135 62 215 -21 q 51 319 54 144 q 137 604 49 494 q 390 714 225 714 q 533 685 468 714 l 533 874 l 472 879 q 428 956 422 885 l 675 985 l 675 68 l 765 58 m 533 554 q 372 615 464 615 q 240 538 281 615 q 199 344 199 461 q 244 156 199 226 q 371 86 289 86 q 533 158 453 86 l 533 554 z "},"e":{"ha":672,"x_min":51,"x_max":629,"o":"m 200 350 l 200 324 q 244 147 200 208 q 392 86 289 86 q 590 161 496 86 q 614 111 614 144 q 538 23 614 67 q 354 -21 461 -21 q 131 66 211 -21 q 51 331 51 153 q 142 611 51 508 q 369 714 232 714 q 568 632 506 714 q 629 425 631 550 l 629 350 l 200 350 m 364 618 q 208 433 238 618 l 489 433 q 364 618 485 618 z "},"f":{"ha":508,"x_min":50,"x_max":535,"o":"m 151 693 l 151 736 q 217 930 151 856 q 394 1006 283 1004 q 535 918 535 1006 q 509 858 535 878 q 442 838 483 838 q 422 900 442 879 q 374 921 403 921 q 293 751 293 921 l 293 693 l 468 693 q 413 608 475 608 l 293 608 l 293 86 l 432 78 q 379 0 439 0 l 50 0 q 50 11 50 0 q 104 81 50 75 l 151 83 l 151 608 l 53 608 q 110 693 53 693 l 151 693 z "},"g":{"ha":661,"x_min":26,"x_max":653,"o":"m 303 207 q 233 214 271 207 q 208 159 206 175 q 240 139 210 143 q 357 132 271 135 q 576 89 508 126 q 644 -43 644 51 q 549 -244 644 -168 q 312 -319 454 -319 q 98 -267 169 -319 q 26 -127 26 -215 q 117 36 26 -39 q 92 101 92 58 q 161 243 92 164 q 51 444 54 304 q 122 636 49 558 q 317 714 194 714 q 460 679 399 714 l 639 726 q 653 675 651 710 q 639 626 654 640 q 526 618 618 615 q 565 453 569 557 q 490 278 560 350 q 303 207 419 207 m 308 624 q 278 623 308 624 q 217 577 249 622 q 186 456 186 532 q 218 337 186 381 q 306 294 250 293 q 396 340 363 294 q 429 459 429 385 q 398 579 429 533 q 308 624 367 625 m 133 -101 q 133 -126 133 -101 q 183 -181 133 -151 q 326 -211 232 -211 q 482 -174 421 -211 q 543 -86 543 -136 q 491 -23 543 -36 q 331 -6 439 -10 q 183 7 222 -1 q 133 -101 133 -50 z "},"h":{"ha":886,"x_min":50,"x_max":857,"o":"m 803 0 l 513 0 l 513 11 q 567 81 513 75 l 614 83 l 614 428 q 577 556 614 517 q 460 594 540 594 q 297 521 379 594 l 297 86 l 399 78 q 346 0 407 0 l 53 0 l 53 11 q 107 81 53 75 l 156 83 l 156 872 l 94 878 q 50 954 50 883 l 297 983 l 297 622 q 502 714 394 714 q 682 644 610 714 q 754 426 754 574 l 756 86 l 857 78 q 803 0 865 0 z "},"i":{"ha":428,"x_min":50,"x_max":399,"o":"m 346 0 l 53 0 l 53 11 q 107 81 53 75 l 156 83 l 156 604 l 94 611 q 50 686 50 615 l 297 714 l 297 86 l 399 78 q 346 0 407 0 m 306 883 q 306 864 306 883 q 280 819 306 844 q 216 793 254 793 q 152 819 178 793 q 126 883 126 844 q 152 948 126 922 q 216 974 178 974 q 280 948 254 974 q 306 883 306 922 z "},"j":{"ha":383,"x_min":-104,"x_max":281,"o":"m 126 948 q 139 961 126 948 q 190 974 151 974 q 255 948 229 974 q 281 884 281 922 q 255 820 281 846 q 190 794 229 794 q 126 820 151 794 q 100 884 100 846 q 126 948 100 922 m 271 69 q 201 -222 271 -122 q 8 -319 131 -321 q -76 -292 -47 -319 q -104 -227 -104 -264 q -80 -171 -104 -190 q -17 -153 -56 -151 q 42 -224 -14 -224 q 107 -187 85 -224 q 129 -40 129 -150 l 129 606 l 64 613 q 22 688 22 615 l 271 714 l 271 69 z "},"k":{"ha":788,"x_min":50,"x_max":785,"o":"m 490 693 l 728 693 l 728 683 q 718 638 728 650 q 672 613 700 615 l 639 611 l 458 410 l 692 86 l 785 78 q 771 22 789 43 q 726 0 753 0 l 590 0 l 369 310 l 297 231 l 297 86 l 400 78 q 346 0 408 0 l 54 0 l 54 11 q 108 81 54 75 l 156 83 l 156 874 l 94 879 q 50 956 50 885 l 297 985 l 297 353 l 517 607 l 436 615 q 490 693 428 693 z "},"l":{"ha":425,"x_min":50,"x_max":396,"o":"m 343 0 l 51 0 l 51 11 q 61 56 51 44 q 107 81 79 78 l 156 83 l 156 874 l 94 879 q 50 956 50 885 l 297 983 l 297 86 l 396 78 q 343 0 404 0 z "},"m":{"ha":1319,"x_min":50,"x_max":1290,"o":"m 1238 0 l 947 0 l 947 11 q 1001 81 947 75 l 1047 83 l 1047 428 q 1010 555 1047 515 q 895 594 974 594 q 733 518 817 594 q 744 426 744 478 l 744 86 l 846 78 q 792 0 854 0 l 500 0 l 500 11 q 554 81 500 75 l 603 83 l 603 428 q 460 594 603 594 q 297 522 381 594 l 297 86 l 399 78 q 346 0 407 0 l 53 0 l 53 11 q 107 81 53 75 l 156 83 l 156 600 l 99 604 q 50 681 50 608 l 275 708 l 286 619 l 290 619 q 347 667 325 650 q 411 699 368 683 q 508 714 454 714 q 616 685 561 714 q 704 597 671 657 q 940 714 818 714 q 1116 644 1043 714 q 1189 426 1189 574 l 1189 86 l 1290 78 q 1238 0 1299 0 z "},"n":{"ha":883,"x_min":50,"x_max":853,"o":"m 800 0 l 511 0 l 511 11 q 565 81 511 75 l 614 83 l 614 432 q 479 596 614 596 q 383 578 424 596 q 297 521 343 561 l 297 86 l 396 78 q 343 0 404 0 l 51 0 l 51 11 q 61 56 51 44 q 107 81 79 78 l 156 83 l 156 599 l 94 606 q 50 681 50 610 l 275 708 l 288 615 l 292 615 q 506 714 399 714 q 684 645 613 714 q 756 432 756 576 l 756 86 l 853 78 q 800 0 861 0 z "},"o":{"ha":735,"x_min":50,"x_max":685,"o":"m 369 620 q 328 620 369 620 q 243 544 288 619 q 199 343 199 468 q 242 144 199 218 q 366 72 285 71 q 492 144 447 72 q 536 340 536 215 q 493 543 536 465 q 369 620 450 621 m 51 333 q 50 420 51 333 q 137 610 50 507 q 369 714 224 714 q 599 623 515 714 q 684 356 683 532 q 598 80 685 181 q 359 -21 511 -21 q 129 69 207 -21 q 51 333 51 160 z "},"p":{"ha":794,"x_min":17,"x_max":744,"o":"m 254 625 q 467 714 353 714 q 661 631 581 714 q 744 374 742 549 q 659 89 747 199 q 406 -21 571 -21 q 263 8 328 -21 l 263 -215 l 364 -224 q 310 -301 372 -301 l 18 -301 l 18 -292 q 72 -221 18 -226 l 121 -218 l 121 597 l 56 606 q 17 678 17 610 l 240 706 l 254 625 m 263 138 q 425 78 335 78 q 556 154 515 78 q 596 349 596 231 q 551 538 596 467 q 425 608 507 608 q 263 536 343 608 l 263 138 z "},"q":{"ha":760,"x_min":51,"x_max":768,"o":"m 715 -301 l 429 -301 l 429 -292 q 483 -221 429 -226 l 532 -218 l 532 56 q 328 -21 440 -21 q 135 63 215 -21 q 51 320 54 146 q 136 604 49 494 q 389 714 224 714 q 556 674 482 714 l 674 693 l 674 -215 l 768 -224 q 715 -301 776 -301 m 374 615 q 207 444 239 615 q 199 346 199 400 q 244 156 199 226 q 371 86 289 86 q 532 154 453 86 l 532 556 q 374 615 460 615 z "},"r":{"ha":599,"x_min":50,"x_max":596,"o":"m 292 596 q 390 677 329 640 q 495 714 451 714 q 567 689 539 714 q 596 601 596 664 q 558 503 596 538 q 488 490 536 486 q 475 572 488 550 q 435 593 463 593 q 296 501 368 593 l 296 86 l 411 78 q 357 0 419 0 l 53 0 q 53 11 53 0 q 107 81 53 75 l 154 83 l 154 599 l 88 606 q 50 678 50 610 l 276 707 l 288 596 l 292 596 z "},"s":{"ha":582,"x_min":33,"x_max":549,"o":"m 56 512 q 56 559 56 512 q 133 660 56 606 q 303 714 211 714 q 455 684 396 714 q 514 590 514 654 q 485 523 514 546 q 414 506 456 500 q 378 589 415 556 q 287 623 340 622 q 202 601 233 624 q 171 543 171 579 q 210 482 171 507 q 322 428 250 457 q 422 385 393 400 q 485 344 451 369 q 548 204 549 297 q 472 44 547 111 q 267 -21 396 -22 q 103 16 174 -19 q 33 118 33 51 q 64 185 35 161 q 133 208 93 208 q 185 108 143 144 q 290 72 226 72 q 390 94 353 71 q 428 163 428 118 q 394 232 428 208 q 296 281 361 256 q 197 323 231 307 q 128 365 164 339 q 56 512 56 418 z "},"t":{"ha":551,"x_min":14,"x_max":533,"o":"m 265 608 l 265 214 q 343 89 265 89 q 428 102 393 89 q 507 150 463 115 q 524 133 514 149 q 533 101 533 118 q 461 16 533 53 q 314 -21 389 -21 q 163 42 203 -21 q 124 215 124 104 l 124 608 l 14 608 q 71 693 14 693 l 124 693 l 124 865 l 265 886 l 265 693 l 519 693 q 515 654 522 675 q 469 608 504 611 l 265 608 z "},"u":{"ha":819,"x_min":17,"x_max":786,"o":"m 451 610 l 451 626 q 460 669 451 660 q 472 683 468 679 q 503 693 482 693 l 700 693 l 700 88 l 744 85 q 786 8 786 83 l 600 -10 l 575 67 q 372 -21 476 -21 q 193 49 267 -21 q 119 267 119 119 l 119 607 l 17 610 l 17 622 q 69 693 17 693 l 261 693 l 261 267 q 407 89 261 89 q 558 147 486 89 l 558 607 l 451 610 z "},"v":{"ha":701,"x_min":3,"x_max":700,"o":"m 308 693 l 307 667 q 278 619 307 636 q 218 610 267 614 l 368 210 l 522 608 l 454 615 q 507 693 446 693 l 700 693 q 653 613 700 617 l 636 611 l 386 0 l 304 0 l 63 607 l 3 615 q 53 693 0 693 l 308 693 z "},"w":{"ha":1001,"x_min":3,"x_max":999,"o":"m 308 693 l 307 667 q 278 619 307 636 q 219 610 267 614 l 335 215 l 479 628 l 567 629 l 690 229 l 818 608 l 754 615 q 807 693 746 693 l 999 693 q 953 613 1000 617 l 936 611 l 703 0 l 622 0 l 490 392 l 342 0 l 263 0 l 63 607 l 3 615 q 53 693 0 693 l 308 693 z "},"x":{"ha":708,"x_min":11,"x_max":700,"o":"m 647 0 l 381 0 l 381 10 q 390 53 381 42 q 435 81 408 75 l 461 83 l 464 83 l 329 271 l 211 86 l 286 78 q 233 0 294 0 l 11 0 l 11 11 q 65 81 11 75 l 104 83 l 279 339 l 86 607 l 14 615 q 15 647 10 622 q 67 693 25 693 l 329 693 l 329 683 q 275 613 329 624 l 253 610 l 386 425 l 501 607 l 500 607 l 436 615 q 489 693 428 693 l 692 693 l 692 681 q 667 621 692 635 q 608 611 654 614 l 435 357 l 631 86 l 700 78 q 647 0 708 0 z "},"y":{"ha":722,"x_min":4,"x_max":721,"o":"m 528 693 l 721 693 l 721 681 q 667 613 721 621 l 657 611 l 425 43 l 426 43 q 321 -186 351 -135 q 147 -317 242 -315 q 62 -290 93 -317 q 31 -226 31 -264 q 52 -166 31 -189 q 100 -143 74 -143 q 133 -146 126 -143 q 133 -188 126 -164 q 165 -212 140 -212 q 249 -127 203 -212 q 325 49 294 -42 l 81 607 l 76 607 l 4 615 q 57 693 -4 693 l 324 693 l 324 683 q 269 613 324 624 l 240 610 l 396 218 l 546 607 l 475 615 q 528 693 467 693 z "},"z":{"ha":596,"x_min":21,"x_max":575,"o":"m 68 693 l 543 693 q 571 626 568 668 l 199 82 l 476 89 l 488 164 q 519 210 492 199 q 575 214 547 222 l 575 0 l 42 0 q 21 63 22 35 l 400 617 l 164 608 l 156 533 q 124 487 151 499 q 68 483 96 475 l 68 693 z "},"{":{"ha":488,"x_min":69,"x_max":464,"o":"m 140 822 q 196 955 140 904 q 342 1006 251 1006 q 464 988 432 1006 l 458 922 q 417 925 436 925 q 303 897 344 925 q 263 815 263 868 q 274 699 263 786 q 286 547 286 613 q 265 435 286 481 q 211 379 244 390 l 211 367 q 265 310 244 356 q 286 208 286 265 q 274 56 286 150 q 263 -71 263 -37 q 303 -151 263 -124 q 417 -179 344 -179 q 458 -176 436 -179 l 464 -243 q 331 -261 414 -261 q 194 -211 247 -261 q 140 -78 140 -161 q 151 62 140 -33 q 163 216 163 157 q 131 311 163 275 q 69 350 115 331 l 69 396 q 131 435 115 415 q 163 529 163 471 q 151 681 163 588 q 140 822 140 775 z "},"|":{"ha":393,"x_min":139,"x_max":254,"o":"m 139 -269 l 139 1006 l 254 1006 l 254 -269 l 139 -269 z "},"}":{"ha":488,"x_min":15,"x_max":410,"o":"m 15 988 q 138 1006 47 1006 q 283 955 228 1006 q 339 822 339 904 q 328 681 339 775 q 317 529 317 588 q 349 435 317 471 q 410 396 364 415 l 410 350 q 349 311 364 331 q 317 216 317 275 q 328 62 317 157 q 339 -78 339 -33 q 285 -211 339 -161 q 149 -261 232 -261 q 15 -243 65 -261 l 21 -176 q 63 -179 43 -179 q 176 -151 135 -179 q 217 -71 217 -124 q 205 56 217 -37 q 193 208 193 150 q 214 310 193 265 q 268 367 235 356 l 268 379 q 214 435 235 390 q 193 547 193 481 q 205 699 193 613 q 217 815 217 786 q 176 897 217 868 q 63 925 135 925 q 21 922 43 925 l 15 988 z "},"~":{"ha":806,"x_min":139,"x_max":667,"o":"m 496 311 q 372 350 438 313 q 276 388 306 388 q 224 369 247 388 q 189 325 200 351 l 139 343 q 198 460 154 417 q 297 503 242 504 q 415 460 353 501 q 517 419 478 419 q 583 438 557 418 q 619 489 610 457 l 667 475 q 496 311 638 310 z "}," ":{"ha":372,"x_min":0,"x_max":0,"o":""},"¡":{"ha":336,"x_min":72,"x_max":264,"o":"m 97 -10 l 119 667 q 215 667 171 681 l 253 -18 q 97 -10 165 -36 m 100 950 q 114 964 100 950 q 168 978 128 978 q 236 950 208 978 q 264 882 264 922 q 236 813 264 842 q 168 785 208 785 q 100 813 128 785 q 72 882 72 842 q 100 950 72 922 z "},"¢":{"ha":703,"x_min":69,"x_max":633,"o":"m 436 713 q 572 667 522 706 q 622 572 622 629 q 590 492 622 515 q 518 474 557 469 q 485 574 517 532 q 379 617 453 617 q 262 546 306 617 q 218 361 218 475 q 419 86 218 86 q 607 157 525 86 q 633 105 633 139 q 576 34 633 71 q 435 -17 518 -3 l 447 -156 q 390 -165 428 -165 q 335 -156 353 -165 l 346 -22 q 144 78 217 -15 q 69 327 71 171 q 140 587 68 483 q 344 710 213 690 l 335 840 q 390 849 353 850 q 447 840 426 849 l 436 713 z "},"£":{"ha":738,"x_min":65,"x_max":672,"o":"m 604 0 l 74 0 q 65 67 63 25 q 165 154 140 88 q 200 368 189 204 l 82 368 l 82 453 l 206 453 q 210 540 208 510 q 483 869 226 869 q 611 837 560 869 q 663 750 663 804 q 560 658 663 651 q 465 782 560 782 q 335 540 349 782 q 329 453 329 458 l 553 453 l 553 368 l 324 368 q 299 181 314 244 q 253 93 285 117 l 672 93 q 604 0 678 0 z "},"¤":{"ha":826,"x_min":65,"x_max":761,"o":"m 301 278 q 322 257 301 278 q 413 235 343 235 q 524 278 482 235 q 567 394 567 322 q 524 509 567 465 q 413 553 482 553 q 301 509 343 553 q 258 394 258 465 q 301 278 258 322 m 632 558 q 681 392 681 488 q 633 231 681 297 l 761 124 q 719 76 746 103 q 676 40 693 50 l 567 168 q 414 126 504 126 q 261 168 324 126 l 150 40 q 107 76 133 50 q 65 124 81 103 l 193 231 q 144 392 144 294 q 194 558 144 489 l 65 665 q 107 713 81 686 q 150 747 133 739 l 260 621 q 415 661 325 661 q 565 621 504 661 l 676 747 q 719 713 693 739 q 761 665 746 686 l 632 558 z "},"¥":{"ha":875,"x_min":21,"x_max":857,"o":"m 590 857 l 857 857 q 857 847 857 857 q 803 775 857 781 l 760 772 l 757 772 l 554 451 l 675 451 l 675 368 l 517 368 l 517 297 l 675 297 l 675 214 l 517 214 l 517 88 l 518 88 l 618 79 q 565 0 626 0 l 272 0 l 272 11 q 282 57 272 44 q 328 82 300 79 l 376 85 l 376 214 l 206 214 l 206 297 l 376 297 l 376 368 l 206 368 l 206 451 l 331 451 l 108 769 l 21 778 q 74 857 13 857 l 369 857 l 369 847 q 360 800 369 811 q 315 775 342 778 l 276 774 l 464 481 l 639 769 l 538 778 q 590 857 529 857 z "},"¦":{"ha":393,"x_min":139,"x_max":254,"o":"m 139 489 l 139 1006 l 254 1006 l 254 489 l 139 489 m 254 247 l 254 -269 l 139 -269 l 139 247 l 254 247 z "},"§":{"ha":778,"x_min":65,"x_max":713,"o":"m 713 -85 q 616 -307 713 -219 q 357 -394 519 -394 q 153 -349 242 -394 q 65 -221 65 -304 q 96 -144 65 -174 q 188 -115 126 -115 q 379 -300 200 -300 q 529 -256 472 -300 q 586 -136 586 -211 q 525 -19 586 -62 q 399 49 476 17 q 294 96 322 82 q 222 136 265 110 q 158 188 179 163 q 106 335 106 251 q 199 526 106 454 q 106 714 106 596 q 199 900 106 832 q 418 968 292 968 q 628 903 550 971 q 669 808 669 864 q 638 724 669 751 q 556 704 606 697 q 396 874 556 874 q 278 840 324 874 q 232 749 232 807 q 317 626 232 675 q 401 585 354 606 q 456 560 447 564 q 653 445 594 500 q 713 281 713 390 q 635 88 713 172 q 713 -85 713 25 m 232 374 q 258 300 232 328 q 276 280 269 288 q 301 262 283 272 q 326 246 318 251 q 356 230 335 240 q 386 217 378 219 q 551 142 478 181 q 586 229 586 183 q 573 303 586 275 q 526 354 560 331 q 388 428 471 393 q 288 472 304 464 q 232 374 232 439 z "},"¨":{"ha":833,"x_min":140,"x_max":568,"o":"m 568 879 q 568 861 568 879 q 542 817 568 843 q 480 792 517 792 q 417 817 443 792 q 392 878 392 843 q 418 940 392 914 q 481 967 444 967 q 542 941 517 967 q 568 879 568 915 m 291 817 q 278 805 291 817 q 229 792 265 792 q 167 817 193 792 q 140 879 140 843 q 167 941 140 915 q 229 967 193 967 q 291 941 265 967 q 317 879 317 915 q 291 817 317 843 z "},"©":{"ha":963,"x_min":69,"x_max":893,"o":"m 507 647 q 599 624 565 647 q 633 567 633 600 q 613 519 633 533 q 571 508 593 506 q 552 557 571 536 q 495 578 533 578 q 433 541 457 578 q 408 446 408 504 q 519 296 408 296 q 625 335 578 296 q 639 298 639 325 q 594 247 639 271 q 489 222 549 222 q 357 277 406 222 q 308 428 308 332 q 361 586 308 525 q 507 647 414 647 m 786 432 q 786 505 786 432 q 702 663 786 578 q 479 749 618 749 q 258 661 340 749 q 176 430 176 574 q 259 201 176 286 q 481 115 342 115 q 703 201 621 115 q 786 432 786 286 m 69 428 q 69 521 69 428 q 181 729 69 614 q 479 844 293 844 q 779 731 665 844 q 893 432 893 618 q 780 133 893 246 q 481 19 667 19 q 182 131 294 19 q 69 428 69 243 z "},"ª":{"ha":497,"x_min":50,"x_max":472,"o":"m 472 482 q 404 428 472 428 q 317 472 336 428 q 194 428 261 428 q 88 459 126 428 q 50 546 50 490 q 95 636 50 601 q 239 671 140 671 q 310 665 278 671 l 310 696 q 234 801 310 801 q 157 725 158 801 q 103 737 125 722 q 81 786 81 751 q 124 847 81 821 q 242 874 167 874 q 418 703 418 874 l 418 488 l 472 482 m 246 607 q 167 551 167 607 q 232 503 167 503 q 310 528 267 503 l 310 596 q 246 607 281 607 z "},"«":{"ha":828,"x_min":69,"x_max":796,"o":"m 474 611 l 233 350 l 233 339 l 479 79 l 408 21 l 69 308 q 69 382 58 344 l 408 669 l 474 611 m 789 611 l 550 350 l 550 339 l 796 79 l 724 21 l 385 308 q 385 382 376 344 l 724 669 l 789 611 z "},"¬":{"ha":690,"x_min":69,"x_max":621,"o":"m 69 436 l 621 436 l 621 175 l 521 175 l 522 338 l 69 338 l 69 436 z "},"­":{"ha":553,"x_min":60,"x_max":493,"o":"m 60 415 l 493 415 l 493 307 l 60 307 l 60 415 z "},"®":{"ha":857,"x_min":78,"x_max":779,"o":"m 78 641 q 78 720 78 641 q 176 898 78 800 q 433 996 275 996 q 685 897 590 996 q 779 639 779 799 q 682 384 779 479 q 429 288 585 289 q 175 385 272 289 q 78 641 78 482 m 169 642 q 169 579 169 642 q 242 442 169 517 q 430 368 314 368 q 617 441 546 368 q 688 639 688 514 q 618 840 688 764 q 431 915 549 915 q 242 841 314 915 q 169 642 169 767 m 304 831 l 431 831 q 567 740 567 831 q 475 639 567 660 q 608 519 539 519 q 556 472 601 472 q 472 522 511 472 q 410 632 432 571 l 396 632 l 396 526 l 442 524 q 440 497 444 514 q 417 479 435 479 l 285 479 q 308 525 285 524 l 324 526 l 324 783 l 283 786 q 304 831 283 831 m 396 786 l 396 676 l 404 676 q 492 735 492 676 q 426 786 492 786 l 396 786 z "},"¯":{"ha":833,"x_min":161,"x_max":554,"o":"m 161 893 l 554 893 l 554 803 l 161 803 l 161 893 z "},"°":{"ha":507,"x_min":79,"x_max":428,"o":"m 253 888 q 235 888 253 888 q 195 865 217 888 q 174 805 174 842 q 196 744 174 768 q 254 721 218 721 q 312 744 290 721 q 333 804 333 768 q 311 864 333 840 q 253 888 289 888 m 128 683 q 103 706 128 683 q 79 804 79 729 q 128 926 79 879 q 254 972 178 972 q 379 926 331 972 q 428 806 428 881 q 378 683 428 731 q 253 636 329 636 q 128 683 176 636 z "},"±":{"ha":690,"x_min":69,"x_max":621,"o":"m 397 431 l 621 431 l 621 332 l 397 332 l 397 185 l 296 185 l 296 332 l 69 332 l 69 431 l 296 431 l 296 657 l 397 657 l 397 431 m 69 28 l 69 126 l 621 126 l 621 28 l 69 28 z "},"²":{"ha":474,"x_min":51,"x_max":426,"o":"m 426 386 l 65 386 q 51 442 47 429 q 83 467 56 444 q 119 496 110 489 q 153 524 128 503 q 190 558 179 546 q 222 590 201 569 q 253 627 243 611 q 274 663 263 643 q 294 733 294 699 q 278 789 294 768 q 225 810 261 810 q 169 778 189 810 q 149 699 149 746 q 64 760 64 696 q 113 840 64 808 q 238 872 161 872 q 361 835 315 872 q 407 739 407 799 q 335 582 407 658 q 182 454 264 506 l 365 454 l 371 503 q 390 529 372 522 q 426 531 408 536 l 426 386 z "},"³":{"ha":439,"x_min":49,"x_max":407,"o":"m 138 667 q 226 689 182 667 q 271 760 271 711 q 214 810 271 810 q 140 736 147 810 q 75 786 75 738 q 115 847 76 822 q 226 872 153 872 q 342 843 299 872 q 386 764 386 814 q 271 650 386 682 q 372 608 336 642 q 407 519 407 575 q 353 420 407 463 q 215 378 299 378 q 90 402 132 378 q 49 461 49 426 q 65 497 49 482 q 111 511 81 511 q 137 460 113 481 q 201 440 161 440 q 266 463 240 440 q 292 519 292 485 q 138 599 290 610 l 138 667 z "},"´":{"ha":833,"x_min":231,"x_max":565,"o":"m 565 908 l 283 757 q 231 808 246 775 l 463 993 q 523 961 492 989 q 565 908 554 933 z "},"µ":{"ha":801,"x_min":100,"x_max":771,"o":"m 771 56 q 671 -21 771 -21 q 547 54 571 -21 q 356 -21 460 -21 q 239 6 292 -21 l 246 -297 q 171 -308 228 -308 q 100 -297 114 -308 l 108 218 q 106 267 106 249 l 106 693 l 247 693 l 247 267 q 393 89 247 89 q 539 143 469 89 l 539 693 l 679 693 l 679 67 l 771 56 z "},"¶":{"ha":965,"x_min":65,"x_max":900,"o":"m 351 949 l 853 949 q 900 871 903 949 l 799 863 l 799 -125 l 654 -125 l 654 863 l 522 863 l 522 -125 l 378 -125 l 378 393 q 154 466 243 393 q 65 667 65 539 q 142 872 65 796 q 351 949 219 949 z "},"·":{"ha":311,"x_min":56,"x_max":256,"o":"m 256 377 q 256 356 256 377 q 227 306 256 335 q 156 278 199 278 q 85 306 114 278 q 56 377 56 335 q 85 449 56 419 q 156 478 114 478 q 227 449 199 478 q 256 377 256 419 z "},"¸":{"ha":833,"x_min":296,"x_max":533,"o":"m 419 -62 q 505 -91 476 -62 q 533 -166 533 -119 q 496 -245 533 -212 q 395 -278 458 -278 q 296 -239 332 -278 q 300 -207 294 -224 q 313 -186 306 -190 q 387 -208 339 -208 q 435 -164 435 -208 q 415 -128 435 -140 q 336 -115 394 -115 l 374 25 l 440 25 l 419 -62 z "},"¹":{"ha":397,"x_min":49,"x_max":349,"o":"m 311 390 l 68 390 l 68 400 q 106 449 68 444 l 156 451 l 156 757 l 101 740 q 63 754 79 733 q 49 786 47 775 l 176 857 q 235 867 196 867 q 265 825 265 867 l 265 453 l 349 447 q 311 390 349 390 z "},"º":{"ha":538,"x_min":58,"x_max":464,"o":"m 263 800 q 197 759 221 800 q 172 647 172 718 q 196 538 172 576 q 262 499 219 499 q 327 537 304 499 q 350 642 350 575 q 263 800 350 800 m 59 643 q 59 697 59 643 q 113 812 58 750 q 265 874 168 874 q 413 812 363 874 q 464 646 464 750 q 409 483 464 542 q 256 425 354 425 q 108 481 157 425 q 59 643 60 536 z "},"»":{"ha":828,"x_min":33,"x_max":760,"o":"m 279 350 l 39 611 l 104 669 l 443 382 q 443 308 454 344 l 104 21 l 33 79 l 279 339 l 279 350 m 594 350 l 356 611 l 421 669 l 760 382 q 760 308 768 344 l 421 21 l 349 79 l 594 339 l 594 350 z "},"¼":{"ha":969,"x_min":40,"x_max":919,"o":"m 919 151 l 919 88 l 854 88 l 854 -11 l 744 -18 l 744 88 l 544 88 q 521 139 525 114 l 763 479 q 853 485 811 489 l 854 151 l 919 151 m 744 151 l 744 343 l 610 151 l 744 151 m 683 871 l 807 871 l 313 0 l 189 0 l 683 871 m 303 385 l 63 385 q 63 394 63 385 q 99 444 63 440 l 149 447 l 149 757 l 94 740 q 56 754 72 733 q 40 788 39 775 l 169 858 q 226 868 189 868 q 257 826 257 868 l 257 449 l 340 443 q 303 385 340 385 z "},"½":{"ha":969,"x_min":26,"x_max":944,"o":"m 944 0 l 582 0 q 568 56 565 40 q 608 88 572 58 q 657 128 644 117 q 745 212 732 194 q 778 256 758 229 q 811 342 811 301 q 794 403 811 382 q 742 424 778 424 q 685 392 706 424 q 665 313 665 360 q 581 374 581 310 q 629 454 581 422 q 755 486 678 486 q 878 449 832 486 q 924 353 924 413 q 851 195 924 272 q 699 68 779 118 l 882 68 l 888 117 q 908 143 890 136 q 944 144 926 150 l 944 0 m 665 871 l 789 871 l 296 0 l 172 0 l 665 871 m 288 383 l 47 383 l 47 392 q 85 443 47 439 l 133 446 l 133 756 l 79 739 q 41 753 57 732 q 26 785 25 774 l 156 856 q 213 867 174 867 q 243 825 243 867 l 243 447 l 325 442 q 326 423 325 436 q 316 397 326 410 q 288 383 306 383 z "},"¾":{"ha":969,"x_min":43,"x_max":929,"o":"m 929 151 l 929 88 l 864 88 l 864 -11 l 754 -18 l 754 88 l 554 88 q 531 139 535 114 l 772 479 q 863 485 821 489 l 864 151 l 929 151 m 754 151 l 754 342 l 619 151 l 754 151 m 710 871 l 833 871 l 340 0 l 217 0 l 710 871 m 132 667 q 221 689 176 667 q 265 760 265 711 q 208 810 265 810 q 135 736 142 810 q 69 786 69 738 q 110 847 71 822 q 221 872 149 872 q 337 843 293 872 q 381 764 381 814 q 265 650 381 682 q 366 608 331 642 q 401 519 401 575 q 347 420 401 463 q 210 378 293 378 q 85 402 126 378 q 43 461 43 426 q 59 497 43 482 q 106 511 75 511 q 131 460 107 481 q 195 440 156 440 q 260 463 235 440 q 286 519 286 485 q 132 599 285 610 l 132 667 z "},"¿":{"ha":690,"x_min":60,"x_max":631,"o":"m 472 801 q 458 786 472 801 q 404 772 444 772 q 336 801 364 772 q 308 869 308 829 q 336 938 308 910 q 404 965 364 965 q 472 938 444 965 q 500 869 500 910 q 472 801 500 829 m 631 147 q 556 15 631 75 q 348 -46 481 -46 q 138 19 215 -46 q 60 197 60 85 q 144 391 60 308 q 349 497 228 474 l 357 658 q 451 658 392 667 l 460 429 q 208 199 208 364 q 247 90 208 135 q 363 44 286 44 q 482 106 439 44 q 525 229 525 168 q 601 209 571 229 q 631 147 631 189 z "},"À":{"ha":890,"x_min":17,"x_max":871,"o":"m 818 0 l 515 0 l 515 11 q 569 82 515 76 l 618 85 l 557 307 l 290 307 l 226 88 l 336 79 q 282 0 344 0 l 17 0 l 17 11 q 71 82 17 76 l 125 85 l 392 947 q 513 947 444 953 l 776 88 l 871 79 q 818 0 879 0 m 314 390 l 533 390 l 426 774 l 314 390 m 354 1247 l 586 1063 q 533 1011 571 1029 l 251 1163 q 294 1215 263 1188 q 354 1247 325 1243 z "},"Á":{"ha":890,"x_min":17,"x_max":871,"o":"m 818 0 l 515 0 l 515 11 q 569 82 515 76 l 618 85 l 557 307 l 290 307 l 226 88 l 336 79 q 282 0 344 0 l 17 0 l 17 11 q 71 82 17 76 l 125 85 l 392 947 q 513 947 444 953 l 776 88 l 871 79 q 818 0 879 0 m 314 390 l 533 390 l 426 774 l 314 390 m 674 1167 l 390 1015 q 339 1067 354 1033 l 569 1251 q 629 1219 599 1247 q 674 1167 660 1192 z "},"Â":{"ha":890,"x_min":17,"x_max":871,"o":"m 818 0 l 515 0 l 515 11 q 569 82 515 76 l 618 85 l 557 307 l 290 307 l 226 88 l 336 79 q 282 0 344 0 l 17 0 l 17 11 q 71 82 17 76 l 125 85 l 392 947 q 513 947 444 953 l 776 88 l 871 79 q 818 0 879 0 m 314 390 l 533 390 l 426 774 l 314 390 m 450 1122 l 260 1003 q 215 1050 233 1019 l 404 1222 q 503 1222 454 1235 l 688 1050 q 640 1003 667 1017 l 450 1122 z "},"Ã":{"ha":890,"x_min":17,"x_max":871,"o":"m 818 0 l 515 0 l 515 11 q 569 82 515 76 l 618 85 l 557 307 l 290 307 l 226 88 l 336 79 q 282 0 344 0 l 17 0 l 17 11 q 71 82 17 76 l 125 85 l 392 947 q 513 947 444 953 l 776 88 l 871 79 q 818 0 879 0 m 314 390 l 533 390 l 426 774 l 314 390 m 538 1036 q 426 1072 486 1036 q 340 1108 367 1108 q 292 1090 313 1108 q 263 1044 271 1072 l 217 1061 q 268 1180 229 1136 q 356 1224 307 1224 q 463 1184 406 1224 q 556 1144 521 1144 q 615 1164 592 1144 q 646 1215 638 1183 l 690 1203 q 538 1036 665 1036 z "},"Ä":{"ha":890,"x_min":17,"x_max":871,"o":"m 818 0 l 515 0 l 515 11 q 569 82 515 76 l 618 85 l 557 307 l 290 307 l 226 88 l 336 79 q 282 0 344 0 l 17 0 l 17 11 q 71 82 17 76 l 125 85 l 392 947 q 513 947 444 953 l 776 88 l 871 79 q 818 0 879 0 m 314 390 l 533 390 l 426 774 l 314 390 m 408 1133 q 408 1115 408 1133 q 383 1072 408 1097 q 322 1046 358 1046 q 258 1072 285 1046 q 232 1133 232 1097 q 258 1195 232 1169 q 322 1221 285 1221 q 383 1195 358 1221 q 408 1133 408 1169 m 660 1133 q 660 1115 660 1133 q 634 1072 660 1097 q 572 1046 608 1046 q 510 1072 535 1046 q 485 1133 485 1097 q 510 1195 485 1169 q 572 1221 536 1221 q 634 1195 608 1221 q 660 1133 660 1169 z "},"Å":{"ha":890,"x_min":17,"x_max":871,"o":"m 818 0 l 515 0 l 515 11 q 569 82 515 76 l 618 85 l 557 307 l 290 307 l 226 88 l 336 79 q 282 0 344 0 l 17 0 l 17 11 q 71 82 17 76 l 125 85 l 392 947 q 513 947 444 953 l 776 88 l 871 79 q 818 0 879 0 m 314 390 l 533 390 l 426 774 l 314 390 m 585 1138 q 584 1110 585 1138 q 547 1047 583 1082 q 453 1013 511 1013 q 360 1046 396 1013 q 325 1135 325 1079 q 362 1226 325 1190 q 458 1261 399 1261 q 551 1227 517 1261 q 585 1138 586 1193 m 500 1180 q 492 1188 500 1180 q 456 1196 483 1196 q 411 1180 428 1196 q 394 1136 394 1164 q 411 1092 394 1108 q 456 1075 428 1075 q 500 1092 483 1075 q 517 1136 517 1108 q 500 1180 517 1164 z "},"Æ":{"ha":1235,"x_min":17,"x_max":1186,"o":"m 501 0 l 501 17 q 510 57 501 47 q 524 72 518 67 q 556 82 536 82 l 604 85 l 604 415 l 383 415 l 228 88 l 336 79 q 282 0 344 0 l 17 0 l 17 11 q 71 82 17 76 l 125 85 l 546 947 l 1158 949 l 1158 743 q 1079 696 1158 688 l 1067 857 l 750 863 l 750 508 l 1006 533 q 1007 410 1019 478 l 750 424 l 750 88 l 1094 99 l 1107 260 q 1186 213 1186 268 l 1186 0 l 501 0 m 604 499 l 604 860 l 596 861 l 424 499 l 604 499 z "},"Ç":{"ha":814,"x_min":50,"x_max":774,"o":"m 496 968 q 689 915 614 968 q 764 788 764 863 q 733 711 764 738 q 646 685 701 685 q 603 819 646 772 q 481 865 561 865 q 275 758 347 865 q 203 469 203 650 q 273 188 203 288 q 495 89 343 89 q 753 174 647 89 q 774 133 774 160 q 692 38 774 86 q 493 -19 610 -11 l 483 -62 q 570 -91 542 -62 q 599 -166 599 -119 q 561 -245 599 -212 q 460 -278 524 -278 q 360 -239 396 -278 q 364 -207 358 -224 q 376 -186 369 -190 q 451 -208 403 -208 q 499 -164 499 -208 q 478 -128 499 -140 q 400 -115 458 -115 l 425 -19 q 148 116 243 -10 q 51 463 53 242 q 165 826 49 685 q 496 968 281 968 z "},"È":{"ha":785,"x_min":57,"x_max":736,"o":"m 519 1011 l 238 1163 q 280 1215 249 1188 q 340 1247 311 1243 l 572 1063 q 519 1011 557 1029 m 57 0 l 57 17 q 65 57 57 47 q 79 72 74 67 q 111 82 92 82 l 160 85 l 160 860 l 60 868 q 114 947 51 947 l 714 947 l 714 743 q 635 694 714 686 l 622 857 l 306 861 l 306 507 l 561 532 q 563 408 575 476 l 306 424 l 306 88 l 646 99 l 658 260 q 736 213 736 268 l 736 0 l 57 0 z "},"É":{"ha":785,"x_min":57,"x_max":736,"o":"m 660 1167 l 376 1015 q 325 1067 340 1033 l 556 1251 q 616 1219 585 1247 q 660 1167 647 1192 m 57 0 l 57 17 q 65 57 57 47 q 79 72 74 67 q 111 82 92 82 l 160 85 l 160 860 l 60 868 q 114 947 51 947 l 714 947 l 714 743 q 635 694 714 686 l 622 857 l 306 861 l 306 507 l 561 532 q 563 408 575 476 l 306 424 l 306 88 l 646 99 l 658 260 q 736 213 736 268 l 736 0 l 57 0 z "},"Ê":{"ha":785,"x_min":57,"x_max":736,"o":"m 57 0 l 57 17 q 65 57 57 47 q 79 72 74 67 q 111 82 92 82 l 160 85 l 160 860 l 60 868 q 114 947 51 947 l 714 947 l 714 743 q 635 694 714 686 l 622 857 l 306 861 l 306 507 l 561 532 q 563 408 575 476 l 306 424 l 306 88 l 646 99 l 658 260 q 736 213 736 268 l 736 0 l 57 0 m 438 1124 l 246 1003 q 201 1050 219 1019 l 390 1222 q 489 1222 440 1235 l 674 1050 q 628 1003 654 1018 l 438 1124 z "},"Ë":{"ha":785,"x_min":57,"x_max":736,"o":"m 647 1133 q 647 1115 647 1133 q 622 1072 647 1097 q 558 1046 596 1046 q 496 1072 521 1046 q 471 1133 471 1097 q 497 1195 471 1169 q 558 1221 522 1221 q 621 1195 594 1221 q 647 1133 647 1169 m 394 1133 q 394 1115 394 1133 q 369 1072 394 1097 q 308 1046 344 1046 q 245 1072 271 1046 q 219 1133 219 1097 q 245 1195 219 1169 q 308 1221 271 1221 q 369 1195 344 1221 q 394 1133 394 1169 m 57 0 l 57 17 q 65 57 57 47 q 79 72 74 67 q 111 82 92 82 l 160 85 l 160 860 l 60 868 q 114 947 51 947 l 714 947 l 714 743 q 635 694 714 686 l 622 857 l 306 861 l 306 507 l 561 532 q 563 408 575 476 l 306 424 l 306 88 l 646 99 l 658 260 q 736 213 736 268 l 736 0 l 57 0 z "},"Ì":{"ha":465,"x_min":35,"x_max":410,"o":"m 353 0 l 57 0 l 57 11 q 111 82 57 76 l 160 85 l 160 860 l 60 868 q 113 947 51 947 l 410 947 l 410 936 q 356 865 410 871 l 306 863 l 306 88 l 307 88 l 407 79 q 353 0 415 0 m 138 1247 l 369 1063 q 317 1011 354 1029 l 35 1163 q 77 1215 46 1188 q 138 1247 108 1243 z "},"Í":{"ha":465,"x_min":57,"x_max":457,"o":"m 306 88 l 307 88 l 407 79 q 353 0 415 0 l 57 0 l 57 11 q 111 82 57 76 l 160 85 l 160 860 l 60 868 q 113 947 51 947 l 410 947 l 410 936 q 356 865 410 871 l 306 863 l 306 88 m 457 1167 l 174 1015 q 122 1067 138 1032 l 353 1251 q 413 1219 382 1247 q 457 1167 444 1192 z "},"Î":{"ha":465,"x_min":-3,"x_max":471,"o":"m 285 1222 l 471 1050 q 424 1003 450 1017 l 233 1122 l 43 1003 q -3 1050 15 1018 l 188 1222 q 285 1222 238 1235 m 306 88 l 307 88 l 407 79 q 353 0 415 0 l 57 0 l 57 11 q 111 82 57 76 l 160 85 l 160 860 l 60 868 q 113 947 51 947 l 410 947 l 410 936 q 356 865 410 871 l 306 863 l 306 88 z "},"Ï":{"ha":465,"x_min":15,"x_max":443,"o":"m 267 1133 q 267 1151 267 1133 q 293 1195 267 1169 q 356 1221 319 1221 q 417 1195 392 1221 q 443 1133 443 1169 q 417 1072 443 1097 q 355 1046 392 1046 q 292 1072 318 1046 q 267 1133 267 1097 m 306 88 l 307 88 l 407 79 q 353 0 415 0 l 57 0 l 57 11 q 111 82 57 76 l 160 85 l 160 860 l 60 868 q 113 947 51 947 l 410 947 l 410 936 q 356 865 410 871 l 306 863 l 306 88 m 166 1195 q 179 1182 166 1195 q 192 1133 192 1169 q 166 1072 192 1097 q 104 1046 140 1046 q 42 1072 68 1046 q 15 1133 15 1097 q 42 1195 15 1169 q 104 1221 68 1221 q 166 1195 140 1221 z "},"Ð":{"ha":986,"x_min":57,"x_max":914,"o":"m 119 949 l 432 949 q 795 833 676 949 q 914 482 914 718 q 790 123 914 246 q 436 0 665 0 l 57 0 q 103 81 54 78 l 158 86 l 158 425 l 82 425 l 82 511 l 158 511 l 158 860 l 60 868 q 71 928 58 908 q 119 949 83 949 m 399 85 q 673 170 585 76 q 761 476 761 264 q 670 779 761 688 q 381 864 579 871 l 306 861 l 304 861 l 304 511 l 521 511 l 521 425 l 304 425 l 304 89 l 399 85 z "},"Ñ":{"ha":958,"x_min":57,"x_max":932,"o":"m 689 947 l 932 947 q 932 936 932 947 q 878 865 932 871 l 828 863 l 828 17 q 735 -1 788 -1 l 254 725 l 254 88 l 354 79 q 301 0 363 0 l 57 0 l 57 11 q 111 82 57 76 l 160 85 l 160 860 l 60 868 q 113 947 51 947 l 282 947 l 735 263 l 735 860 l 635 868 q 689 947 626 947 m 569 1036 q 457 1072 517 1036 q 371 1108 397 1108 q 324 1090 344 1108 q 294 1044 303 1072 l 249 1061 q 300 1180 261 1136 q 388 1224 339 1224 q 495 1184 438 1224 q 588 1144 553 1144 q 647 1164 624 1144 q 678 1215 669 1183 l 722 1203 q 569 1036 697 1036 z "},"Ò":{"ha":932,"x_min":50,"x_max":882,"o":"m 563 1011 l 281 1163 q 323 1215 292 1188 q 383 1247 354 1243 l 615 1063 q 563 1011 600 1029 m 486 968 q 771 848 661 968 q 881 490 881 728 q 767 116 882 253 q 442 -21 651 -21 q 156 106 258 -21 q 51 463 53 232 q 165 831 49 693 q 486 968 281 968 m 466 872 q 400 871 466 872 q 268 768 335 871 q 201 476 201 665 q 267 182 201 286 q 461 76 332 78 q 663 180 594 78 q 731 472 731 282 q 664 767 731 661 q 466 872 597 872 z "},"Ó":{"ha":932,"x_min":50,"x_max":882,"o":"m 701 1167 l 419 1015 q 367 1067 382 1033 l 597 1251 q 658 1219 626 1247 q 701 1167 689 1192 m 466 872 q 400 871 466 872 q 268 768 335 871 q 201 476 201 665 q 267 182 201 286 q 461 76 332 78 q 663 180 594 78 q 731 472 731 282 q 664 767 731 661 q 466 872 597 872 m 486 968 q 771 848 661 968 q 881 490 881 728 q 767 116 882 253 q 442 -21 651 -21 q 156 106 258 -21 q 51 463 53 232 q 165 831 49 693 q 486 968 281 968 z "},"Ô":{"ha":932,"x_min":50,"x_max":882,"o":"m 486 968 q 771 848 661 968 q 881 490 881 728 q 767 116 882 253 q 442 -21 651 -21 q 156 106 258 -21 q 51 463 53 232 q 165 831 49 693 q 486 968 281 968 m 461 76 q 663 180 594 78 q 731 472 731 282 q 664 767 731 661 q 466 872 597 872 q 268 768 335 871 q 201 476 201 665 q 267 182 201 286 q 461 76 332 78 m 479 1122 l 289 1003 q 243 1050 261 1018 l 433 1222 q 531 1222 483 1235 l 717 1050 q 669 1003 696 1017 l 479 1122 z "},"Õ":{"ha":932,"x_min":50,"x_max":882,"o":"m 246 1061 q 297 1179 257 1135 q 385 1224 336 1224 q 492 1184 435 1224 q 585 1144 549 1144 q 644 1164 621 1144 q 675 1215 668 1183 l 718 1203 q 567 1036 693 1036 q 454 1072 514 1036 q 368 1108 394 1108 q 321 1090 342 1108 q 292 1044 300 1072 l 246 1061 m 466 872 q 400 871 466 872 q 268 768 335 871 q 201 476 201 665 q 267 182 201 286 q 461 76 332 78 q 663 180 594 78 q 731 472 731 282 q 664 767 731 661 q 466 872 597 872 m 486 968 q 771 848 661 968 q 881 490 881 728 q 767 116 882 253 q 442 -21 651 -21 q 156 106 258 -21 q 51 463 53 232 q 165 831 49 693 q 486 968 281 968 z "},"Ö":{"ha":932,"x_min":50,"x_max":882,"o":"m 689 1133 q 689 1115 689 1133 q 663 1072 689 1097 q 601 1046 638 1046 q 538 1072 564 1046 q 513 1133 513 1097 q 538 1195 513 1169 q 601 1221 564 1221 q 663 1195 638 1221 q 689 1133 689 1169 m 412 1072 q 399 1059 412 1072 q 350 1046 386 1046 q 288 1072 314 1046 q 261 1133 261 1097 q 288 1195 261 1169 q 350 1221 314 1221 q 412 1195 386 1221 q 438 1133 438 1169 q 412 1072 438 1097 m 466 872 q 400 871 466 872 q 268 768 335 871 q 201 476 201 665 q 267 182 201 286 q 461 76 332 78 q 663 180 594 78 q 731 472 731 282 q 664 767 731 661 q 466 872 597 872 m 486 968 q 771 848 661 968 q 881 490 881 728 q 767 116 882 253 q 442 -21 651 -21 q 156 106 258 -21 q 51 463 53 232 q 165 831 49 693 q 486 968 281 968 z "},"×":{"ha":607,"x_min":69,"x_max":538,"o":"m 538 542 l 375 379 l 536 218 l 465 147 l 304 308 l 142 146 l 69 218 l 232 381 l 69 543 l 140 614 l 303 451 l 465 614 l 538 542 z "},"Ø":{"ha":964,"x_min":51,"x_max":882,"o":"m 442 -21 q 269 15 346 -21 l 246 -25 l 157 24 l 186 74 q 51 445 54 197 q 165 831 49 693 q 486 968 281 968 q 679 922 594 968 l 711 976 l 800 932 l 758 861 q 881 494 881 735 q 767 116 882 253 q 442 -21 651 -21 m 465 871 q 268 768 335 871 q 201 481 201 665 q 258 197 201 297 l 619 818 q 465 871 558 871 m 461 76 q 663 180 594 78 q 731 457 731 282 q 683 731 731 632 l 328 117 q 461 76 383 76 z "},"Ù":{"ha":917,"x_min":22,"x_max":897,"o":"m 547 1011 l 265 1163 q 308 1215 276 1188 q 368 1247 339 1243 l 600 1063 q 547 1011 585 1029 m 650 947 l 897 947 q 897 936 897 947 q 843 865 897 871 l 794 863 l 794 383 q 449 -21 794 -21 q 204 74 286 -21 q 122 378 122 169 l 122 860 l 22 868 q 75 947 14 947 l 371 947 l 371 936 q 317 865 371 871 l 268 863 l 267 367 q 315 146 267 215 q 469 76 363 76 q 697 354 697 76 l 696 860 l 597 868 q 650 947 589 947 z "},"Ú":{"ha":917,"x_min":22,"x_max":897,"o":"m 686 1167 l 404 1015 q 353 1067 368 1032 l 583 1251 q 644 1219 613 1247 q 686 1167 675 1192 m 650 947 l 897 947 q 897 936 897 947 q 843 865 897 871 l 794 863 l 794 383 q 449 -21 794 -21 q 204 74 286 -21 q 122 378 122 169 l 122 860 l 22 868 q 75 947 14 947 l 371 947 l 371 936 q 317 865 371 871 l 268 863 l 267 367 q 315 146 267 215 q 469 76 363 76 q 697 354 697 76 l 696 860 l 597 868 q 650 947 589 947 z "},"Û":{"ha":917,"x_min":22,"x_max":897,"o":"m 650 947 l 897 947 q 897 936 897 947 q 843 865 897 871 l 794 863 l 794 383 q 449 -21 794 -21 q 204 74 286 -21 q 122 378 122 169 l 122 860 l 22 868 q 75 947 14 947 l 371 947 l 371 936 q 317 865 371 871 l 268 863 l 267 367 q 315 146 267 215 q 469 76 363 76 q 697 354 697 76 l 696 860 l 597 868 q 650 947 589 947 m 464 1122 l 274 1003 q 228 1050 246 1018 l 418 1222 q 515 1222 468 1235 l 701 1050 q 654 1003 681 1017 l 464 1122 z "},"Ü":{"ha":917,"x_min":22,"x_max":897,"o":"m 674 1133 q 674 1115 674 1133 q 648 1072 674 1097 q 585 1046 622 1046 q 523 1072 549 1046 q 497 1133 497 1097 q 524 1195 497 1169 q 586 1221 550 1221 q 648 1195 622 1221 q 674 1133 674 1169 m 397 1072 q 384 1059 397 1072 q 335 1046 371 1046 q 272 1072 299 1046 q 246 1133 246 1097 q 272 1195 246 1169 q 335 1221 299 1221 q 397 1195 371 1221 q 422 1133 422 1169 q 397 1072 422 1097 m 650 947 l 897 947 l 897 936 q 843 865 897 871 l 794 863 l 794 383 q 449 -21 794 -21 q 204 74 286 -21 q 122 378 122 169 l 122 860 l 22 868 q 75 947 14 947 l 371 947 l 371 936 q 317 865 371 871 l 268 863 l 267 367 q 315 146 267 215 q 469 76 363 76 q 697 354 697 76 l 696 860 l 597 868 q 650 947 589 947 z "},"Ý":{"ha":860,"x_min":4,"x_max":856,"o":"m 610 949 l 856 949 q 856 939 856 949 q 801 867 856 872 l 769 863 l 504 392 l 504 88 l 506 88 l 606 79 q 551 0 614 0 l 254 0 l 254 11 q 308 82 254 76 l 358 85 l 358 389 l 89 860 l 4 868 q 57 949 -4 949 l 364 949 l 364 939 q 335 872 364 889 q 310 867 324 867 l 258 863 l 257 863 l 461 494 l 660 860 l 557 868 q 610 949 549 949 m 671 1167 l 389 1015 q 336 1067 351 1033 l 568 1251 q 628 1219 597 1247 q 671 1167 660 1192 z "},"Þ":{"ha":822,"x_min":57,"x_max":763,"o":"m 306 774 l 400 774 q 669 700 575 774 q 763 490 763 626 q 658 277 763 353 q 369 201 553 201 l 306 201 l 306 88 l 307 88 l 407 79 q 353 0 415 0 l 57 0 l 57 11 q 111 82 57 76 l 160 85 l 160 860 l 60 868 q 113 949 51 949 l 410 949 l 410 939 q 381 872 410 889 q 356 867 369 867 l 306 863 l 306 774 m 375 696 l 306 696 l 306 279 l 347 279 q 542 334 475 279 q 610 492 610 389 q 375 696 610 696 z "},"ß":{"ha":882,"x_min":50,"x_max":849,"o":"m 154 624 q 241 910 154 817 q 481 1004 328 1004 q 666 956 597 1003 q 735 822 735 908 q 665 676 735 739 q 608 628 636 650 q 539 535 539 572 q 596 458 539 494 q 681 411 625 439 q 808 324 768 371 q 849 211 849 278 q 778 49 849 118 q 592 -21 708 -21 q 438 15 506 -21 q 371 118 371 51 q 400 183 371 160 q 469 207 429 207 q 517 110 478 147 q 611 72 557 72 q 697 101 665 72 q 728 169 728 129 q 698 235 728 210 q 617 288 668 261 q 546 326 565 315 q 496 359 526 338 q 450 400 465 381 q 411 501 411 450 q 431 589 411 553 q 481 651 451 625 q 539 700 510 676 q 608 817 608 756 q 488 910 608 910 q 296 625 296 910 l 296 0 l 50 0 l 50 11 q 60 56 50 44 q 106 81 78 78 l 154 82 l 154 624 z "},"à":{"ha":714,"x_min":50,"x_max":696,"o":"m 696 56 q 595 -21 696 -21 q 471 56 494 -21 q 274 -21 381 -21 q 108 30 167 -21 q 50 169 50 81 q 117 317 50 258 q 335 375 185 375 q 463 364 400 375 l 463 442 q 325 618 463 618 q 237 581 269 618 q 201 486 204 543 q 123 503 154 482 q 92 567 92 524 q 158 672 92 631 q 337 714 224 714 q 527 653 450 714 q 604 450 604 592 l 604 67 l 696 56 m 463 267 q 341 290 407 290 q 238 263 275 290 q 200 184 200 235 q 229 106 200 133 q 324 78 258 78 q 463 129 390 78 l 463 267 m 239 993 l 471 808 q 418 757 456 775 l 136 908 q 178 961 147 933 q 239 993 210 989 z "},"á":{"ha":714,"x_min":50,"x_max":696,"o":"m 696 56 q 595 -21 696 -21 q 471 56 494 -21 q 274 -21 381 -21 q 108 30 167 -21 q 50 169 50 81 q 117 317 50 258 q 335 375 185 375 q 463 364 400 375 l 463 442 q 325 618 463 618 q 237 581 269 618 q 201 486 204 543 q 123 503 154 482 q 92 567 92 524 q 158 672 92 631 q 337 714 224 714 q 527 653 450 714 q 604 450 604 592 l 604 67 l 696 56 m 463 267 q 341 290 407 290 q 238 263 275 290 q 200 184 200 235 q 229 106 200 133 q 324 78 258 78 q 463 129 390 78 l 463 267 m 558 908 l 276 757 q 224 808 239 775 l 456 993 q 516 961 485 989 q 558 908 547 933 z "},"â":{"ha":714,"x_min":50,"x_max":696,"o":"m 696 56 q 595 -21 696 -21 q 471 56 494 -21 q 274 -21 381 -21 q 108 30 167 -21 q 50 169 50 81 q 117 317 50 258 q 335 375 185 375 q 463 364 400 375 l 463 442 q 325 618 463 618 q 237 581 269 618 q 201 486 204 543 q 123 503 154 482 q 92 567 92 524 q 158 672 92 631 q 337 714 224 714 q 527 653 450 714 q 604 450 604 592 l 604 67 l 696 56 m 463 267 q 341 290 407 290 q 238 263 275 290 q 200 184 200 235 q 229 106 200 133 q 324 78 258 78 q 463 129 390 78 l 463 267 m 336 869 l 144 749 q 100 796 118 765 l 289 968 q 388 968 340 981 l 574 796 q 526 749 550 761 l 336 869 z "},"ã":{"ha":714,"x_min":50,"x_max":696,"o":"m 696 56 q 595 -21 696 -21 q 471 56 494 -21 q 274 -21 381 -21 q 108 30 167 -21 q 50 169 50 81 q 117 317 50 258 q 335 375 185 375 q 463 364 400 375 l 463 442 q 325 618 463 618 q 237 581 269 618 q 201 486 204 543 q 123 503 154 482 q 92 567 92 524 q 158 672 92 631 q 337 714 224 714 q 527 653 450 714 q 604 450 604 592 l 604 67 l 696 56 m 463 267 q 341 290 407 290 q 238 263 275 290 q 200 184 200 235 q 229 106 200 133 q 324 78 258 78 q 463 129 390 78 l 463 267 m 533 956 l 576 942 q 422 778 550 775 q 310 816 369 779 q 224 853 250 853 q 177 836 199 854 q 147 792 156 818 l 101 810 q 155 926 115 883 q 244 968 194 969 q 349 926 293 967 q 443 886 406 886 q 533 956 514 885 z "},"ä":{"ha":714,"x_min":50,"x_max":696,"o":"m 696 56 q 595 -21 696 -21 q 471 56 494 -21 q 274 -21 381 -21 q 108 30 167 -21 q 50 169 50 81 q 117 317 50 258 q 335 375 185 375 q 463 364 400 375 l 463 442 q 325 618 463 618 q 237 581 269 618 q 201 486 204 543 q 123 503 154 482 q 92 567 92 524 q 158 672 92 631 q 337 714 224 714 q 527 653 450 714 q 604 450 604 592 l 604 67 l 696 56 m 463 267 q 341 290 407 290 q 238 263 275 290 q 200 184 200 235 q 229 106 200 133 q 324 78 258 78 q 463 129 390 78 l 463 267 m 269 817 q 256 805 269 817 q 207 792 243 792 q 144 817 171 792 q 118 879 118 843 q 144 941 118 915 q 207 967 171 967 q 269 941 243 967 q 294 879 294 915 q 269 817 294 843 m 546 879 q 546 861 546 879 q 520 817 546 843 q 458 792 494 792 q 395 817 421 792 q 369 878 369 843 q 396 940 369 914 q 458 967 422 967 q 520 941 494 967 q 546 879 546 915 z "},"å":{"ha":714,"x_min":50,"x_max":696,"o":"m 696 56 q 595 -21 696 -21 q 471 56 494 -21 q 274 -21 381 -21 q 108 30 167 -21 q 50 169 50 81 q 117 317 50 258 q 335 375 185 375 q 463 364 400 375 l 463 442 q 325 618 463 618 q 237 581 269 618 q 201 486 204 543 q 123 503 154 482 q 92 567 92 524 q 158 672 92 631 q 337 714 224 714 q 527 653 450 714 q 604 450 604 592 l 604 67 l 696 56 m 463 267 q 341 290 407 290 q 238 263 275 290 q 200 184 200 235 q 229 106 200 133 q 324 78 258 78 q 463 129 390 78 l 463 267 m 470 883 q 470 856 470 883 q 433 793 469 828 q 338 758 396 758 q 246 792 281 758 q 211 881 211 825 q 247 972 211 936 q 342 1007 283 1007 q 436 973 401 1007 q 470 883 471 939 m 340 942 q 281 882 281 942 q 297 838 281 854 q 340 821 313 821 q 385 838 368 821 q 401 882 401 854 q 385 926 401 910 q 340 942 368 942 z "},"æ":{"ha":1083,"x_min":50,"x_max":1040,"o":"m 463 442 q 331 618 463 618 q 235 579 267 618 q 201 486 203 540 q 123 502 154 482 q 92 565 92 522 q 158 672 92 629 q 331 714 225 714 q 558 613 500 714 q 783 714 646 714 q 982 631 921 714 q 1040 425 1043 549 l 1040 350 l 613 350 l 613 324 q 656 148 613 210 q 805 86 700 86 q 1003 161 910 86 q 1026 111 1026 144 q 950 23 1026 67 q 767 -21 874 -21 q 524 92 601 -21 q 265 -21 417 -21 q 109 30 168 -21 q 50 169 50 81 q 117 317 50 258 q 336 375 185 375 q 463 363 394 375 l 463 442 m 463 265 q 342 290 408 290 q 238 263 276 290 q 200 182 200 235 q 315 78 200 78 q 463 132 394 78 l 463 265 m 776 618 q 621 433 650 618 l 901 433 q 776 618 897 618 z "},"ç":{"ha":646,"x_min":51,"x_max":613,"o":"m 389 714 q 544 674 485 714 q 603 574 603 633 q 571 492 603 514 q 499 474 539 469 q 465 572 497 529 q 369 615 433 615 q 243 544 288 615 q 199 353 199 472 q 404 88 199 88 q 588 161 497 88 q 606 138 599 154 q 613 111 613 122 q 540 28 613 71 q 374 -21 468 -15 l 364 -62 q 449 -91 421 -62 q 478 -166 478 -119 q 440 -245 478 -212 q 340 -278 403 -278 q 240 -239 276 -278 q 244 -207 239 -224 q 257 -186 250 -190 q 331 -208 283 -208 q 379 -164 379 -208 q 359 -128 379 -140 q 281 -115 339 -115 l 307 -18 q 119 88 186 -4 q 51 325 51 181 q 142 608 50 501 q 389 714 233 714 z "},"è":{"ha":672,"x_min":51,"x_max":629,"o":"m 200 350 l 200 324 q 244 147 200 208 q 392 86 289 86 q 590 161 496 86 q 614 111 614 144 q 538 23 614 67 q 354 -21 461 -21 q 131 66 211 -21 q 51 331 51 153 q 142 611 51 508 q 369 714 232 714 q 568 632 506 714 q 629 425 631 550 l 629 350 l 200 350 m 364 618 q 208 433 238 618 l 489 433 q 364 618 485 618 m 279 993 l 511 808 q 458 757 496 775 l 176 908 q 219 961 188 933 q 279 993 250 989 z "},"é":{"ha":672,"x_min":51,"x_max":629,"o":"m 200 350 l 200 324 q 244 147 200 208 q 392 86 289 86 q 590 161 496 86 q 614 111 614 144 q 538 23 614 67 q 354 -21 461 -21 q 131 66 211 -21 q 51 331 51 153 q 142 611 51 508 q 369 714 232 714 q 568 632 506 714 q 629 425 631 550 l 629 350 l 200 350 m 364 618 q 208 433 238 618 l 489 433 q 364 618 485 618 m 597 908 l 315 757 q 263 808 278 775 l 494 993 q 555 961 524 989 q 597 908 586 933 z "},"ê":{"ha":672,"x_min":51,"x_max":629,"o":"m 200 350 l 200 324 q 244 147 200 208 q 392 86 289 86 q 590 161 496 86 q 614 111 614 144 q 538 23 614 67 q 354 -21 461 -21 q 131 66 211 -21 q 51 331 51 153 q 142 611 51 508 q 369 714 232 714 q 568 632 506 714 q 629 425 631 550 l 629 350 l 200 350 m 364 618 q 208 433 238 618 l 489 433 q 364 618 485 618 m 376 869 l 185 749 q 140 796 158 765 l 329 968 q 428 968 379 981 l 613 796 q 567 749 593 764 l 376 869 z "},"ë":{"ha":672,"x_min":51,"x_max":629,"o":"m 200 350 l 200 324 q 244 147 200 208 q 392 86 289 86 q 590 161 496 86 q 614 111 614 144 q 538 23 614 67 q 354 -21 461 -21 q 131 66 211 -21 q 51 331 51 153 q 142 611 51 508 q 369 714 232 714 q 568 632 506 714 q 629 425 631 550 l 629 350 l 200 350 m 364 618 q 208 433 238 618 l 489 433 q 364 618 485 618 m 309 817 q 296 805 309 817 q 247 792 283 792 q 185 817 211 792 q 158 879 158 843 q 185 941 158 915 q 247 967 211 967 q 309 941 283 967 q 335 879 335 915 q 309 817 335 843 m 586 879 q 586 861 586 879 q 560 817 586 843 q 498 792 535 792 q 435 817 461 792 q 410 878 410 843 q 435 940 410 914 q 498 967 461 967 q 560 941 535 967 q 586 879 586 915 z "},"ì":{"ha":428,"x_min":14,"x_max":399,"o":"m 346 0 l 53 0 l 53 11 q 107 81 53 75 l 156 83 l 156 604 l 94 611 q 50 686 50 615 l 297 714 l 297 86 l 399 78 q 346 0 407 0 m 117 993 l 349 808 q 296 757 333 775 l 14 908 q 56 961 25 933 q 117 993 88 989 z "},"í":{"ha":428,"x_min":50,"x_max":436,"o":"m 346 0 l 53 0 l 53 11 q 107 81 53 75 l 156 83 l 156 604 l 94 611 q 50 686 50 615 l 297 714 l 297 86 l 399 78 q 346 0 407 0 m 436 908 l 154 757 q 101 808 117 775 l 333 993 q 394 961 363 989 q 436 908 425 933 z "},"î":{"ha":428,"x_min":-22,"x_max":450,"o":"m 265 968 l 450 796 q 404 749 431 764 l 214 869 l 22 749 q -22 796 -4 765 l 167 968 q 265 968 217 981 m 346 0 l 53 0 l 53 11 q 107 81 53 75 l 156 83 l 156 604 l 94 611 q 50 686 50 615 l 297 714 l 297 86 l 399 78 q 346 0 407 0 z "},"ï":{"ha":428,"x_min":-4,"x_max":424,"o":"m 346 0 l 53 0 l 53 11 q 107 81 53 75 l 156 83 l 156 604 l 94 611 q 50 686 50 615 l 297 714 l 297 86 l 399 78 q 346 0 407 0 m 147 941 q 159 928 147 941 q 172 879 172 915 q 147 817 172 843 q 85 792 121 792 q 22 817 49 792 q -4 879 -4 843 q 22 941 -4 915 q 85 967 49 967 q 147 941 121 967 m 424 879 q 424 861 424 879 q 398 817 424 843 q 335 792 372 792 q 273 817 299 792 q 247 878 247 843 q 274 940 247 914 q 336 967 300 967 q 398 941 372 967 q 424 879 424 915 z "},"ð":{"ha":751,"x_min":51,"x_max":700,"o":"m 700 407 q 606 96 700 213 q 349 -21 511 -21 q 133 64 211 -21 q 51 301 54 149 q 138 560 49 454 q 390 667 226 667 q 504 647 454 667 q 390 796 464 735 l 257 708 l 215 779 l 318 844 q 164 899 244 886 l 207 975 q 411 906 313 958 l 526 979 l 568 914 l 485 858 q 700 407 700 700 m 354 86 q 499 173 447 86 q 551 407 551 260 q 544 503 551 454 q 378 568 474 568 q 235 486 276 568 q 199 309 199 414 q 239 145 199 204 q 354 86 279 86 z "},"ñ":{"ha":883,"x_min":50,"x_max":853,"o":"m 274 792 l 229 810 q 281 926 242 883 q 370 968 321 969 q 476 926 419 967 q 569 886 533 886 q 660 956 640 885 l 703 942 q 549 778 679 775 q 436 816 496 779 q 351 853 376 853 q 304 837 325 854 q 274 792 283 819 m 800 0 l 511 0 l 511 11 q 565 81 511 75 l 614 83 l 614 432 q 479 596 614 596 q 383 578 424 596 q 297 521 343 561 l 297 86 l 396 78 q 343 0 404 0 l 51 0 l 51 11 q 61 56 51 44 q 107 81 79 78 l 156 83 l 156 599 l 94 606 q 50 681 50 610 l 275 708 l 288 615 l 292 615 q 506 714 399 714 q 684 645 613 714 q 756 432 756 576 l 756 86 l 853 78 q 800 0 861 0 z "},"ò":{"ha":735,"x_min":50,"x_max":685,"o":"m 454 757 l 172 908 q 215 961 183 933 q 275 993 246 989 l 507 808 q 454 757 492 775 m 51 333 q 50 420 51 333 q 137 610 50 507 q 369 714 224 714 q 599 623 515 714 q 684 356 683 532 q 598 80 685 181 q 359 -21 511 -21 q 129 69 207 -21 q 51 333 51 160 m 369 620 q 328 620 369 620 q 243 544 288 619 q 199 343 199 468 q 242 144 199 218 q 366 72 285 71 q 492 144 447 72 q 536 340 536 215 q 493 543 536 465 q 369 620 450 621 z "},"ó":{"ha":735,"x_min":50,"x_max":685,"o":"m 369 620 q 328 620 369 620 q 243 544 288 619 q 199 343 199 468 q 242 144 199 218 q 366 72 285 71 q 492 144 447 72 q 536 340 536 215 q 493 543 536 465 q 369 620 450 621 m 51 333 q 50 420 51 333 q 137 610 50 507 q 369 714 224 714 q 599 623 515 714 q 684 356 683 532 q 598 80 685 181 q 359 -21 511 -21 q 129 69 207 -21 q 51 333 51 160 m 594 908 l 313 757 q 260 808 275 775 l 492 993 q 552 961 521 989 q 594 908 583 933 z "},"ô":{"ha":735,"x_min":50,"x_max":685,"o":"m 51 333 q 50 420 51 333 q 137 610 50 507 q 369 714 224 714 q 599 623 515 714 q 684 356 683 532 q 598 80 685 181 q 359 -21 511 -21 q 129 69 207 -21 q 51 333 51 160 m 366 72 q 407 72 366 72 q 492 144 447 72 q 536 340 536 215 q 493 543 536 465 q 369 620 450 621 q 243 544 288 619 q 199 343 199 468 q 242 144 199 218 q 366 72 285 71 m 372 869 l 181 749 q 136 796 154 765 l 325 968 q 424 968 375 981 l 608 796 q 563 749 589 764 l 372 869 z "},"õ":{"ha":735,"x_min":50,"x_max":685,"o":"m 183 792 l 138 810 q 191 926 151 883 q 280 968 231 969 q 385 926 329 967 q 477 885 442 886 q 537 904 513 885 q 568 956 561 924 l 613 942 q 457 778 586 775 q 345 816 404 779 q 260 853 286 853 q 213 836 235 854 q 183 792 192 818 m 369 620 q 328 620 369 620 q 243 544 288 619 q 199 343 199 468 q 242 144 199 218 q 366 72 285 71 q 492 144 447 72 q 536 340 536 215 q 493 543 536 465 q 369 620 450 621 m 51 333 q 50 420 51 333 q 137 610 50 507 q 369 714 224 714 q 599 623 515 714 q 684 356 683 532 q 598 80 685 181 q 359 -21 511 -21 q 129 69 207 -21 q 51 333 51 160 z "},"ö":{"ha":735,"x_min":50,"x_max":685,"o":"m 369 620 q 328 620 369 620 q 243 544 288 619 q 199 343 199 468 q 242 144 199 218 q 366 72 285 71 q 492 144 447 72 q 536 340 536 215 q 493 543 536 465 q 369 620 450 621 m 51 333 q 50 420 51 333 q 137 610 50 507 q 369 714 224 714 q 599 623 515 714 q 684 356 683 532 q 598 80 685 181 q 359 -21 511 -21 q 129 69 207 -21 q 51 333 51 160 m 582 879 q 582 861 582 879 q 556 817 582 843 q 494 792 531 792 q 431 817 457 792 q 406 878 406 843 q 432 940 406 914 q 494 967 458 967 q 556 941 531 967 q 582 879 582 915 m 305 817 q 292 805 305 817 q 243 792 279 792 q 181 817 207 792 q 154 879 154 843 q 181 941 154 915 q 243 967 207 967 q 305 941 279 967 q 331 879 331 915 q 305 817 331 843 z "},"÷":{"ha":690,"x_min":69,"x_max":621,"o":"m 414 544 q 400 530 414 544 q 346 515 386 515 q 277 544 306 515 q 249 613 249 572 q 277 681 249 653 q 346 708 306 708 q 414 681 386 708 q 442 613 442 653 q 414 544 442 572 m 414 83 q 400 69 414 83 q 346 56 386 56 q 277 83 306 56 q 249 151 249 111 q 277 220 249 192 q 346 249 306 249 q 414 220 386 249 q 442 151 442 192 q 414 83 442 111 m 69 431 l 621 431 l 621 332 l 69 332 l 69 431 z "},"ø":{"ha":735,"x_min":50,"x_max":685,"o":"m 353 -21 q 228 0 282 -21 l 211 -29 l 124 19 l 143 54 q 51 326 51 146 q 137 610 50 507 q 381 714 224 714 q 511 688 453 714 l 532 725 l 621 681 l 592 631 q 684 359 683 538 q 598 80 685 181 q 353 -21 511 -21 m 368 621 q 243 544 288 619 q 199 359 199 468 q 221 189 199 250 l 454 590 q 368 621 417 621 m 367 72 q 492 144 447 72 q 536 323 536 215 q 514 496 536 431 l 285 97 q 367 72 318 72 z "},"ù":{"ha":819,"x_min":17,"x_max":786,"o":"m 483 757 l 201 908 q 244 961 213 933 q 304 993 275 989 l 536 808 q 483 757 521 775 m 451 610 l 451 626 q 460 669 451 660 q 472 683 468 679 q 503 693 482 693 l 700 693 l 700 88 l 744 85 q 786 8 786 83 l 600 -10 l 575 67 q 372 -21 476 -21 q 193 49 267 -21 q 119 267 119 119 l 119 607 l 17 610 l 17 622 q 69 693 17 693 l 261 693 l 261 267 q 407 89 261 89 q 558 147 486 89 l 558 607 l 451 610 z "},"ú":{"ha":819,"x_min":17,"x_max":786,"o":"m 451 610 l 451 626 q 460 669 451 660 q 472 683 468 679 q 503 693 482 693 l 700 693 l 700 88 l 744 85 q 786 8 786 83 l 600 -10 l 575 67 q 372 -21 476 -21 q 193 49 267 -21 q 119 267 119 119 l 119 607 l 17 610 l 17 622 q 69 693 17 693 l 261 693 l 261 267 q 407 89 261 89 q 558 147 486 89 l 558 607 l 451 610 m 622 908 l 340 757 q 288 808 303 775 l 519 993 q 580 961 549 989 q 622 908 611 933 z "},"û":{"ha":819,"x_min":17,"x_max":786,"o":"m 451 610 l 451 626 q 460 669 451 660 q 472 683 468 679 q 503 693 482 693 l 700 693 l 700 88 l 744 85 q 786 8 786 83 l 600 -10 l 575 67 q 372 -21 476 -21 q 193 49 267 -21 q 119 267 119 119 l 119 607 l 17 610 l 17 622 q 69 693 17 693 l 261 693 l 261 267 q 407 89 261 89 q 558 147 486 89 l 558 607 l 451 610 m 400 868 l 210 749 q 164 796 182 764 l 354 968 q 451 968 404 981 l 638 796 q 590 749 617 763 l 400 868 z "},"ü":{"ha":819,"x_min":17,"x_max":786,"o":"m 451 610 l 451 626 q 460 669 451 660 q 472 683 468 679 q 503 693 482 693 l 700 693 l 700 88 l 744 85 q 786 8 786 83 l 600 -10 l 575 67 q 372 -21 476 -21 q 193 49 267 -21 q 119 267 119 119 l 119 607 l 17 610 l 17 622 q 69 693 17 693 l 261 693 l 261 267 q 407 89 261 89 q 558 147 486 89 l 558 607 l 451 610 m 610 879 q 610 861 610 879 q 584 817 610 843 q 522 792 558 792 q 459 817 485 792 q 433 878 433 843 q 460 940 433 914 q 522 967 486 967 q 584 941 558 967 q 610 879 610 915 m 333 817 q 320 805 333 817 q 271 792 307 792 q 208 817 235 792 q 182 879 182 843 q 208 941 182 915 q 271 967 235 967 q 333 941 307 967 q 358 879 358 915 q 333 817 358 843 z "},"ý":{"ha":722,"x_min":4,"x_max":721,"o":"m 528 693 l 721 693 l 721 681 q 667 613 721 621 l 657 611 l 425 43 l 426 43 q 321 -186 351 -135 q 147 -317 242 -315 q 62 -290 93 -317 q 31 -226 31 -264 q 52 -166 31 -189 q 100 -143 74 -143 q 133 -146 126 -143 q 133 -188 126 -164 q 165 -212 140 -212 q 249 -127 203 -212 q 325 49 294 -42 l 81 607 l 76 607 l 4 615 q 57 693 -4 693 l 324 693 l 324 683 q 269 613 324 624 l 240 610 l 396 218 l 546 607 l 475 615 q 528 693 467 693 m 613 908 l 331 757 q 278 808 293 775 l 510 993 q 570 961 539 989 q 613 908 601 933 z "},"þ":{"ha":794,"x_min":17,"x_max":744,"o":"m 263 632 q 469 714 357 714 q 661 631 581 714 q 744 374 742 549 q 659 89 747 199 q 406 -21 571 -21 q 263 8 328 -21 l 263 -215 l 364 -224 q 310 -301 372 -301 l 18 -301 l 18 -292 q 72 -221 18 -226 l 121 -218 l 121 874 l 56 882 q 17 954 17 886 l 263 982 l 263 632 m 263 138 q 425 78 335 78 q 556 154 515 78 q 596 349 596 231 q 551 538 596 467 q 425 608 507 608 q 263 536 343 608 l 263 138 z "},"ÿ":{"ha":722,"x_min":4,"x_max":721,"o":"m 528 693 l 721 693 l 721 681 q 667 613 721 621 l 657 611 l 425 43 l 426 43 q 321 -186 351 -135 q 147 -317 242 -315 q 62 -290 93 -317 q 31 -226 31 -264 q 52 -166 31 -189 q 100 -143 74 -143 q 133 -146 126 -143 q 133 -188 126 -164 q 165 -212 140 -212 q 249 -127 203 -212 q 325 49 294 -42 l 81 607 l 76 607 l 4 615 q 57 693 -4 693 l 324 693 l 324 683 q 269 613 324 624 l 240 610 l 396 218 l 546 607 l 475 615 q 528 693 467 693 m 323 817 q 310 805 323 817 q 261 792 297 792 q 199 817 225 792 q 172 879 172 843 q 199 941 172 915 q 261 967 225 967 q 323 941 297 967 q 349 879 349 915 q 323 817 349 843 m 600 879 q 600 861 600 879 q 574 817 600 843 q 512 792 549 792 q 449 817 475 792 q 424 878 424 843 q 449 940 424 914 q 512 967 475 967 q 574 941 549 967 q 600 879 600 915 z "},"Ā":{"ha":890,"x_min":17,"x_max":871,"o":"m 818 0 l 515 0 l 515 11 q 569 82 515 76 l 618 85 l 557 307 l 290 307 l 226 88 l 336 79 q 282 0 344 0 l 17 0 l 17 11 q 71 82 17 76 l 125 85 l 392 947 q 513 947 444 953 l 776 88 l 871 79 q 818 0 879 0 m 314 390 l 533 390 l 426 774 l 314 390 m 647 1147 l 647 1057 l 254 1057 l 254 1147 l 647 1147 z "},"ā":{"ha":714,"x_min":50,"x_max":696,"o":"m 696 56 q 595 -21 696 -21 q 471 56 494 -21 q 274 -21 381 -21 q 108 30 167 -21 q 50 169 50 81 q 117 317 50 258 q 335 375 185 375 q 463 364 400 375 l 463 442 q 325 618 463 618 q 237 581 269 618 q 201 486 204 543 q 123 503 154 482 q 92 567 92 524 q 158 672 92 631 q 337 714 224 714 q 527 653 450 714 q 604 450 604 592 l 604 67 l 696 56 m 463 267 q 341 290 407 290 q 238 263 275 290 q 200 184 200 235 q 229 106 200 133 q 324 78 258 78 q 463 129 390 78 l 463 267 m 532 893 l 532 803 l 139 803 l 139 893 l 532 893 z "},"Ă":{"ha":890,"x_min":17,"x_max":871,"o":"m 818 0 l 515 0 l 515 11 q 569 82 515 76 l 618 85 l 557 307 l 290 307 l 226 88 l 336 79 q 282 0 344 0 l 17 0 l 17 11 q 71 82 17 76 l 125 85 l 392 947 q 513 947 444 953 l 776 88 l 871 79 q 818 0 879 0 m 314 390 l 533 390 l 426 774 l 314 390 m 676 1218 q 608 1083 665 1140 q 451 1025 550 1025 q 296 1083 353 1025 q 229 1218 239 1140 l 278 1244 q 338 1168 294 1204 q 454 1132 382 1132 q 628 1243 581 1132 l 676 1218 z "},"ă":{"ha":714,"x_min":50,"x_max":696,"o":"m 696 56 q 595 -21 696 -21 q 471 56 494 -21 q 274 -21 381 -21 q 108 30 167 -21 q 50 169 50 81 q 117 317 50 258 q 335 375 185 375 q 463 364 400 375 l 463 442 q 325 618 463 618 q 237 581 269 618 q 201 486 204 543 q 123 503 154 482 q 92 567 92 524 q 158 672 92 631 q 337 714 224 714 q 527 653 450 714 q 604 450 604 592 l 604 67 l 696 56 m 463 267 q 341 290 407 290 q 238 263 275 290 q 200 184 200 235 q 229 106 200 133 q 324 78 258 78 q 463 129 390 78 l 463 267 m 561 958 q 493 822 550 879 q 337 764 436 764 q 181 822 238 764 q 114 958 125 879 l 163 983 q 224 906 181 942 q 339 871 267 871 q 513 983 465 871 l 561 958 z "},"Ą":{"ha":890,"x_min":17,"x_max":893,"o":"m 747 -111 q 764 -162 747 -144 q 813 -179 781 -179 q 883 -149 846 -179 q 892 -171 889 -153 q 893 -200 896 -189 q 790 -247 860 -247 q 685 -217 719 -247 q 650 -139 650 -186 q 729 0 650 -56 l 515 0 l 515 11 q 569 82 515 76 l 618 85 l 557 307 l 290 307 l 226 88 l 336 79 q 282 0 344 0 l 17 0 l 17 11 q 71 82 17 76 l 125 85 l 392 947 q 513 947 444 953 l 776 88 l 871 79 q 819 0 879 1 q 747 -111 747 -39 m 314 390 l 533 390 l 426 774 l 314 390 z "},"ą":{"ha":714,"x_min":50,"x_max":722,"o":"m 575 -118 q 592 -167 575 -150 q 642 -185 610 -185 q 713 -154 675 -185 q 722 -177 718 -158 q 722 -207 725 -196 q 619 -253 690 -253 q 513 -222 549 -253 q 478 -144 478 -192 q 546 -15 478 -69 q 471 56 488 0 q 274 -21 381 -21 q 108 30 167 -21 q 50 169 50 81 q 117 317 50 258 q 335 375 185 375 q 463 364 400 375 l 463 442 q 325 618 463 618 q 237 581 269 618 q 201 486 204 543 q 123 503 154 482 q 92 567 92 524 q 158 672 92 631 q 337 714 224 714 q 527 653 450 714 q 604 450 604 592 l 604 67 l 696 56 q 631 -17 696 -3 q 575 -118 575 -56 m 463 267 q 341 290 407 290 q 238 263 275 290 q 200 184 200 235 q 229 106 200 133 q 324 78 258 78 q 463 129 390 78 l 463 267 z "},"Ć":{"ha":814,"x_min":50,"x_max":774,"o":"m 694 1167 l 411 1015 q 360 1067 375 1033 l 590 1251 q 651 1219 619 1247 q 694 1167 682 1192 m 496 968 q 689 915 614 968 q 764 788 764 863 q 733 711 764 738 q 646 685 701 685 q 603 819 646 772 q 481 865 561 865 q 275 758 347 865 q 203 469 203 650 q 273 188 203 288 q 495 89 343 89 q 753 174 647 89 q 774 133 774 160 q 680 31 774 82 q 458 -21 586 -21 q 156 105 260 -21 q 51 458 53 231 q 165 826 49 685 q 496 968 281 968 z "},"ć":{"ha":646,"x_min":50,"x_max":613,"o":"m 389 714 q 544 674 485 714 q 603 574 603 633 q 571 492 603 514 q 499 474 539 469 q 465 572 497 529 q 369 615 433 615 q 243 544 288 615 q 199 353 199 472 q 404 88 199 88 q 588 161 497 88 q 606 138 599 154 q 613 111 613 122 q 532 24 613 68 q 351 -21 451 -21 q 131 73 210 -21 q 51 334 51 167 q 142 608 50 501 q 389 714 233 714 m 594 908 l 313 757 q 260 808 275 775 l 492 993 q 552 961 521 989 q 594 908 583 933 z "},"Ĉ":{"ha":814,"x_min":50,"x_max":774,"o":"m 774 133 q 680 31 774 82 q 458 -21 586 -21 q 156 105 260 -21 q 51 458 53 231 q 165 826 49 685 q 496 968 281 968 q 689 915 614 968 q 764 788 764 863 q 733 711 764 738 q 646 685 701 685 q 603 819 646 772 q 481 865 561 865 q 275 758 347 865 q 203 469 203 650 q 273 188 203 288 q 495 89 343 89 q 753 174 647 89 q 774 133 774 160 m 472 1124 l 281 1003 q 236 1050 254 1019 l 425 1222 q 524 1222 475 1235 l 708 1050 q 663 1003 689 1018 l 472 1124 z "},"ĉ":{"ha":646,"x_min":50,"x_max":613,"o":"m 613 111 q 532 24 613 68 q 351 -21 451 -21 q 131 73 210 -21 q 51 334 51 167 q 142 608 50 501 q 389 714 233 714 q 544 674 485 714 q 603 574 603 633 q 571 492 603 514 q 499 474 539 469 q 465 572 497 529 q 369 615 433 615 q 243 544 288 615 q 199 353 199 472 q 404 88 199 88 q 588 161 497 88 q 606 138 599 154 q 613 111 613 122 m 374 869 l 182 749 q 138 796 156 765 l 326 968 q 425 968 376 981 l 610 796 q 564 749 590 764 l 374 869 z "},"Ċ":{"ha":814,"x_min":50,"x_max":774,"o":"m 496 968 q 689 915 614 968 q 764 788 764 863 q 733 711 764 738 q 646 685 701 685 q 603 819 646 772 q 481 865 561 865 q 275 758 347 865 q 203 469 203 650 q 273 188 203 288 q 495 89 343 89 q 753 174 647 89 q 774 133 774 160 q 680 31 774 82 q 458 -21 586 -21 q 156 105 260 -21 q 51 458 53 231 q 165 826 49 685 q 496 968 281 968 m 567 1147 q 567 1128 567 1147 q 541 1083 567 1108 q 477 1057 515 1057 q 413 1083 439 1057 q 388 1147 388 1108 q 413 1212 388 1186 q 477 1238 439 1238 q 541 1212 515 1238 q 567 1147 567 1186 z "},"ċ":{"ha":646,"x_min":50,"x_max":613,"o":"m 468 874 q 468 854 468 874 q 442 809 468 835 q 378 783 417 783 q 315 809 340 783 q 289 874 289 835 q 315 938 289 913 q 378 964 340 964 q 442 938 417 964 q 468 874 468 913 m 389 714 q 544 674 485 714 q 603 574 603 633 q 571 492 603 514 q 499 474 539 469 q 465 572 497 529 q 369 615 433 615 q 243 544 288 615 q 199 353 199 472 q 404 88 199 88 q 588 161 497 88 q 606 138 599 154 q 613 111 613 122 q 532 24 613 68 q 351 -21 451 -21 q 131 73 210 -21 q 51 334 51 167 q 142 608 50 501 q 389 714 233 714 z "},"Č":{"ha":814,"x_min":50,"x_max":774,"o":"m 774 133 q 680 31 774 82 q 458 -21 586 -21 q 156 105 260 -21 q 51 458 53 231 q 165 826 49 685 q 496 968 281 968 q 689 915 614 968 q 764 788 764 863 q 733 711 764 738 q 646 685 701 685 q 603 819 646 772 q 481 865 561 865 q 275 758 347 865 q 203 469 203 650 q 273 188 203 288 q 495 89 343 89 q 753 174 647 89 q 774 133 774 160 m 707 1199 l 521 1026 q 424 1026 478 1015 l 235 1199 q 279 1246 250 1229 l 469 1126 l 660 1246 q 707 1199 686 1232 z "},"č":{"ha":646,"x_min":50,"x_max":613,"o":"m 613 111 q 532 24 613 68 q 351 -21 451 -21 q 131 73 210 -21 q 51 334 51 167 q 142 608 50 501 q 389 714 233 714 q 544 674 485 714 q 603 574 603 633 q 571 492 603 514 q 499 474 539 469 q 465 572 497 529 q 369 615 433 615 q 243 544 288 615 q 199 353 199 472 q 404 88 199 88 q 588 161 497 88 q 606 138 599 154 q 613 111 613 122 m 608 944 l 422 772 q 325 772 378 761 l 135 944 q 181 992 153 976 l 371 872 l 561 992 q 608 944 588 978 z "},"Ď":{"ha":964,"x_min":57,"x_max":914,"o":"m 119 949 l 432 949 q 795 833 676 949 q 914 482 914 718 q 790 123 914 246 q 436 0 665 0 l 57 0 q 103 81 54 78 l 158 86 l 158 860 l 60 868 q 71 928 58 908 q 119 949 83 949 m 399 85 q 673 170 585 76 q 761 476 761 264 q 670 779 761 688 q 381 864 579 871 l 306 861 l 304 861 l 304 89 l 399 85 m 664 1199 l 478 1028 q 379 1028 431 1015 l 190 1199 q 235 1247 207 1231 l 426 1126 l 617 1247 q 664 1199 638 1236 z "},"ď":{"ha":922,"x_min":51,"x_max":889,"o":"m 889 1021 q 799 746 896 858 q 766 753 790 740 q 742 772 742 765 q 765 908 764 824 q 750 1038 765 993 q 823 1053 768 1058 q 889 1021 878 1047 m 765 58 q 659 -22 765 -22 q 536 64 553 -22 q 330 -21 444 -21 q 135 62 215 -21 q 51 319 54 144 q 137 604 49 494 q 390 714 225 714 q 533 685 468 714 l 533 874 l 472 879 q 428 956 422 885 l 675 985 l 675 68 l 765 58 m 533 554 q 372 615 464 615 q 240 538 281 615 q 199 344 199 461 q 244 156 199 226 q 371 86 289 86 q 533 158 453 86 l 533 554 z "},"Đ":{"ha":986,"x_min":57,"x_max":914,"o":"m 119 949 l 432 949 q 795 833 676 949 q 914 482 914 718 q 790 123 914 246 q 436 0 665 0 l 57 0 q 103 81 54 78 l 158 86 l 158 425 l 82 425 l 82 511 l 158 511 l 158 860 l 60 868 q 71 928 58 908 q 119 949 83 949 m 399 85 q 673 170 585 76 q 761 476 761 264 q 670 779 761 688 q 381 864 579 871 l 306 861 l 304 861 l 304 511 l 521 511 l 521 425 l 304 425 l 304 89 l 399 85 z "},"đ":{"ha":803,"x_min":51,"x_max":785,"o":"m 785 747 l 675 747 l 675 68 l 765 58 q 659 -22 765 -22 q 536 64 553 -22 q 330 -21 444 -21 q 135 62 215 -21 q 51 319 54 144 q 137 604 49 494 q 390 714 225 714 q 533 685 468 714 l 533 747 l 432 747 l 432 824 l 533 824 l 533 874 l 472 879 q 428 956 422 885 l 675 985 l 675 824 l 785 824 l 785 747 m 533 554 q 372 615 464 615 q 240 538 281 615 q 199 344 199 461 q 244 156 199 226 q 371 86 289 86 q 533 158 453 86 l 533 554 z "},"Ē":{"ha":785,"x_min":57,"x_max":736,"o":"m 240 1147 l 633 1147 l 633 1057 l 240 1057 l 240 1147 m 57 0 l 57 17 q 65 57 57 47 q 79 72 74 67 q 111 82 92 82 l 160 85 l 160 860 l 60 868 q 114 947 51 947 l 714 947 l 714 743 q 635 694 714 686 l 622 857 l 306 861 l 306 507 l 561 532 q 563 408 575 476 l 306 424 l 306 88 l 646 99 l 658 260 q 736 213 736 268 l 736 0 l 57 0 z "},"ē":{"ha":672,"x_min":51,"x_max":629,"o":"m 200 350 l 200 324 q 244 147 200 208 q 392 86 289 86 q 590 161 496 86 q 614 111 614 144 q 538 23 614 67 q 354 -21 461 -21 q 131 66 211 -21 q 51 331 51 153 q 142 611 51 508 q 369 714 232 714 q 568 632 506 714 q 629 425 631 550 l 629 350 l 200 350 m 364 618 q 208 433 238 618 l 489 433 q 364 618 485 618 m 572 893 l 572 803 l 179 803 l 179 893 l 572 893 z "},"Ĕ":{"ha":785,"x_min":57,"x_max":736,"o":"m 57 0 l 57 17 q 65 57 57 47 q 79 72 74 67 q 111 82 92 82 l 160 85 l 160 860 l 60 868 q 114 947 51 947 l 714 947 l 714 743 q 635 694 714 686 l 622 857 l 306 861 l 306 507 l 561 532 q 563 408 575 476 l 306 424 l 306 88 l 646 99 l 658 260 q 736 213 736 268 l 736 0 l 57 0 m 440 1132 q 614 1243 567 1132 l 663 1218 q 594 1083 651 1140 q 439 1025 538 1025 q 283 1083 340 1025 q 215 1218 226 1140 l 264 1244 q 325 1167 282 1203 q 440 1132 368 1132 z "},"ĕ":{"ha":672,"x_min":51,"x_max":629,"o":"m 200 350 l 200 324 q 244 147 200 208 q 392 86 289 86 q 590 161 496 86 q 614 111 614 144 q 538 23 614 67 q 354 -21 461 -21 q 131 66 211 -21 q 51 331 51 153 q 142 611 51 508 q 369 714 232 714 q 568 632 506 714 q 629 425 631 550 l 629 350 l 200 350 m 364 618 q 208 433 238 618 l 489 433 q 364 618 485 618 m 601 958 q 533 822 590 879 q 377 764 476 764 q 222 822 278 764 q 154 958 165 879 l 203 983 q 264 906 221 942 q 379 871 307 871 q 553 983 506 871 l 601 958 z "},"Ė":{"ha":785,"x_min":57,"x_max":736,"o":"m 507 1083 q 494 1070 507 1083 q 443 1057 482 1057 q 378 1083 404 1057 q 353 1147 353 1108 q 378 1212 353 1186 q 443 1238 404 1238 q 507 1212 482 1238 q 532 1147 532 1186 q 507 1083 532 1108 m 57 0 l 57 17 q 65 57 57 47 q 79 72 74 67 q 111 82 92 82 l 160 85 l 160 860 l 60 868 q 114 947 51 947 l 714 947 l 714 743 q 635 694 714 686 l 622 857 l 306 861 l 306 507 l 561 532 q 563 408 575 476 l 306 424 l 306 88 l 646 99 l 658 260 q 736 213 736 268 l 736 0 l 57 0 z "},"ė":{"ha":672,"x_min":51,"x_max":629,"o":"m 200 350 l 200 324 q 244 147 200 208 q 392 86 289 86 q 590 161 496 86 q 614 111 614 144 q 538 23 614 67 q 354 -21 461 -21 q 131 66 211 -21 q 51 331 51 153 q 142 611 51 508 q 369 714 232 714 q 568 632 506 714 q 629 425 631 550 l 629 350 l 200 350 m 364 618 q 208 433 238 618 l 489 433 q 364 618 485 618 m 446 828 q 433 816 446 828 q 382 803 421 803 q 317 828 343 803 q 292 893 292 854 q 317 958 292 932 q 382 983 343 983 q 446 958 421 983 q 471 893 471 932 q 446 828 471 854 z "},"Ę":{"ha":785,"x_min":57,"x_max":786,"o":"m 57 0 l 57 17 q 65 57 57 47 q 79 72 74 67 q 111 82 92 82 l 160 85 l 160 860 l 60 868 q 114 947 51 947 l 714 947 l 714 743 q 635 694 714 686 l 622 857 l 306 861 l 306 507 l 561 532 q 563 408 575 476 l 306 424 l 306 88 l 646 99 l 658 260 q 736 213 736 268 l 736 0 l 711 0 q 640 -110 640 -37 q 657 -160 640 -143 q 706 -178 674 -178 q 776 -147 739 -178 q 785 -169 782 -151 q 786 -200 789 -187 q 683 -246 754 -246 q 578 -215 613 -246 q 543 -137 543 -185 q 621 0 543 -56 l 57 0 z "},"ę":{"ha":672,"x_min":51,"x_max":629,"o":"m 479 -79 q 497 -130 479 -112 q 547 -147 514 -147 q 617 -117 579 -147 q 626 -139 622 -121 q 626 -169 629 -157 q 524 -215 594 -215 q 417 -185 453 -215 q 382 -107 382 -154 q 411 -17 382 -60 q 354 -21 383 -21 q 131 66 211 -21 q 51 331 51 153 q 142 611 51 508 q 369 714 232 714 q 568 632 506 714 q 629 425 631 550 l 629 350 l 200 350 l 200 324 q 244 147 200 208 q 392 86 289 86 q 590 161 496 86 q 614 111 614 144 q 571 46 614 78 l 574 42 q 479 -79 479 1 m 364 618 q 208 433 238 618 l 489 433 q 364 618 485 618 z "},"Ě":{"ha":785,"x_min":57,"x_max":736,"o":"m 57 0 l 57 17 q 65 57 57 47 q 79 72 74 67 q 111 82 92 82 l 160 85 l 160 860 l 60 868 q 114 947 51 947 l 714 947 l 714 743 q 635 694 714 686 l 622 857 l 306 861 l 306 507 l 561 532 q 563 408 575 476 l 306 424 l 306 88 l 646 99 l 658 260 q 736 213 736 268 l 736 0 l 57 0 m 672 1199 l 486 1026 q 389 1026 442 1015 l 199 1199 q 244 1246 217 1231 l 435 1126 l 625 1246 q 672 1199 651 1232 z "},"ě":{"ha":672,"x_min":51,"x_max":629,"o":"m 200 350 l 200 324 q 244 147 200 208 q 392 86 289 86 q 590 161 496 86 q 614 111 614 144 q 538 23 614 67 q 354 -21 461 -21 q 131 66 211 -21 q 51 331 51 153 q 142 611 51 508 q 369 714 232 714 q 568 632 506 714 q 629 425 631 550 l 629 350 l 200 350 m 364 618 q 208 433 238 618 l 489 433 q 364 618 485 618 m 611 944 l 425 772 q 328 772 381 761 l 138 944 q 183 992 156 976 l 374 872 l 564 992 q 611 944 590 978 z "},"Ĝ":{"ha":919,"x_min":50,"x_max":897,"o":"m 551 433 l 897 433 q 897 422 897 433 q 843 351 897 357 l 806 349 l 800 349 l 800 117 q 664 17 760 56 q 454 -21 568 -21 q 156 104 260 -21 q 51 458 53 229 q 165 828 49 686 q 501 969 282 969 q 733 917 654 969 q 813 789 813 865 q 781 713 813 742 q 693 685 750 685 q 644 833 693 786 q 485 879 594 879 q 272 772 340 879 q 203 475 203 664 q 496 85 203 85 q 681 143 618 85 l 681 346 l 499 354 q 551 433 490 433 m 482 1124 l 290 1003 q 246 1050 264 1019 l 435 1222 q 533 1222 485 1235 l 718 1050 q 672 1003 699 1018 l 482 1124 z "},"ĝ":{"ha":661,"x_min":26,"x_max":653,"o":"m 303 207 q 233 214 271 207 q 208 159 206 175 q 240 139 210 143 q 357 132 271 135 q 576 89 508 126 q 644 -43 644 51 q 549 -244 644 -168 q 312 -319 454 -319 q 98 -267 169 -319 q 26 -127 26 -215 q 117 36 26 -39 q 92 101 92 58 q 161 243 92 164 q 51 444 54 304 q 122 636 49 558 q 317 714 194 714 q 460 679 399 714 l 639 726 q 653 675 651 710 q 639 626 654 640 q 526 618 618 615 q 565 453 569 557 q 490 278 560 350 q 303 207 419 207 m 308 624 q 278 623 308 624 q 217 577 249 622 q 186 456 186 532 q 218 337 186 381 q 306 294 250 293 q 396 340 363 294 q 429 459 429 385 q 398 579 429 533 q 308 624 367 625 m 133 -101 q 133 -126 133 -101 q 183 -181 133 -151 q 326 -211 232 -211 q 482 -174 421 -211 q 543 -86 543 -136 q 491 -23 543 -36 q 331 -6 439 -10 q 183 7 222 -1 q 133 -101 133 -50 m 321 869 l 129 749 q 85 796 103 765 l 274 968 q 372 968 324 981 l 557 796 q 511 749 538 764 l 321 869 z "},"Ğ":{"ha":919,"x_min":50,"x_max":897,"o":"m 551 433 l 897 433 q 897 422 897 433 q 843 351 897 357 l 806 349 l 800 349 l 800 117 q 664 17 760 56 q 454 -21 568 -21 q 156 104 260 -21 q 51 458 53 229 q 165 828 49 686 q 501 969 282 969 q 733 917 654 969 q 813 789 813 865 q 781 713 813 742 q 693 685 750 685 q 644 833 693 786 q 485 879 594 879 q 272 772 340 879 q 203 475 203 664 q 496 85 203 85 q 681 143 618 85 l 681 346 l 499 354 q 551 433 490 433 m 639 1083 q 610 1054 639 1083 q 483 1025 582 1025 q 328 1083 385 1025 q 260 1218 271 1140 l 308 1244 q 369 1167 326 1203 q 485 1132 413 1132 q 658 1243 611 1132 l 707 1218 q 639 1083 696 1140 z "},"ğ":{"ha":661,"x_min":26,"x_max":653,"o":"m 303 207 q 233 214 271 207 q 208 159 206 175 q 240 139 210 143 q 357 132 271 135 q 576 89 508 126 q 644 -43 644 51 q 549 -244 644 -168 q 312 -319 454 -319 q 98 -267 169 -319 q 26 -127 26 -215 q 117 36 26 -39 q 92 101 92 58 q 161 243 92 164 q 51 444 54 304 q 122 636 49 558 q 317 714 194 714 q 460 679 399 714 l 639 726 q 653 675 651 710 q 639 626 654 640 q 526 618 618 615 q 565 453 569 557 q 490 278 560 350 q 303 207 419 207 m 308 624 q 278 623 308 624 q 217 577 249 622 q 186 456 186 532 q 218 337 186 381 q 306 294 250 293 q 396 340 363 294 q 429 459 429 385 q 398 579 429 533 q 308 624 367 625 m 133 -101 q 133 -126 133 -101 q 183 -181 133 -151 q 326 -211 232 -211 q 482 -174 421 -211 q 543 -86 543 -136 q 491 -23 543 -36 q 331 -6 439 -10 q 183 7 222 -1 q 133 -101 133 -50 m 477 822 q 448 793 477 822 q 321 764 419 764 q 165 822 222 764 q 97 958 108 879 l 146 983 q 207 906 164 942 q 322 871 250 871 q 496 983 453 871 l 546 958 q 477 822 535 879 z "},"Ġ":{"ha":919,"x_min":50,"x_max":897,"o":"m 551 433 l 897 433 q 897 422 897 433 q 843 351 897 357 l 806 349 l 800 349 l 800 117 q 664 17 760 56 q 454 -21 568 -21 q 156 104 260 -21 q 51 458 53 229 q 165 828 49 686 q 501 969 282 969 q 733 917 654 969 q 813 789 813 865 q 781 713 813 742 q 693 685 750 685 q 644 833 693 786 q 485 879 594 879 q 272 772 340 879 q 203 475 203 664 q 496 85 203 85 q 681 143 618 85 l 681 346 l 499 354 q 551 433 490 433 m 576 1147 q 576 1128 576 1147 q 551 1083 576 1108 q 487 1057 525 1057 q 423 1083 449 1057 q 397 1147 397 1108 q 423 1212 397 1186 q 487 1238 449 1238 q 551 1212 525 1238 q 576 1147 576 1186 z "},"ġ":{"ha":661,"x_min":26,"x_max":653,"o":"m 303 207 q 233 214 271 207 q 208 159 206 175 q 240 139 210 143 q 357 132 271 135 q 576 89 508 126 q 644 -43 644 51 q 549 -244 644 -168 q 312 -319 454 -319 q 98 -267 169 -319 q 26 -127 26 -215 q 117 36 26 -39 q 92 101 92 58 q 161 243 92 164 q 51 444 54 304 q 122 636 49 558 q 317 714 194 714 q 460 679 399 714 l 639 726 q 653 675 651 710 q 639 626 654 640 q 526 618 618 615 q 565 453 569 557 q 490 278 560 350 q 303 207 419 207 m 308 624 q 278 623 308 624 q 217 577 249 622 q 186 456 186 532 q 218 337 186 381 q 306 294 250 293 q 396 340 363 294 q 429 459 429 385 q 398 579 429 533 q 308 624 367 625 m 133 -101 q 133 -126 133 -101 q 183 -181 133 -151 q 326 -211 232 -211 q 482 -174 421 -211 q 543 -86 543 -136 q 491 -23 543 -36 q 331 -6 439 -10 q 183 7 222 -1 q 133 -101 133 -50 m 415 893 q 415 874 415 893 q 390 828 415 854 q 326 803 364 803 q 262 828 288 803 q 236 893 236 854 q 262 958 236 932 q 326 983 288 983 q 390 958 364 983 q 415 893 415 932 z "},"Ģ":{"ha":919,"x_min":50,"x_max":897,"o":"m 551 433 l 897 433 q 897 422 897 433 q 843 351 897 357 l 806 349 l 800 349 l 800 117 q 664 17 760 56 q 454 -21 568 -21 q 156 104 260 -21 q 51 458 53 229 q 165 828 49 686 q 501 969 282 969 q 733 917 654 969 q 813 789 813 865 q 781 713 813 742 q 693 685 750 685 q 644 833 693 786 q 485 879 594 879 q 272 772 340 879 q 203 475 203 664 q 496 85 203 85 q 681 143 618 85 l 681 346 l 499 354 q 551 433 490 433 m 394 -65 q 407 -52 394 -65 q 463 -39 419 -39 q 532 -66 506 -39 q 558 -151 558 -93 q 510 -281 558 -208 q 410 -376 463 -354 q 387 -368 401 -381 q 372 -347 372 -356 q 449 -229 428 -308 q 390 -198 413 -225 q 368 -131 368 -171 q 394 -65 368 -92 z "},"ģ":{"ha":661,"x_min":26,"x_max":653,"o":"m 303 207 q 233 214 271 207 q 208 159 206 175 q 240 139 210 143 q 357 132 271 135 q 576 89 508 126 q 644 -43 644 51 q 549 -244 644 -168 q 312 -319 454 -319 q 98 -267 169 -319 q 26 -127 26 -215 q 117 36 26 -39 q 92 101 92 58 q 161 243 92 164 q 51 444 54 304 q 122 636 49 558 q 317 714 194 714 q 460 679 399 714 l 639 726 q 653 675 651 710 q 639 626 654 640 q 526 618 618 615 q 565 453 569 557 q 490 278 560 350 q 303 207 419 207 m 308 624 q 278 623 308 624 q 217 577 249 622 q 186 456 186 532 q 218 337 186 381 q 306 294 250 293 q 396 340 363 294 q 429 459 429 385 q 398 579 429 533 q 308 624 367 625 m 133 -101 q 133 -126 133 -101 q 183 -181 133 -151 q 326 -211 232 -211 q 482 -174 421 -211 q 543 -86 543 -136 q 491 -23 543 -36 q 331 -6 439 -10 q 183 7 222 -1 q 133 -101 133 -50 m 391 790 q 378 777 391 790 q 322 764 365 764 q 253 791 279 764 q 226 876 226 818 q 274 1006 226 933 q 375 1101 322 1079 q 398 1093 383 1106 q 413 1072 413 1081 q 336 954 357 1033 q 394 923 372 950 q 417 856 417 896 q 391 790 417 817 z "},"Ĥ":{"ha":1036,"x_min":57,"x_max":979,"o":"m 924 0 l 626 0 l 626 11 q 636 57 626 44 q 682 82 654 79 l 731 85 l 731 428 l 306 428 l 306 88 l 407 79 q 353 0 415 0 l 57 0 l 57 11 q 111 82 57 76 l 160 85 l 160 860 l 60 868 q 113 947 51 947 l 410 947 l 410 936 q 356 865 410 871 l 306 863 l 306 513 l 731 513 l 731 860 l 631 868 q 683 947 622 947 l 979 947 l 979 936 q 925 865 979 871 l 876 863 l 876 88 l 976 79 q 924 0 985 0 m 519 1124 l 328 1003 q 283 1050 301 1019 l 472 1222 q 571 1222 522 1235 l 756 1050 q 710 1003 736 1018 l 519 1124 z "},"ĥ":{"ha":886,"x_min":50,"x_max":857,"o":"m 803 0 l 513 0 l 513 11 q 567 81 513 75 l 614 83 l 614 428 q 577 556 614 517 q 460 594 540 594 q 297 521 379 594 l 297 86 l 399 78 q 346 0 407 0 l 53 0 l 53 11 q 107 81 53 75 l 156 83 l 156 872 l 94 878 q 50 954 50 883 l 297 983 l 297 796 l 486 968 q 585 968 536 981 l 769 796 q 724 749 750 764 l 533 869 l 342 749 q 297 796 315 765 l 297 622 q 502 714 394 714 q 682 644 610 714 q 754 426 754 574 l 756 86 l 857 78 q 803 0 865 0 z "},"Ħ":{"ha":1036,"x_min":57,"x_max":979,"o":"m 924 0 l 626 0 l 626 11 q 636 57 626 44 q 682 82 654 79 l 731 85 l 731 428 l 306 428 l 306 88 l 407 79 q 353 0 415 0 l 57 0 l 57 11 q 111 82 57 76 l 160 85 l 160 632 l 69 632 l 69 718 l 160 718 l 160 860 l 60 868 q 113 947 51 947 l 410 947 l 410 936 q 356 865 410 871 l 306 863 l 306 718 l 731 718 l 731 860 l 631 868 q 683 947 622 947 l 979 947 l 979 936 q 925 865 979 871 l 876 863 l 876 718 l 968 718 l 968 632 l 876 632 l 876 88 l 976 79 q 924 0 985 0 m 306 513 l 731 513 l 731 632 l 306 632 l 306 513 z "},"ħ":{"ha":888,"x_min":53,"x_max":860,"o":"m 806 0 l 515 0 l 515 11 q 569 81 515 75 l 617 83 l 617 428 q 580 556 617 517 q 463 594 543 594 q 300 521 382 594 l 300 86 l 401 78 q 349 0 410 0 l 56 0 l 56 11 q 110 81 56 75 l 158 83 l 158 738 l 57 738 l 57 815 l 158 815 l 158 872 l 97 878 q 53 954 53 883 l 300 983 l 300 815 l 410 815 l 410 738 l 300 738 l 300 622 q 505 714 397 714 q 685 644 613 714 q 757 426 757 574 l 758 86 l 860 78 q 806 0 868 0 z "},"Ĩ":{"ha":465,"x_min":0,"x_max":472,"o":"m 321 1036 q 208 1072 268 1036 q 122 1108 149 1108 q 75 1090 96 1108 q 46 1044 54 1072 l 0 1061 q 51 1180 13 1136 q 140 1224 90 1224 q 246 1184 189 1224 q 339 1144 303 1144 q 399 1164 375 1144 q 429 1215 422 1183 l 472 1203 q 321 1036 450 1036 m 306 88 l 307 88 l 407 79 q 353 0 415 0 l 57 0 l 57 11 q 111 82 57 76 l 160 85 l 160 860 l 60 868 q 113 947 51 947 l 410 947 l 410 936 q 356 865 410 871 l 306 863 l 306 88 z "},"ĩ":{"ha":428,"x_min":-21,"x_max":453,"o":"m 346 0 l 53 0 l 53 11 q 107 81 53 75 l 156 83 l 156 604 l 94 611 q 50 686 50 615 l 297 714 l 297 86 l 399 78 q 346 0 407 0 m 410 956 l 453 942 q 299 778 428 775 q 186 816 246 779 q 101 853 126 853 q 53 836 75 854 q 24 792 32 818 l -21 810 q 31 926 -8 883 q 120 968 71 969 q 226 926 169 967 q 319 886 282 886 q 410 956 390 885 z "},"Ī":{"ha":465,"x_min":38,"x_max":431,"o":"m 38 1147 l 431 1147 l 431 1057 l 38 1057 l 38 1147 m 306 88 l 307 88 l 407 79 q 353 0 415 0 l 57 0 l 57 11 q 111 82 57 76 l 160 85 l 160 860 l 60 868 q 113 947 51 947 l 410 947 l 410 936 q 356 865 410 871 l 306 863 l 306 88 z "},"ī":{"ha":428,"x_min":17,"x_max":410,"o":"m 17 893 l 410 893 l 410 803 l 17 803 l 17 893 m 346 0 l 53 0 l 53 11 q 107 81 53 75 l 156 83 l 156 604 l 94 611 q 50 686 50 615 l 297 714 l 297 86 l 399 78 q 346 0 407 0 z "},"Ĭ":{"ha":465,"x_min":11,"x_max":458,"o":"m 306 88 l 307 88 l 407 79 q 353 0 415 0 l 57 0 l 57 11 q 111 82 57 76 l 160 85 l 160 860 l 60 868 q 113 947 51 947 l 410 947 l 410 936 q 356 865 410 871 l 306 863 l 306 88 m 390 1083 q 362 1054 390 1083 q 235 1025 333 1025 q 79 1083 136 1025 q 11 1218 22 1140 l 60 1244 q 121 1167 78 1203 q 236 1132 164 1132 q 410 1243 363 1132 l 458 1218 q 390 1083 447 1140 z "},"ĭ":{"ha":428,"x_min":-8,"x_max":439,"o":"m 346 0 l 53 0 l 53 11 q 107 81 53 75 l 156 83 l 156 604 l 94 611 q 50 686 50 615 l 297 714 l 297 86 l 399 78 q 346 0 407 0 m 439 958 q 371 822 428 879 q 215 764 314 764 q 59 822 115 764 q -8 958 3 879 l 40 983 q 101 906 58 942 q 217 871 144 871 q 390 983 343 871 l 439 958 z "},"Į":{"ha":465,"x_min":57,"x_max":458,"o":"m 406 17 q 311 -99 311 -26 q 374 -172 311 -172 q 449 -143 413 -172 q 458 -165 454 -147 q 458 -194 461 -183 q 355 -242 425 -242 q 249 -210 285 -242 q 214 -132 214 -179 q 285 0 214 -56 l 57 0 l 57 11 q 111 82 57 76 l 160 85 l 160 860 l 60 868 q 113 947 51 947 l 410 947 l 410 936 q 356 865 410 871 l 306 863 l 306 88 l 307 88 l 407 79 q 400 25 411 50 l 406 17 z "},"į":{"ha":428,"x_min":50,"x_max":424,"o":"m 364 3 q 278 -110 278 -37 q 339 -182 278 -182 q 414 -153 378 -182 q 423 -175 419 -157 q 424 -204 426 -193 q 320 -251 390 -251 q 215 -220 250 -251 q 179 -142 179 -189 q 265 0 179 -57 l 53 0 l 53 11 q 107 81 53 75 l 156 83 l 156 604 l 94 611 q 50 686 50 615 l 297 714 l 297 86 l 399 78 q 364 3 406 14 m 283 828 q 271 816 283 828 q 219 803 258 803 q 155 828 181 803 q 129 893 129 854 q 155 958 129 932 q 219 983 181 983 q 283 958 258 983 q 308 893 308 932 q 283 828 308 854 z "},"İ":{"ha":465,"x_min":57,"x_max":410,"o":"m 353 0 l 57 0 l 57 11 q 111 82 57 76 l 160 85 l 160 860 l 60 868 q 113 947 51 947 l 410 947 l 410 936 q 356 865 410 871 l 306 863 l 306 88 l 307 88 l 407 79 q 353 0 415 0 m 329 1147 q 329 1128 329 1147 q 303 1083 329 1108 q 240 1057 278 1057 q 176 1083 201 1057 q 150 1147 150 1108 q 176 1212 150 1186 q 240 1238 201 1238 q 303 1212 278 1238 q 329 1147 329 1186 z "},"ı":{"ha":428,"x_min":50,"x_max":399,"o":"m 346 0 l 53 0 l 53 11 q 107 81 53 75 l 156 83 l 156 604 l 94 611 q 50 686 50 615 l 297 714 l 297 86 l 399 78 q 346 0 407 0 z "},"Ĳ":{"ha":878,"x_min":57,"x_max":843,"o":"m 540 949 l 843 949 q 843 939 843 949 q 833 892 843 903 q 788 867 814 867 l 742 863 l 740 863 l 740 117 q 675 -101 740 -8 q 497 -193 610 -193 q 401 -162 439 -193 q 363 -90 363 -132 q 387 -22 363 -47 q 463 3 411 4 q 531 -92 463 -92 q 578 -56 563 -92 q 593 72 593 -21 l 593 860 l 488 868 q 540 949 479 949 m 353 0 l 57 0 l 57 11 q 111 82 57 76 l 160 85 l 160 860 l 60 868 q 113 947 51 947 l 410 947 l 410 936 q 356 865 410 871 l 306 863 l 306 88 l 307 88 l 407 79 q 353 0 415 0 z "},"ĳ":{"ha":800,"x_min":50,"x_max":697,"o":"m 688 69 q 617 -222 688 -122 q 425 -319 547 -321 q 341 -292 369 -319 q 313 -227 313 -264 q 337 -171 313 -190 q 400 -153 361 -151 q 458 -224 403 -224 q 524 -187 501 -224 q 546 -40 546 -150 l 546 606 l 481 613 q 439 688 439 615 l 688 714 l 688 69 m 346 0 l 53 0 l 53 11 q 107 81 53 75 l 156 83 l 156 604 l 94 611 q 50 686 50 615 l 297 714 l 297 86 l 399 78 q 346 0 407 0 m 306 883 q 306 864 306 883 q 280 819 306 844 q 216 793 254 793 q 152 819 178 793 q 126 883 126 844 q 152 948 126 922 q 216 974 178 974 q 280 948 254 974 q 306 883 306 922 m 672 820 q 659 807 672 820 q 607 794 646 794 q 542 820 568 794 q 517 884 517 846 q 542 948 517 922 q 607 974 568 974 q 672 948 646 974 q 697 884 697 922 q 672 820 697 846 z "},"Ĵ":{"ha":526,"x_min":14,"x_max":551,"o":"m 367 1222 l 551 1050 q 506 1003 532 1018 l 315 1124 l 124 1003 q 79 1050 97 1019 l 268 1222 q 367 1222 318 1235 m 190 947 l 492 947 l 492 936 q 482 890 492 903 q 436 865 464 868 l 390 863 l 390 189 q 325 -10 390 68 q 149 -87 260 -87 q 52 -57 90 -87 q 14 16 14 -26 q 38 84 14 58 q 113 108 61 110 q 182 14 115 14 q 229 49 214 14 q 244 178 244 85 l 244 860 l 243 860 l 138 868 q 190 947 129 947 z "},"ĵ":{"ha":374,"x_min":-104,"x_max":428,"o":"m 243 968 l 428 796 q 382 749 408 764 l 192 869 l 0 749 q -44 796 -26 765 l 144 968 q 243 968 194 981 m 271 69 q 201 -222 271 -122 q 8 -319 131 -321 q -76 -292 -47 -319 q -104 -227 -104 -264 q -80 -171 -104 -190 q -17 -153 -56 -151 q 42 -224 -14 -224 q 107 -187 85 -224 q 129 -40 129 -150 l 129 606 l 64 613 q 22 688 22 615 l 271 714 l 271 69 z "},"Ķ":{"ha":869,"x_min":57,"x_max":844,"o":"m 790 0 l 639 0 l 357 403 l 306 340 l 306 88 l 417 79 q 363 0 425 0 l 57 0 l 57 11 q 111 82 57 76 l 160 85 l 160 860 l 60 868 q 113 947 51 947 l 410 947 l 410 936 q 356 865 410 871 l 306 863 l 306 471 l 613 861 l 522 868 q 576 947 514 947 l 836 947 q 826 892 836 906 q 782 865 808 865 l 726 863 l 451 521 l 757 86 l 844 78 q 839 31 853 61 q 790 0 825 0 m 401 -65 q 414 -52 401 -65 q 469 -39 426 -39 q 539 -66 513 -39 q 565 -151 565 -93 q 517 -281 565 -208 q 417 -376 469 -354 q 394 -368 408 -381 q 379 -347 379 -356 q 456 -229 435 -308 q 397 -198 419 -225 q 375 -131 375 -171 q 401 -65 375 -92 z "},"ķ":{"ha":788,"x_min":50,"x_max":785,"o":"m 726 0 l 590 0 l 369 310 l 297 231 l 297 86 l 400 78 q 346 0 408 0 l 54 0 l 54 11 q 108 81 54 75 l 156 83 l 156 874 l 94 879 q 50 956 50 885 l 297 985 l 297 353 l 517 607 l 436 615 q 490 693 428 693 l 728 693 l 728 683 q 718 638 728 650 q 672 613 700 615 l 639 611 l 458 410 l 692 86 l 785 78 q 771 22 789 43 q 726 0 753 0 m 352 -82 q 365 -69 352 -82 q 421 -56 378 -56 q 490 -83 464 -56 q 517 -167 517 -110 q 469 -298 517 -225 q 368 -393 421 -371 q 345 -385 360 -397 q 331 -364 331 -372 q 407 -246 386 -325 q 349 -215 371 -242 q 326 -148 326 -187 q 352 -82 326 -108 z "},"ĸ":{"ha":788,"x_min":50,"x_max":785,"o":"m 490 693 l 728 693 l 728 683 q 718 638 728 650 q 672 613 700 615 l 639 611 l 458 410 l 692 86 l 785 78 q 771 22 789 43 q 726 0 753 0 l 590 0 l 369 310 l 297 231 l 297 86 l 400 78 q 346 0 408 0 l 54 0 l 54 11 q 108 81 54 75 l 156 83 l 156 582 l 94 588 q 50 664 50 593 l 297 693 l 297 353 l 517 607 l 436 615 q 490 693 428 693 z "},"Ĺ":{"ha":760,"x_min":57,"x_max":728,"o":"m 728 226 l 728 0 l 57 0 l 57 11 q 111 82 57 76 l 160 85 l 160 860 l 61 868 q 114 949 53 949 l 431 949 l 431 939 q 401 872 431 889 q 376 867 390 867 l 307 863 l 306 863 l 306 88 l 629 96 l 649 274 q 728 226 728 282 m 524 1167 l 240 1015 q 189 1067 204 1033 l 419 1251 q 480 1219 449 1247 q 524 1167 511 1192 z "},"ĺ":{"ha":447,"x_min":42,"x_max":396,"o":"m 343 0 l 51 0 l 51 11 q 61 56 51 44 q 107 81 79 78 l 156 83 l 156 874 l 94 879 q 50 956 50 885 l 297 983 l 297 86 l 396 78 q 343 0 404 0 m 376 1122 l 94 971 q 42 1022 57 989 l 274 1207 q 334 1175 303 1203 q 376 1122 365 1147 z "},"Ļ":{"ha":760,"x_min":57,"x_max":728,"o":"m 728 226 l 728 0 l 57 0 l 57 11 q 111 82 57 76 l 160 85 l 160 860 l 61 868 q 114 949 53 949 l 431 949 l 431 939 q 401 872 431 889 q 376 867 390 867 l 307 863 l 306 863 l 306 88 l 629 96 l 649 274 q 728 226 728 282 m 326 -65 q 339 -52 326 -65 q 394 -39 351 -39 q 464 -66 438 -39 q 490 -151 490 -93 q 442 -281 490 -208 q 342 -376 394 -354 q 319 -368 333 -381 q 304 -347 304 -356 q 381 -229 360 -308 q 322 -198 344 -225 q 300 -131 300 -171 q 326 -65 300 -92 z "},"ļ":{"ha":425,"x_min":50,"x_max":396,"o":"m 343 0 l 51 0 l 51 11 q 61 56 51 44 q 107 81 79 78 l 156 83 l 156 874 l 94 879 q 50 956 50 885 l 297 983 l 297 86 l 396 78 q 343 0 404 0 m 174 -82 q 187 -69 174 -82 q 243 -56 200 -56 q 313 -83 286 -56 q 339 -167 339 -110 q 291 -298 339 -225 q 190 -393 243 -371 q 167 -385 182 -397 q 153 -364 153 -372 q 229 -246 208 -325 q 171 -215 193 -242 q 149 -148 149 -187 q 174 -82 149 -108 z "},"Ľ":{"ha":833,"x_min":57,"x_max":728,"o":"m 728 226 l 728 0 l 57 0 l 57 11 q 111 82 57 76 l 160 85 l 160 860 l 61 868 q 114 949 53 949 l 431 949 l 431 939 q 401 872 431 889 q 376 867 390 867 l 307 863 l 306 863 l 306 88 l 629 96 l 649 274 q 728 226 728 282 m 503 775 q 524 915 524 826 q 508 1049 524 1004 q 591 1063 526 1071 q 667 1026 656 1056 q 643 869 669 946 q 567 743 617 793 q 531 753 560 739 q 503 775 503 768 z "},"ľ":{"ha":528,"x_min":50,"x_max":510,"o":"m 510 1021 q 419 746 517 856 q 388 753 413 740 q 364 772 364 765 q 386 908 385 825 q 371 1038 388 992 q 444 1053 389 1058 q 510 1021 499 1047 m 343 0 l 51 0 l 51 11 q 61 56 51 44 q 107 81 79 78 l 156 83 l 156 874 l 94 879 q 50 956 50 885 l 297 983 l 297 86 l 396 78 q 343 0 404 0 z "},"Ŀ":{"ha":760,"x_min":57,"x_max":728,"o":"m 728 226 l 728 0 l 57 0 l 57 11 q 111 82 57 76 l 160 85 l 160 860 l 61 868 q 114 949 53 949 l 431 949 l 431 939 q 401 872 431 889 q 376 867 390 867 l 307 863 l 306 863 l 306 88 l 629 96 l 649 274 q 728 226 728 282 m 703 485 q 703 464 703 485 q 674 415 703 443 q 603 386 646 386 q 532 415 561 386 q 503 485 503 443 q 532 557 503 528 q 603 586 561 586 q 674 557 646 586 q 703 485 703 528 z "},"ŀ":{"ha":425,"x_min":50,"x_max":542,"o":"m 342 484 q 342 505 342 484 q 371 556 342 526 q 442 585 400 585 q 513 556 485 585 q 542 484 542 526 q 513 413 542 442 q 442 385 485 385 q 371 413 400 385 q 342 484 342 442 m 343 0 l 51 0 l 51 11 q 61 56 51 44 q 107 81 79 78 l 156 83 l 156 874 l 94 879 q 50 956 50 885 l 297 983 l 297 86 l 396 78 q 343 0 404 0 z "},"Ł":{"ha":764,"x_min":28,"x_max":732,"o":"m 732 226 l 732 0 l 61 0 l 61 11 q 115 82 61 76 l 164 85 l 164 311 l 83 247 l 28 315 l 164 422 l 164 860 l 65 868 q 118 949 57 949 l 435 949 l 435 939 q 406 872 435 889 q 381 867 394 867 l 311 863 l 310 863 l 310 538 l 457 653 l 513 585 l 310 425 l 310 88 l 633 96 l 653 274 q 732 226 732 282 z "},"ł":{"ha":457,"x_min":13,"x_max":454,"o":"m 343 0 l 51 0 l 51 11 q 61 56 51 44 q 107 81 79 78 l 156 83 l 156 367 l 72 292 l 13 361 l 156 488 l 156 874 l 94 879 q 50 956 50 885 l 297 983 l 297 614 l 396 701 l 454 635 l 297 494 l 297 86 l 396 78 q 343 0 404 0 z "},"Ń":{"ha":958,"x_min":57,"x_max":932,"o":"m 689 947 l 932 947 q 932 936 932 947 q 878 865 932 871 l 828 863 l 828 17 q 735 -1 788 -1 l 254 725 l 254 88 l 354 79 q 301 0 363 0 l 57 0 l 57 11 q 111 82 57 76 l 160 85 l 160 860 l 60 868 q 113 947 51 947 l 282 947 l 735 263 l 735 860 l 635 868 q 689 947 626 947 m 706 1167 l 422 1015 q 371 1067 386 1033 l 601 1251 q 661 1219 631 1247 q 706 1167 692 1192 z "},"ń":{"ha":883,"x_min":50,"x_max":853,"o":"m 800 0 l 511 0 l 511 11 q 565 81 511 75 l 614 83 l 614 432 q 479 596 614 596 q 383 578 424 596 q 297 521 343 561 l 297 86 l 396 78 q 343 0 404 0 l 51 0 l 51 11 q 61 56 51 44 q 107 81 79 78 l 156 83 l 156 599 l 94 606 q 50 681 50 610 l 275 708 l 288 615 l 292 615 q 506 714 399 714 q 684 645 613 714 q 756 432 756 576 l 756 86 l 853 78 q 800 0 861 0 m 685 908 l 403 757 q 350 808 365 775 l 582 993 q 642 961 611 989 q 685 908 674 933 z "},"Ņ":{"ha":958,"x_min":57,"x_max":932,"o":"m 689 947 l 932 947 q 932 936 932 947 q 878 865 932 871 l 828 863 l 828 17 q 735 -1 788 -1 l 254 725 l 254 88 l 354 79 q 301 0 363 0 l 57 0 l 57 11 q 111 82 57 76 l 160 85 l 160 860 l 60 868 q 113 947 51 947 l 282 947 l 735 263 l 735 860 l 635 868 q 689 947 626 947 m 440 -65 q 452 -52 440 -65 q 508 -39 465 -39 q 578 -66 551 -39 q 604 -151 604 -93 q 556 -281 604 -208 q 456 -376 508 -354 q 433 -368 447 -381 q 418 -347 418 -356 q 494 -229 474 -308 q 436 -198 458 -225 q 414 -131 414 -171 q 440 -65 414 -92 z "},"ņ":{"ha":883,"x_min":50,"x_max":853,"o":"m 800 0 l 511 0 l 511 11 q 565 81 511 75 l 614 83 l 614 432 q 479 596 614 596 q 383 578 424 596 q 297 521 343 561 l 297 86 l 396 78 q 343 0 404 0 l 51 0 l 51 11 q 61 56 51 44 q 107 81 79 78 l 156 83 l 156 599 l 94 606 q 50 681 50 610 l 275 708 l 288 615 l 292 615 q 506 714 399 714 q 684 645 613 714 q 756 432 756 576 l 756 86 l 853 78 q 800 0 861 0 m 392 -82 q 405 -69 392 -82 q 461 -56 418 -56 q 531 -83 504 -56 q 557 -167 557 -110 q 509 -298 557 -225 q 408 -393 461 -371 q 385 -385 400 -397 q 371 -364 371 -372 q 447 -246 426 -325 q 389 -215 411 -242 q 367 -148 367 -187 q 392 -82 367 -108 z "},"Ň":{"ha":958,"x_min":57,"x_max":932,"o":"m 689 947 l 932 947 q 932 936 932 947 q 878 865 932 871 l 828 863 l 828 17 q 735 -1 788 -1 l 254 725 l 254 88 l 354 79 q 301 0 363 0 l 57 0 l 57 11 q 111 82 57 76 l 160 85 l 160 860 l 60 868 q 113 947 51 947 l 282 947 l 735 263 l 735 860 l 635 868 q 689 947 626 947 m 718 1199 l 532 1026 q 435 1026 488 1015 l 244 1199 q 290 1246 263 1231 l 481 1126 l 671 1246 q 718 1199 697 1232 z "},"ň":{"ha":883,"x_min":50,"x_max":853,"o":"m 800 0 l 511 0 l 511 11 q 565 81 511 75 l 614 83 l 614 432 q 479 596 614 596 q 383 578 424 596 q 297 521 343 561 l 297 86 l 396 78 q 343 0 404 0 l 51 0 l 51 11 q 61 56 51 44 q 107 81 79 78 l 156 83 l 156 599 l 94 606 q 50 681 50 610 l 275 708 l 288 615 l 292 615 q 506 714 399 714 q 684 645 613 714 q 756 432 756 576 l 756 86 l 853 78 q 800 0 861 0 m 699 944 l 513 772 q 415 772 468 761 l 225 944 q 271 992 243 976 l 461 872 l 651 992 q 699 944 678 978 z "},"Ŋ":{"ha":963,"x_min":57,"x_max":935,"o":"m 689 947 l 935 947 q 935 936 935 947 q 881 865 935 871 l 831 863 l 831 43 q 766 -170 831 -85 q 590 -256 701 -256 q 494 -225 532 -256 q 456 -151 456 -194 q 556 -60 456 -60 q 624 -154 556 -154 q 702 -108 676 -154 q 728 11 728 -61 l 256 725 l 256 88 l 357 79 q 303 0 365 0 l 57 0 l 57 11 q 111 82 57 76 l 160 85 l 160 860 l 60 868 q 113 947 51 947 l 281 947 l 735 260 l 735 860 l 635 868 q 689 947 626 947 z "},"ŋ":{"ha":858,"x_min":50,"x_max":756,"o":"m 292 615 q 506 714 399 714 q 684 645 613 714 q 756 432 756 576 l 756 88 q 685 -203 756 -104 q 493 -301 615 -303 q 408 -274 436 -301 q 379 -209 379 -246 q 404 -153 379 -172 q 468 -135 429 -133 q 526 -206 471 -206 q 592 -169 569 -206 q 614 -22 614 -132 l 614 432 q 479 596 614 596 q 383 578 424 596 q 297 521 343 561 l 297 86 l 396 78 q 343 0 404 0 l 51 0 l 51 11 q 61 56 51 44 q 107 81 79 78 l 156 83 l 156 599 l 94 606 q 50 681 50 610 l 275 708 l 288 615 l 292 615 z "},"Ō":{"ha":932,"x_min":50,"x_max":882,"o":"m 282 1147 l 675 1147 l 675 1057 l 282 1057 l 282 1147 m 466 872 q 400 871 466 872 q 268 768 335 871 q 201 476 201 665 q 267 182 201 286 q 461 76 332 78 q 663 180 594 78 q 731 472 731 282 q 664 767 731 661 q 466 872 597 872 m 486 968 q 771 848 661 968 q 881 490 881 728 q 767 116 882 253 q 442 -21 651 -21 q 156 106 258 -21 q 51 463 53 232 q 165 831 49 693 q 486 968 281 968 z "},"ō":{"ha":735,"x_min":50,"x_max":685,"o":"m 369 620 q 328 620 369 620 q 243 544 288 619 q 199 343 199 468 q 242 144 199 218 q 366 72 285 71 q 492 144 447 72 q 536 340 536 215 q 493 543 536 465 q 369 620 450 621 m 51 333 q 50 420 51 333 q 137 610 50 507 q 369 714 224 714 q 599 623 515 714 q 684 356 683 532 q 598 80 685 181 q 359 -21 511 -21 q 129 69 207 -21 q 51 333 51 160 m 175 893 l 568 893 l 568 803 l 175 803 l 175 893 z "},"Ŏ":{"ha":932,"x_min":50,"x_max":882,"o":"m 466 872 q 400 871 466 872 q 268 768 335 871 q 201 476 201 665 q 267 182 201 286 q 461 76 332 78 q 663 180 594 78 q 731 472 731 282 q 664 767 731 661 q 466 872 597 872 m 486 968 q 771 848 661 968 q 881 490 881 728 q 767 116 882 253 q 442 -21 651 -21 q 156 106 258 -21 q 51 463 53 232 q 165 831 49 693 q 486 968 281 968 m 482 1132 q 656 1243 608 1132 l 704 1218 q 636 1083 693 1140 q 481 1025 579 1025 q 325 1083 382 1025 q 257 1218 268 1140 l 306 1244 q 367 1167 324 1203 q 482 1132 410 1132 z "},"ŏ":{"ha":735,"x_min":50,"x_max":685,"o":"m 375 871 q 549 983 501 871 l 597 958 q 529 822 586 879 q 373 764 472 764 q 217 822 274 764 q 150 958 161 879 l 199 983 q 260 906 217 942 q 375 871 303 871 m 369 620 q 328 620 369 620 q 243 544 288 619 q 199 343 199 468 q 242 144 199 218 q 366 72 285 71 q 492 144 447 72 q 536 340 536 215 q 493 543 536 465 q 369 620 450 621 m 51 333 q 50 420 51 333 q 137 610 50 507 q 369 714 224 714 q 599 623 515 714 q 684 356 683 532 q 598 80 685 181 q 359 -21 511 -21 q 129 69 207 -21 q 51 333 51 160 z "},"Ő":{"ha":932,"x_min":50,"x_max":882,"o":"m 466 872 q 400 871 466 872 q 268 768 335 871 q 201 476 201 665 q 267 182 201 286 q 461 76 332 78 q 663 180 594 78 q 731 472 731 282 q 664 767 731 661 q 466 872 597 872 m 486 968 q 771 848 661 968 q 881 490 881 728 q 767 116 882 253 q 442 -21 651 -21 q 156 106 258 -21 q 51 463 53 232 q 165 831 49 693 q 486 968 281 968 m 632 1119 l 350 968 q 297 1019 313 986 l 529 1204 q 590 1172 558 1200 q 632 1119 621 1144 m 881 1119 l 599 968 q 546 1019 561 986 l 778 1204 q 838 1172 807 1200 q 881 1119 869 1144 z "},"ő":{"ha":735,"x_min":50,"x_max":794,"o":"m 369 620 q 328 620 369 620 q 243 544 288 619 q 199 343 199 468 q 242 144 199 218 q 366 72 285 71 q 492 144 447 72 q 536 340 536 215 q 493 543 536 465 q 369 620 450 621 m 51 333 q 50 420 51 333 q 137 610 50 507 q 369 714 224 714 q 599 623 515 714 q 684 356 683 532 q 598 80 685 181 q 359 -21 511 -21 q 129 69 207 -21 q 51 333 51 160 m 572 868 l 290 717 q 238 768 253 735 l 469 953 q 530 921 499 949 q 572 868 561 893 m 794 863 l 513 711 q 460 763 475 729 l 692 947 q 752 915 721 943 q 794 863 783 888 z "},"Œ":{"ha":1263,"x_min":50,"x_max":1214,"o":"m 203 476 q 261 178 203 279 q 468 75 319 76 q 633 133 572 76 l 633 825 q 472 874 571 874 q 203 476 203 872 m 1214 0 l 599 0 q 449 -21 531 -21 q 160 109 267 -21 q 51 463 53 239 q 163 828 49 686 q 493 969 278 969 q 638 949 571 969 l 1186 949 l 1186 743 q 1108 696 1186 688 l 1094 857 l 779 863 l 779 508 l 1035 533 q 1036 410 1047 471 l 779 424 l 779 88 l 1124 99 l 1136 260 q 1214 213 1214 268 l 1214 0 z "},"œ":{"ha":1156,"x_min":50,"x_max":1113,"o":"m 685 350 l 685 324 q 729 147 685 208 q 876 86 774 86 q 1075 161 978 86 q 1099 111 1099 144 q 1022 23 1099 67 q 839 -21 946 -21 q 601 94 683 -21 q 358 -21 510 -21 q 129 69 207 -21 q 51 333 51 160 q 136 610 50 507 q 380 714 222 714 q 617 590 538 714 q 864 714 710 714 q 1053 632 990 714 q 1113 425 1115 550 l 1113 350 l 685 350 m 367 622 q 327 621 367 622 q 243 545 288 621 q 199 343 199 469 q 242 143 199 217 q 366 70 285 69 q 491 143 447 71 q 535 341 535 215 q 491 544 535 467 q 367 622 447 622 m 849 618 q 693 433 722 618 l 974 433 q 849 618 969 618 z "},"Ŕ":{"ha":846,"x_min":57,"x_max":842,"o":"m 57 0 l 57 17 q 65 57 57 47 q 79 72 74 67 q 111 82 92 82 l 160 85 l 160 863 l 58 871 q 106 949 56 949 l 419 949 q 749 707 749 949 q 683 529 749 600 q 499 435 618 458 q 672 178 582 269 q 842 86 763 86 q 806 9 838 39 q 722 -21 775 -21 q 596 53 668 -21 q 378 424 461 192 q 306 425 331 424 l 306 88 l 418 79 q 365 0 425 0 l 57 0 m 306 869 l 306 503 q 356 501 324 501 q 597 694 597 501 q 392 872 597 882 l 308 869 l 306 869 m 624 1167 l 340 1015 q 289 1067 304 1033 l 519 1251 q 580 1219 549 1247 q 624 1167 611 1192 z "},"ŕ":{"ha":599,"x_min":50,"x_max":596,"o":"m 292 596 q 390 677 329 640 q 495 714 451 714 q 567 689 539 714 q 596 601 596 664 q 558 503 596 538 q 488 490 536 486 q 475 572 488 550 q 435 593 463 593 q 296 501 368 593 l 296 86 l 411 78 q 357 0 419 0 l 53 0 q 53 11 53 0 q 107 81 53 75 l 154 83 l 154 599 l 88 606 q 50 678 50 610 l 276 707 l 288 596 l 292 596 m 553 908 l 271 757 q 218 808 233 775 l 450 993 q 510 961 479 989 q 553 908 542 933 z "},"Ŗ":{"ha":846,"x_min":57,"x_max":842,"o":"m 57 0 l 57 17 q 65 57 57 47 q 79 72 74 67 q 111 82 92 82 l 160 85 l 160 863 l 58 871 q 106 949 56 949 l 419 949 q 749 707 749 949 q 683 529 749 600 q 499 435 618 458 q 672 178 582 269 q 842 86 763 86 q 806 9 838 39 q 722 -21 775 -21 q 596 53 668 -21 q 378 424 461 192 q 306 425 331 424 l 306 88 l 418 79 q 365 0 425 0 l 57 0 m 306 869 l 306 503 q 356 501 324 501 q 597 694 597 501 q 392 872 597 882 l 308 869 l 306 869 m 388 -65 q 401 -52 388 -65 q 457 -39 414 -39 q 526 -66 500 -39 q 553 -151 553 -93 q 505 -281 553 -208 q 404 -376 457 -354 q 381 -368 396 -381 q 367 -347 367 -356 q 443 -229 422 -308 q 385 -198 407 -225 q 363 -131 363 -171 q 388 -65 363 -92 z "},"ŗ":{"ha":599,"x_min":50,"x_max":596,"o":"m 292 596 q 390 677 329 640 q 495 714 451 714 q 567 689 539 714 q 596 601 596 664 q 558 503 596 538 q 488 490 536 486 q 475 572 488 550 q 435 593 463 593 q 296 501 368 593 l 296 86 l 411 78 q 357 0 419 0 l 53 0 l 53 11 q 107 81 53 75 l 154 83 l 154 599 l 88 606 q 50 678 50 610 l 276 707 l 288 596 l 292 596 m 192 -82 q 205 -69 192 -82 q 261 -56 218 -56 q 331 -83 304 -56 q 357 -167 357 -110 q 309 -298 357 -225 q 208 -393 261 -371 q 185 -385 200 -397 q 171 -364 171 -372 q 247 -246 226 -325 q 189 -215 211 -242 q 167 -148 167 -187 q 192 -82 167 -108 z "},"Ř":{"ha":846,"x_min":57,"x_max":842,"o":"m 57 0 l 57 17 q 65 57 57 47 q 79 72 74 67 q 111 82 92 82 l 160 85 l 160 863 l 58 871 q 106 949 56 949 l 419 949 q 749 707 749 949 q 683 529 749 600 q 499 435 618 458 q 672 178 582 269 q 842 86 763 86 q 806 9 838 39 q 722 -21 775 -21 q 596 53 668 -21 q 378 424 461 192 q 306 425 331 424 l 306 88 l 418 79 q 365 0 425 0 l 57 0 m 306 869 l 306 503 q 356 501 324 501 q 597 694 597 501 q 392 872 597 882 l 308 869 l 306 869 m 636 1199 l 451 1026 q 353 1026 407 1015 l 164 1199 q 208 1246 182 1229 l 399 1126 l 589 1246 q 636 1199 615 1232 z "},"ř":{"ha":599,"x_min":50,"x_max":596,"o":"m 292 596 q 390 677 329 640 q 495 714 451 714 q 567 689 539 714 q 596 601 596 664 q 558 503 596 538 q 488 490 536 486 q 475 572 488 550 q 435 593 463 593 q 296 501 368 593 l 296 86 l 411 78 q 357 0 419 0 l 53 0 l 53 11 q 107 81 53 75 l 154 83 l 154 599 l 88 606 q 50 678 50 610 l 276 707 l 288 596 l 292 596 m 565 944 l 381 772 q 282 772 336 761 l 93 944 q 138 992 108 975 l 328 872 l 518 992 q 565 944 544 978 z "},"Ś":{"ha":721,"x_min":35,"x_max":682,"o":"m 601 1167 l 318 1015 q 267 1067 282 1033 l 497 1251 q 558 1219 526 1247 q 601 1167 589 1192 m 597 903 q 639 808 639 864 q 607 724 639 751 q 525 703 575 697 q 365 874 525 874 q 247 840 293 874 q 201 747 201 807 q 228 672 201 701 q 246 653 239 661 q 270 635 253 646 q 296 619 288 625 q 326 603 304 614 q 356 589 347 593 q 425 560 396 575 q 624 444 565 499 q 682 290 682 390 q 585 67 682 156 q 326 -21 489 -21 q 123 24 211 -21 q 35 153 35 69 q 65 230 35 200 q 157 260 96 260 q 349 74 169 74 q 500 119 444 74 q 556 239 556 165 q 494 356 556 311 q 433 393 461 379 q 349 431 406 407 q 263 469 292 456 q 192 510 235 483 q 128 561 149 536 q 75 708 75 625 q 167 899 75 832 q 388 968 258 967 q 597 903 519 971 z "},"ś":{"ha":582,"x_min":33,"x_max":549,"o":"m 56 512 q 56 559 56 512 q 133 660 56 606 q 303 714 211 714 q 455 684 396 714 q 514 590 514 654 q 485 523 514 546 q 414 506 456 500 q 378 589 415 556 q 287 623 340 622 q 202 601 233 624 q 171 543 171 579 q 210 482 171 507 q 322 428 250 457 q 422 385 393 400 q 485 344 451 369 q 548 204 549 297 q 472 44 547 111 q 267 -21 396 -22 q 103 16 174 -19 q 33 118 33 51 q 64 185 35 161 q 133 208 93 208 q 185 108 143 144 q 290 72 226 72 q 390 94 353 71 q 428 163 428 118 q 394 232 428 208 q 296 281 361 256 q 197 323 231 307 q 128 365 164 339 q 56 512 56 418 m 522 908 l 240 757 q 188 808 203 775 l 419 993 q 480 961 449 989 q 522 908 511 933 z "},"Ŝ":{"ha":721,"x_min":35,"x_max":682,"o":"m 682 290 q 585 67 682 156 q 326 -21 489 -21 q 123 24 211 -21 q 35 153 35 69 q 65 230 35 200 q 157 260 96 260 q 349 74 169 74 q 500 119 444 74 q 556 239 556 165 q 494 356 556 311 q 433 393 461 379 q 349 431 406 407 q 263 469 292 456 q 192 510 235 483 q 128 561 149 536 q 75 708 75 625 q 167 899 75 832 q 388 968 258 967 q 597 903 519 971 q 639 808 639 864 q 607 724 639 751 q 525 703 575 697 q 365 874 525 874 q 247 840 293 874 q 201 747 201 807 q 228 672 201 701 q 246 653 239 661 q 270 635 253 646 q 296 619 288 625 q 326 603 304 614 q 356 589 347 593 q 425 560 396 575 q 624 444 565 499 q 682 290 682 390 m 379 1124 l 188 1003 q 143 1050 161 1019 l 332 1222 q 431 1222 382 1235 l 615 1050 q 569 1003 596 1018 l 379 1124 z "},"ŝ":{"ha":582,"x_min":33,"x_max":549,"o":"m 290 72 q 321 71 290 72 q 390 94 353 71 q 428 163 428 118 q 394 232 428 208 q 296 281 361 256 q 197 323 231 307 q 128 365 164 339 q 56 512 56 418 q 133 660 56 606 q 303 714 211 714 q 455 684 396 714 q 514 590 514 654 q 485 523 514 546 q 414 506 456 500 q 378 589 415 556 q 287 623 340 622 q 202 601 233 624 q 171 543 171 579 q 210 482 171 507 q 322 428 250 457 q 422 385 393 400 q 485 344 451 369 q 548 204 549 297 q 472 44 547 111 q 267 -21 396 -22 q 103 16 174 -19 q 33 118 33 51 q 64 185 35 161 q 133 208 93 208 q 185 108 143 144 q 290 72 226 72 m 300 869 l 108 749 q 64 796 82 765 l 253 968 q 351 968 303 981 l 536 796 q 490 749 517 764 l 300 869 z "},"Ş":{"ha":721,"x_min":35,"x_max":682,"o":"m 35 153 q 65 230 35 200 q 157 260 96 260 q 349 74 169 74 q 500 119 444 74 q 556 239 556 165 q 494 356 556 311 q 433 393 461 379 q 349 431 406 407 q 263 469 292 456 q 192 510 235 483 q 128 561 149 536 q 75 708 75 625 q 167 899 75 832 q 388 968 258 967 q 597 903 519 971 q 639 808 639 864 q 607 724 639 751 q 525 703 575 697 q 365 874 525 874 q 247 840 293 874 q 201 747 201 807 q 228 672 201 701 q 246 653 239 661 q 270 635 253 646 q 296 619 288 625 q 326 603 304 614 q 356 589 347 593 q 425 560 396 575 q 624 444 565 499 q 682 279 682 390 q 602 83 682 168 q 385 -18 522 -1 l 374 -62 q 460 -91 432 -62 q 489 -166 489 -119 q 451 -245 489 -212 q 350 -278 414 -278 q 250 -239 286 -278 q 254 -207 249 -224 q 267 -186 260 -190 q 335 -208 293 -208 q 390 -164 390 -208 q 370 -128 390 -140 q 292 -115 350 -115 l 317 -21 q 119 26 203 -18 q 35 153 35 71 z "},"ş":{"ha":582,"x_min":33,"x_max":549,"o":"m 290 72 q 321 71 290 72 q 390 94 353 71 q 428 163 428 118 q 394 232 428 208 q 296 281 361 256 q 197 323 231 307 q 128 365 164 339 q 56 512 56 418 q 133 660 56 606 q 303 714 211 714 q 455 684 396 714 q 514 590 514 654 q 485 523 514 546 q 414 506 456 500 q 378 589 415 556 q 287 623 340 622 q 202 601 233 624 q 171 543 171 579 q 210 482 171 507 q 322 428 250 457 q 422 385 393 400 q 485 344 451 369 q 548 212 549 297 q 490 64 547 126 q 333 -15 433 1 l 322 -62 q 408 -91 379 -62 q 436 -166 436 -119 q 399 -245 436 -212 q 298 -278 361 -278 q 199 -239 235 -278 q 203 -207 197 -224 q 215 -186 208 -190 q 290 -208 242 -208 q 338 -164 338 -208 q 317 -128 338 -140 q 239 -115 297 -115 l 264 -21 q 103 17 172 -19 q 33 118 33 53 q 64 185 35 161 q 133 208 93 208 q 185 108 143 144 q 290 72 226 72 z "},"Š":{"ha":721,"x_min":35,"x_max":682,"o":"m 682 290 q 585 67 682 156 q 326 -21 489 -21 q 123 24 211 -21 q 35 153 35 69 q 65 230 35 200 q 157 260 96 260 q 349 74 169 74 q 500 119 444 74 q 556 239 556 165 q 494 356 556 311 q 433 393 461 379 q 349 431 406 407 q 263 469 292 456 q 192 510 235 483 q 128 561 149 536 q 75 708 75 625 q 167 899 75 832 q 388 968 258 967 q 597 903 519 971 q 639 808 639 864 q 607 724 639 751 q 525 703 575 697 q 365 874 525 874 q 247 840 293 874 q 201 747 201 807 q 228 672 201 701 q 246 653 239 661 q 270 635 253 646 q 296 619 288 625 q 326 603 304 614 q 356 589 347 593 q 425 560 396 575 q 624 444 565 499 q 682 290 682 390 m 614 1199 l 428 1026 q 331 1026 385 1015 l 142 1199 q 186 1246 157 1229 l 376 1126 l 567 1246 q 614 1199 593 1232 z "},"š":{"ha":582,"x_min":33,"x_max":549,"o":"m 290 72 q 321 71 290 72 q 390 94 353 71 q 428 163 428 118 q 394 232 428 208 q 296 281 361 256 q 197 323 231 307 q 128 365 164 339 q 56 512 56 418 q 133 660 56 606 q 303 714 211 714 q 455 684 396 714 q 514 590 514 654 q 485 523 514 546 q 414 506 456 500 q 378 589 415 556 q 287 623 340 622 q 202 601 233 624 q 171 543 171 579 q 210 482 171 507 q 322 428 250 457 q 422 385 393 400 q 485 344 451 369 q 548 204 549 297 q 472 44 547 111 q 267 -21 396 -22 q 103 16 174 -19 q 33 118 33 51 q 64 185 35 161 q 133 208 93 208 q 185 108 143 144 q 290 72 226 72 m 535 944 l 349 772 q 251 772 306 761 l 63 944 q 107 992 78 975 l 297 872 l 488 992 q 535 944 514 978 z "},"Ţ":{"ha":865,"x_min":28,"x_max":838,"o":"m 28 947 l 838 947 l 838 763 q 806 715 838 724 q 760 710 785 710 l 747 856 l 506 856 l 506 88 l 617 79 q 564 0 625 0 l 247 0 l 247 11 q 301 82 247 76 l 361 85 l 361 856 l 118 856 l 107 710 q 36 731 50 710 q 28 763 28 743 l 28 947 m 385 -65 q 398 -52 385 -65 q 454 -39 411 -39 q 524 -66 497 -39 q 550 -151 550 -93 q 502 -281 550 -208 q 401 -376 454 -354 q 378 -368 393 -381 q 364 -347 364 -356 q 440 -229 419 -308 q 382 -198 404 -225 q 360 -131 360 -171 q 385 -65 360 -92 z "},"ţ":{"ha":551,"x_min":14,"x_max":533,"o":"m 265 608 l 265 214 q 343 89 265 89 q 428 102 393 89 q 507 150 463 115 q 524 133 514 149 q 533 101 533 118 q 461 16 533 53 q 314 -21 389 -21 q 163 42 203 -21 q 124 215 124 104 l 124 608 l 14 608 q 71 693 14 693 l 124 693 l 124 865 l 265 886 l 265 693 l 519 693 q 515 654 522 675 q 469 608 504 611 l 265 608 m 241 -82 q 254 -69 241 -82 q 310 -56 267 -56 q 379 -83 353 -56 q 406 -167 406 -110 q 358 -298 406 -225 q 257 -393 310 -371 q 234 -385 249 -397 q 219 -364 219 -372 q 296 -246 275 -325 q 238 -215 260 -242 q 215 -148 215 -187 q 241 -82 215 -108 z "},"Ť":{"ha":865,"x_min":28,"x_max":838,"o":"m 28 947 l 838 947 l 838 763 q 806 715 838 724 q 760 710 785 710 l 747 856 l 506 856 l 506 88 l 617 79 q 564 0 625 0 l 247 0 l 247 11 q 301 82 247 76 l 361 85 l 361 856 l 118 856 l 107 710 q 36 731 50 710 q 28 763 28 743 l 28 947 m 675 1199 l 490 1026 q 392 1026 442 1014 l 203 1199 q 247 1246 221 1229 l 439 1125 l 629 1246 q 675 1199 656 1231 z "},"ť":{"ha":551,"x_min":14,"x_max":533,"o":"m 265 608 l 265 214 q 343 89 265 89 q 428 102 393 89 q 507 150 463 115 q 524 133 514 149 q 533 101 533 118 q 461 16 533 53 q 314 -21 389 -21 q 163 42 203 -21 q 124 215 124 104 l 124 608 l 14 608 q 71 693 14 693 l 124 693 l 124 865 l 265 886 l 265 693 l 519 693 q 515 654 522 675 q 469 608 504 611 l 265 608 m 381 740 q 348 747 372 735 q 324 768 324 760 q 347 902 346 818 q 332 1032 347 986 q 405 1047 350 1053 q 471 1017 460 1042 q 381 740 478 853 z "},"Ŧ":{"ha":865,"x_min":28,"x_max":838,"o":"m 28 947 l 838 947 l 838 763 q 806 715 838 724 q 760 710 785 710 l 747 856 l 506 856 l 506 88 l 617 79 q 564 0 625 0 l 247 0 l 247 11 q 301 82 247 76 l 361 85 l 361 856 l 118 856 l 107 710 q 36 731 50 710 q 28 763 28 743 l 28 947 m 636 1147 l 636 1057 l 243 1057 l 243 1147 l 636 1147 z "},"ŧ":{"ha":565,"x_min":14,"x_max":533,"o":"m 265 372 l 265 214 q 343 89 265 89 q 428 102 393 89 q 507 150 463 115 q 524 133 514 149 q 533 101 533 118 q 461 16 533 53 q 314 -21 389 -21 q 163 42 203 -21 q 124 215 124 104 l 124 372 l 18 372 l 18 449 l 124 449 l 124 608 l 14 608 q 71 693 14 693 l 124 693 l 124 865 l 265 886 l 265 693 l 519 693 q 515 654 522 675 q 469 608 504 611 l 265 608 l 265 449 l 496 449 l 496 372 l 265 372 z "},"Ũ":{"ha":917,"x_min":22,"x_max":897,"o":"m 650 947 l 897 947 q 897 936 897 947 q 843 865 897 871 l 794 863 l 794 383 q 449 -21 794 -21 q 204 74 286 -21 q 122 378 122 169 l 122 860 l 22 868 q 75 947 14 947 l 371 947 l 371 936 q 317 865 371 871 l 268 863 l 267 367 q 315 146 267 215 q 469 76 363 76 q 697 354 697 76 l 696 860 l 597 868 q 650 947 589 947 m 231 1061 q 282 1180 243 1136 q 370 1224 321 1224 q 476 1184 419 1224 q 569 1144 533 1144 q 629 1164 606 1144 q 660 1215 653 1183 l 703 1203 q 551 1036 681 1036 q 439 1072 499 1036 q 353 1108 379 1108 q 306 1090 326 1108 q 276 1044 285 1072 l 231 1061 z "},"ũ":{"ha":819,"x_min":17,"x_max":786,"o":"m 211 792 l 167 810 q 219 926 179 883 q 308 968 258 969 q 413 926 357 967 q 507 886 469 886 q 597 956 578 885 l 640 942 q 486 778 615 775 q 374 816 433 779 q 288 853 314 853 q 241 836 263 854 q 211 792 219 818 m 451 610 l 451 626 q 460 669 451 660 q 472 683 468 679 q 503 693 482 693 l 700 693 l 700 88 l 744 85 q 786 8 786 83 l 600 -10 l 575 67 q 372 -21 476 -21 q 193 49 267 -21 q 119 267 119 119 l 119 607 l 17 610 l 17 622 q 69 693 17 693 l 261 693 l 261 267 q 407 89 261 89 q 558 147 486 89 l 558 607 l 451 610 z "},"Ū":{"ha":917,"x_min":22,"x_max":897,"o":"m 268 1147 l 661 1147 l 661 1057 l 268 1057 l 268 1147 m 650 947 l 897 947 q 897 936 897 947 q 843 865 897 871 l 794 863 l 794 383 q 449 -21 794 -21 q 204 74 286 -21 q 122 378 122 169 l 122 860 l 22 868 q 75 947 14 947 l 371 947 l 371 936 q 317 865 371 871 l 268 863 l 267 367 q 315 146 267 215 q 469 76 363 76 q 697 354 697 76 l 696 860 l 597 868 q 650 947 589 947 z "},"ū":{"ha":819,"x_min":17,"x_max":786,"o":"m 204 893 l 597 893 l 597 803 l 204 803 l 204 893 m 451 610 l 451 626 q 460 669 451 660 q 472 683 468 679 q 503 693 482 693 l 700 693 l 700 88 l 744 85 q 786 8 786 83 l 600 -10 l 575 67 q 372 -21 476 -21 q 193 49 267 -21 q 119 267 119 119 l 119 607 l 17 610 l 17 622 q 69 693 17 693 l 261 693 l 261 267 q 407 89 261 89 q 558 147 486 89 l 558 607 l 451 610 z "},"Ŭ":{"ha":917,"x_min":22,"x_max":897,"o":"m 650 947 l 897 947 q 897 936 897 947 q 843 865 897 871 l 794 863 l 794 383 q 449 -21 794 -21 q 204 74 286 -21 q 122 378 122 169 l 122 860 l 22 868 q 75 947 14 947 l 371 947 l 371 936 q 317 865 371 871 l 268 863 l 267 367 q 315 146 267 215 q 469 76 363 76 q 697 354 697 76 l 696 860 l 597 868 q 650 947 589 947 m 467 1132 q 640 1243 593 1132 l 689 1218 q 621 1083 678 1140 q 465 1025 564 1025 q 310 1083 367 1025 q 242 1218 253 1140 l 290 1244 q 351 1167 308 1203 q 467 1132 394 1132 z "},"ŭ":{"ha":819,"x_min":17,"x_max":786,"o":"m 403 871 q 576 983 529 871 l 625 958 q 557 822 614 879 q 401 764 500 764 q 245 822 301 764 q 178 958 189 879 l 226 983 q 288 906 244 942 q 403 871 331 871 m 451 610 l 451 626 q 460 669 451 660 q 472 683 468 679 q 503 693 482 693 l 700 693 l 700 88 l 744 85 q 786 8 786 83 l 600 -10 l 575 67 q 372 -21 476 -21 q 193 49 267 -21 q 119 267 119 119 l 119 607 l 17 610 l 17 622 q 69 693 17 693 l 261 693 l 261 267 q 407 89 261 89 q 558 147 486 89 l 558 607 l 451 610 z "},"Ů":{"ha":917,"x_min":22,"x_max":897,"o":"m 513 1180 q 504 1188 513 1180 q 468 1196 496 1196 q 424 1180 440 1196 q 408 1136 408 1164 q 424 1092 408 1108 q 468 1075 440 1075 q 513 1092 496 1075 q 529 1136 529 1108 q 513 1180 529 1164 m 339 1135 q 339 1163 339 1135 q 375 1226 339 1190 q 470 1261 411 1261 q 565 1227 529 1261 q 599 1138 600 1193 q 560 1047 597 1082 q 466 1013 524 1013 q 374 1046 408 1013 q 339 1135 339 1079 m 650 947 l 897 947 l 897 936 q 843 865 897 871 l 794 863 l 794 383 q 449 -21 794 -21 q 204 74 286 -21 q 122 378 122 169 l 122 860 l 22 868 q 75 947 14 947 l 371 947 l 371 936 q 317 865 371 871 l 268 863 l 267 367 q 315 146 267 215 q 469 76 363 76 q 697 354 697 76 l 696 860 l 597 868 q 650 947 589 947 z "},"ů":{"ha":819,"x_min":17,"x_max":786,"o":"m 449 926 q 440 934 449 926 q 404 942 432 942 q 360 926 376 942 q 344 882 344 910 q 360 838 344 854 q 404 821 376 821 q 449 838 432 821 q 465 882 465 854 q 449 926 465 910 m 275 881 q 275 908 275 881 q 311 972 275 936 q 406 1007 347 1007 q 501 973 465 1007 q 535 883 536 939 q 497 793 533 828 q 402 758 460 758 q 310 792 344 758 q 275 881 275 825 m 451 610 l 451 626 q 460 669 451 660 q 472 683 468 679 q 503 693 482 693 l 700 693 l 700 88 l 744 85 q 786 8 786 83 l 600 -10 l 575 67 q 372 -21 476 -21 q 193 49 267 -21 q 119 267 119 119 l 119 607 l 17 610 l 17 622 q 69 693 17 693 l 261 693 l 261 267 q 407 89 261 89 q 558 147 486 89 l 558 607 l 451 610 z "},"Ű":{"ha":917,"x_min":22,"x_max":897,"o":"m 650 947 l 897 947 q 897 936 897 947 q 843 865 897 871 l 794 863 l 794 383 q 449 -21 794 -21 q 204 74 286 -21 q 122 378 122 169 l 122 860 l 22 868 q 75 947 14 947 l 371 947 l 371 936 q 317 865 371 871 l 268 863 l 267 367 q 315 146 267 215 q 469 76 363 76 q 697 354 697 76 l 696 860 l 597 868 q 650 947 589 947 m 617 1119 l 335 968 q 282 1019 297 986 l 514 1204 q 574 1172 543 1200 q 617 1119 606 1144 m 865 1119 l 583 968 q 531 1019 546 986 l 763 1204 q 823 1172 792 1200 q 865 1119 854 1144 z "},"ű":{"ha":819,"x_min":17,"x_max":822,"o":"m 451 610 l 451 626 q 460 669 451 660 q 472 683 468 679 q 503 693 482 693 l 700 693 l 700 88 l 744 85 q 786 8 786 83 l 600 -10 l 575 67 q 372 -21 476 -21 q 193 49 267 -21 q 119 267 119 119 l 119 607 l 17 610 l 17 622 q 69 693 17 693 l 261 693 l 261 267 q 407 89 261 89 q 558 147 486 89 l 558 607 l 451 610 m 600 868 l 318 717 q 265 768 281 735 l 497 953 q 558 921 526 949 q 600 868 589 893 m 822 863 l 540 711 q 488 763 503 729 l 719 947 q 780 915 749 943 q 822 863 811 888 z "},"Ų":{"ha":917,"x_min":22,"x_max":897,"o":"m 650 947 l 897 947 q 897 936 897 947 q 843 865 897 871 l 794 863 l 794 383 q 564 -8 794 51 q 474 -128 474 -49 q 491 -177 474 -160 q 540 -194 508 -194 q 611 -165 572 -194 q 620 -187 617 -169 q 621 -217 624 -206 q 517 -264 588 -264 q 412 -233 447 -264 q 376 -154 376 -201 q 450 -21 376 -75 l 449 -21 q 204 74 286 -21 q 122 378 122 169 l 122 860 l 22 868 q 75 947 14 947 l 371 947 l 371 936 q 317 865 371 871 l 268 863 l 267 367 q 315 146 267 215 q 469 76 363 76 q 697 354 697 76 l 696 860 l 597 868 q 650 947 589 947 z "},"ų":{"ha":819,"x_min":17,"x_max":821,"o":"m 451 610 l 451 626 q 460 669 451 660 q 472 683 468 679 q 503 693 482 693 l 700 693 l 700 88 l 744 85 q 786 8 786 83 l 767 7 q 675 -114 675 -33 q 692 -165 675 -147 q 741 -182 708 -182 q 811 -151 774 -182 q 820 -174 817 -156 q 821 -203 824 -192 q 717 -250 788 -250 q 613 -219 647 -250 q 578 -142 578 -189 q 654 -4 578 -64 l 600 -10 l 575 67 q 372 -21 476 -21 q 193 49 267 -21 q 119 267 119 119 l 119 607 l 17 610 l 17 622 q 69 693 17 693 l 261 693 l 261 267 q 407 89 261 89 q 558 147 486 89 l 558 607 l 451 610 z "},"Ŵ":{"ha":1335,"x_min":4,"x_max":1332,"o":"m 1101 947 l 1332 947 q 1332 935 1332 947 q 1311 875 1332 889 q 1257 863 1300 867 l 983 0 l 860 0 l 668 600 l 463 0 l 338 0 l 82 860 l 4 868 q 56 947 -4 947 l 344 947 l 344 936 q 290 865 344 871 l 243 863 l 424 182 l 644 856 l 747 856 l 944 179 l 1147 860 l 1049 868 q 1101 947 1040 947 m 704 1124 l 513 1003 q 468 1050 486 1019 l 657 1222 q 756 1222 707 1235 l 940 1050 q 894 1003 921 1018 l 704 1124 z "},"ŵ":{"ha":1001,"x_min":3,"x_max":999,"o":"m 308 693 l 307 667 q 278 619 307 636 q 219 610 267 614 l 335 215 l 479 628 l 567 629 l 690 229 l 818 608 l 754 615 q 807 693 746 693 l 999 693 q 953 613 1000 617 l 936 611 l 703 0 l 622 0 l 490 392 l 342 0 l 263 0 l 63 607 l 3 615 q 53 693 0 693 l 308 693 m 525 869 l 333 749 q 289 796 307 765 l 478 968 q 576 968 528 981 l 761 796 q 715 749 742 764 l 525 869 z "},"Ŷ":{"ha":860,"x_min":4,"x_max":856,"o":"m 610 949 l 856 949 q 856 939 856 949 q 801 867 856 872 l 769 863 l 504 392 l 504 88 l 506 88 l 606 79 q 551 0 614 0 l 254 0 l 254 11 q 308 82 254 76 l 358 85 l 358 389 l 89 860 l 4 868 q 57 949 -4 949 l 364 949 l 364 939 q 335 872 364 889 q 310 867 324 867 l 258 863 l 257 863 l 461 494 l 660 860 l 557 868 q 610 949 549 949 m 450 1124 l 258 1003 q 214 1050 232 1019 l 403 1222 q 501 1222 453 1235 l 686 1050 q 640 1003 667 1018 l 450 1124 z "},"ŷ":{"ha":722,"x_min":4,"x_max":721,"o":"m 528 693 l 721 693 l 721 681 q 667 613 721 621 l 657 611 l 425 43 l 426 43 q 321 -186 351 -135 q 147 -317 242 -315 q 62 -290 93 -317 q 31 -226 31 -264 q 52 -166 31 -189 q 100 -143 74 -143 q 133 -146 126 -143 q 133 -188 126 -164 q 165 -212 140 -212 q 249 -127 203 -212 q 325 49 294 -42 l 81 607 l 76 607 l 4 615 q 57 693 -4 693 l 324 693 l 324 683 q 269 613 324 624 l 240 610 l 396 218 l 546 607 l 475 615 q 528 693 467 693 m 392 869 l 200 749 q 156 796 174 765 l 344 968 q 443 968 394 981 l 628 796 q 582 749 608 764 l 392 869 z "},"Ÿ":{"ha":860,"x_min":4,"x_max":856,"o":"m 610 949 l 856 949 q 856 939 856 949 q 801 867 856 872 l 769 863 l 504 392 l 504 88 l 506 88 l 606 79 q 551 0 614 0 l 254 0 l 254 11 q 308 82 254 76 l 358 85 l 358 389 l 89 860 l 4 868 q 57 949 -4 949 l 364 949 l 364 939 q 335 872 364 889 q 310 867 324 867 l 258 863 l 257 863 l 461 494 l 660 860 l 557 868 q 610 949 549 949 m 381 1072 q 368 1059 381 1072 q 319 1046 356 1046 q 257 1072 283 1046 q 231 1133 231 1097 q 257 1195 231 1169 q 319 1221 283 1221 q 381 1195 356 1221 q 407 1133 407 1169 q 381 1072 407 1097 m 658 1133 q 658 1115 658 1133 q 633 1072 658 1097 q 570 1046 607 1046 q 508 1072 533 1046 q 482 1133 482 1097 q 508 1195 482 1169 q 570 1221 533 1221 q 633 1195 607 1221 q 658 1133 658 1169 z "},"Ź":{"ha":789,"x_min":24,"x_max":746,"o":"m 744 0 l 46 0 q 24 60 28 35 l 553 860 l 196 847 l 182 729 q 92 663 171 646 l 92 951 l 715 951 q 746 894 744 931 l 219 89 l 639 108 l 656 231 q 744 294 667 310 l 744 0 m 642 1167 l 358 1015 q 307 1067 322 1033 l 538 1251 q 598 1219 567 1247 q 642 1167 629 1192 z "},"ź":{"ha":596,"x_min":21,"x_max":575,"o":"m 68 693 l 543 693 q 571 626 568 668 l 199 82 l 476 89 l 488 164 q 519 210 492 199 q 575 214 547 222 l 575 0 l 42 0 q 21 63 22 35 l 400 617 l 164 608 l 156 533 q 124 487 151 499 q 68 483 96 475 l 68 693 m 539 908 l 257 757 q 204 808 219 775 l 436 993 q 497 961 465 989 q 539 908 528 933 z "},"Ż":{"ha":789,"x_min":24,"x_max":746,"o":"m 744 0 l 46 0 q 24 60 28 35 l 553 860 l 196 847 l 182 729 q 92 663 171 646 l 92 951 l 715 951 q 746 894 744 931 l 219 89 l 639 108 l 656 231 q 744 294 667 310 l 744 0 m 489 1083 q 476 1070 489 1083 q 425 1057 464 1057 q 360 1083 386 1057 q 335 1147 335 1108 q 360 1212 335 1186 q 425 1238 386 1238 q 489 1212 464 1238 q 514 1147 514 1186 q 489 1083 514 1108 z "},"ż":{"ha":596,"x_min":21,"x_max":575,"o":"m 413 893 q 413 874 413 893 q 387 828 413 854 q 323 803 361 803 q 258 828 285 803 q 232 893 232 854 q 258 958 232 932 q 323 983 285 983 q 387 958 361 983 q 413 893 413 932 m 68 693 l 543 693 q 571 626 568 668 l 199 82 l 476 89 l 488 164 q 519 210 492 199 q 575 214 547 222 l 575 0 l 42 0 q 21 63 22 35 l 400 617 l 164 608 l 156 533 q 124 487 151 499 q 68 483 96 475 l 68 693 z "},"Ž":{"ha":789,"x_min":24,"x_max":746,"o":"m 744 0 l 46 0 q 24 60 28 35 l 553 860 l 196 847 l 182 729 q 92 663 171 646 l 92 951 l 715 951 q 746 894 744 931 l 219 89 l 639 108 l 656 231 q 744 294 667 310 l 744 0 m 654 1199 l 469 1026 q 371 1026 421 1014 l 182 1199 q 226 1246 200 1229 l 418 1125 l 608 1246 q 654 1199 635 1231 z "},"ž":{"ha":596,"x_min":21,"x_max":575,"o":"m 575 0 l 42 0 q 21 63 22 35 l 400 617 l 164 608 l 156 533 q 124 487 151 499 q 68 483 96 475 l 68 693 l 543 693 q 571 626 568 668 l 199 82 l 476 89 l 488 164 q 519 210 492 199 q 575 214 547 222 l 575 0 m 551 944 l 367 772 q 268 772 318 760 l 79 944 q 124 992 97 975 l 315 871 l 506 992 q 551 944 532 976 z "},"ſ":{"ha":508,"x_min":50,"x_max":535,"o":"m 151 693 l 151 694 q 216 922 151 840 q 394 1006 281 1003 q 535 918 535 1006 q 509 858 535 878 q 442 838 483 838 q 422 900 442 879 q 374 921 403 921 q 293 751 293 921 l 293 86 l 428 78 q 374 0 435 0 l 50 0 q 50 11 50 0 q 104 81 50 75 l 151 83 l 151 608 l 53 608 q 110 693 53 693 l 151 693 z "},"ƒ":{"ha":643,"x_min":63,"x_max":601,"o":"m 458 1010 q 560 989 518 1011 q 601 923 601 967 q 575 858 601 879 q 508 838 549 838 q 443 925 507 925 q 321 738 347 925 l 314 692 l 456 692 l 449 608 l 301 608 l 196 -121 l 69 -117 l 171 608 l 63 608 l 69 692 l 183 692 l 189 732 q 285 944 210 881 q 458 1010 360 1008 z "},"Ș":{"ha":721,"x_min":35,"x_max":682,"o":"m 682 290 q 585 67 682 156 q 326 -21 489 -21 q 123 24 211 -21 q 35 153 35 69 q 65 230 35 200 q 157 260 96 260 q 349 74 169 74 q 500 119 444 74 q 556 239 556 165 q 494 356 556 311 q 433 393 461 379 q 349 431 406 407 q 263 469 292 456 q 192 510 235 483 q 128 561 149 536 q 75 708 75 625 q 167 899 75 832 q 388 968 258 967 q 597 903 519 971 q 639 808 639 864 q 607 724 639 751 q 525 703 575 697 q 365 874 525 874 q 247 840 293 874 q 201 747 201 807 q 228 672 201 701 q 246 653 239 661 q 270 635 253 646 q 296 619 288 625 q 326 603 304 614 q 356 589 347 593 q 425 560 396 575 q 624 444 565 499 q 682 290 682 390 m 305 -65 q 318 -52 305 -65 q 374 -39 331 -39 q 443 -66 417 -39 q 469 -151 469 -93 q 422 -281 469 -208 q 321 -376 374 -354 q 298 -368 313 -381 q 283 -347 283 -356 q 360 -229 339 -308 q 301 -198 324 -225 q 279 -131 279 -171 q 305 -65 279 -92 z "},"ș":{"ha":582,"x_min":33,"x_max":549,"o":"m 290 72 q 321 71 290 72 q 390 94 353 71 q 428 163 428 118 q 394 232 428 208 q 296 281 361 256 q 197 323 231 307 q 128 365 164 339 q 56 512 56 418 q 133 660 56 606 q 303 714 211 714 q 455 684 396 714 q 514 590 514 654 q 485 523 514 546 q 414 506 456 500 q 378 589 415 556 q 287 623 340 622 q 202 601 233 624 q 171 543 171 579 q 210 482 171 507 q 322 428 250 457 q 422 385 393 400 q 485 344 451 369 q 548 204 549 297 q 472 44 547 111 q 267 -21 396 -22 q 103 16 174 -19 q 33 118 33 51 q 64 185 35 161 q 133 208 93 208 q 185 108 143 144 q 290 72 226 72 m 249 -82 q 262 -69 249 -82 q 318 -56 275 -56 q 388 -83 361 -56 q 414 -167 414 -110 q 366 -298 414 -225 q 265 -393 318 -371 q 242 -385 257 -397 q 228 -364 228 -372 q 304 -246 283 -325 q 246 -215 268 -242 q 224 -148 224 -187 q 249 -82 224 -108 z "},"Ț":{"ha":865,"x_min":28,"x_max":838,"o":"m 28 947 l 838 947 l 838 763 q 806 715 838 724 q 760 710 785 710 l 747 856 l 506 856 l 506 88 l 617 79 q 564 0 625 0 l 247 0 l 247 11 q 301 82 247 76 l 361 85 l 361 856 l 118 856 l 107 710 q 36 731 50 710 q 28 763 28 743 l 28 947 m 385 -65 q 398 -52 385 -65 q 454 -39 411 -39 q 524 -66 497 -39 q 550 -151 550 -93 q 502 -281 550 -208 q 401 -376 454 -354 q 378 -368 393 -381 q 364 -347 364 -356 q 440 -229 419 -308 q 382 -198 404 -225 q 360 -131 360 -171 q 385 -65 360 -92 z "},"ț":{"ha":551,"x_min":14,"x_max":533,"o":"m 265 608 l 265 214 q 343 89 265 89 q 428 102 393 89 q 507 150 463 115 q 524 133 514 149 q 533 101 533 118 q 461 16 533 53 q 314 -21 389 -21 q 163 42 203 -21 q 124 215 124 104 l 124 608 l 14 608 q 71 693 14 693 l 124 693 l 124 865 l 265 886 l 265 693 l 519 693 q 515 654 522 675 q 469 608 504 611 l 265 608 m 241 -82 q 254 -69 241 -82 q 310 -56 267 -56 q 379 -83 353 -56 q 406 -167 406 -110 q 358 -298 406 -225 q 257 -393 310 -371 q 234 -385 249 -397 q 219 -364 219 -372 q 296 -246 275 -325 q 238 -215 260 -242 q 215 -148 215 -187 q 241 -82 215 -108 z "},"ˆ":{"ha":833,"x_min":138,"x_max":610,"o":"m 425 968 l 610 796 q 564 749 590 764 l 374 869 l 182 749 q 138 796 156 765 l 326 968 q 425 968 376 981 z "},"ˇ":{"ha":833,"x_min":138,"x_max":610,"o":"m 374 871 l 564 992 q 610 944 590 976 l 425 772 q 326 772 376 760 l 138 944 q 182 992 156 975 l 374 871 z "},"ˉ":{"ha":833,"x_min":161,"x_max":554,"o":"m 161 893 l 554 893 l 554 803 l 161 803 l 161 893 z "},"˘":{"ha":833,"x_min":174,"x_max":621,"o":"m 399 871 q 572 983 525 871 l 621 958 q 553 822 610 879 q 397 764 496 764 q 241 822 297 764 q 174 958 185 879 l 222 983 q 283 906 240 942 q 399 871 326 871 z "},"˙":{"ha":561,"x_min":133,"x_max":313,"o":"m 313 893 q 313 874 313 893 q 287 828 313 854 q 223 803 261 803 q 159 828 185 803 q 133 893 133 854 q 159 958 133 932 q 223 983 185 983 q 287 958 261 983 q 313 893 313 932 z "},"˚":{"ha":561,"x_min":97,"x_max":357,"o":"m 272 926 q 264 934 272 926 q 228 942 256 942 q 183 926 200 942 q 167 882 167 910 q 183 838 167 854 q 228 821 200 821 q 272 838 256 821 q 289 882 289 854 q 272 926 289 910 m 97 881 q 97 908 97 881 q 134 972 97 936 q 230 1007 171 1007 q 324 973 289 1007 q 357 883 358 939 q 319 793 356 828 q 226 758 283 758 q 133 792 168 758 q 97 881 97 825 z "},"˛":{"ha":610,"x_min":164,"x_max":408,"o":"m 261 -93 q 324 -160 261 -160 q 399 -131 360 -160 q 408 -153 404 -135 q 408 -182 411 -171 q 305 -229 375 -229 q 199 -198 235 -229 q 164 -110 164 -167 q 215 -6 164 -54 q 333 61 265 42 l 356 28 q 261 -93 261 -12 z "},"˜":{"ha":736,"x_min":115,"x_max":589,"o":"m 160 792 l 115 810 q 167 926 128 883 q 256 968 207 969 q 362 926 306 967 q 456 886 418 886 q 546 956 526 885 l 589 942 q 435 778 564 775 q 322 816 382 779 q 237 853 263 853 q 190 836 211 854 q 160 792 168 818 z "},"˝":{"ha":767,"x_min":201,"x_max":758,"o":"m 536 868 l 254 717 q 201 768 217 735 l 433 953 q 494 921 463 949 q 536 868 525 893 m 758 863 l 476 711 q 424 763 439 729 l 656 947 q 716 915 685 943 q 758 863 747 888 z "},"̦":{"ha":0,"x_min":-383,"x_max":-193,"o":"m -358 -82 q -345 -69 -358 -82 q -289 -56 -332 -56 q -219 -83 -246 -56 q -193 -167 -193 -110 q -241 -298 -193 -225 q -342 -393 -289 -371 q -365 -385 -350 -397 q -379 -364 -379 -372 q -303 -246 -324 -325 q -361 -215 -339 -242 q -383 -148 -383 -187 q -358 -82 -383 -108 z "},"π":{"ha":899,"x_min":14,"x_max":885,"o":"m 201 0 l 226 579 l 193 579 q 117 565 143 579 q 72 519 92 551 l 14 554 q 222 693 74 693 l 715 693 q 784 705 758 693 q 835 746 810 717 l 885 706 q 831 627 875 671 q 718 576 788 583 q 715 90 715 411 l 818 78 q 789 10 818 38 q 696 -18 760 -18 q 607 15 632 -18 q 582 113 582 49 q 590 576 588 439 l 363 578 l 339 0 l 201 0 z "},"ँ":{"ha":0,"x_min":-521,"x_max":57,"o":"m -300 1286 q -281 1303 -300 1286 q -246 1319 -261 1319 q -199 1281 -231 1319 q -167 1228 -167 1242 q -204 1179 -167 1214 q -257 1144 -242 1144 q -306 1183 -272 1144 q -339 1237 -339 1221 q -300 1286 -339 1253 m -229 942 q -521 1101 -390 942 q -475 1156 -503 1136 q -376 1086 -421 1107 q -279 1065 -332 1065 q -36 1207 -133 1065 q 57 1101 31 1169 q -58 994 21 1047 q -229 942 -137 942 z "},"ं":{"ha":0,"x_min":-297,"x_max":-121,"o":"m -159 995 q -178 979 -159 995 q -214 963 -197 963 q -264 1001 -231 963 q -297 1056 -297 1039 q -258 1106 -297 1072 q -204 1139 -219 1139 q -155 1099 -189 1139 q -121 1043 -121 1058 q -159 995 -121 1028 z "},"ः":{"ha":424,"x_min":93,"x_max":268,"o":"m 230 499 q 211 483 230 499 q 175 467 192 467 q 126 504 158 467 q 93 558 93 542 q 131 608 93 575 q 185 640 169 640 q 234 601 200 640 q 268 547 268 563 q 230 499 268 532 m 230 103 q 211 87 230 103 q 175 71 192 71 q 126 108 158 71 q 93 162 93 146 q 131 211 93 178 q 185 244 169 244 q 234 206 200 244 q 268 151 268 167 q 230 103 268 136 z "},"अ":{"ha":1043,"x_min":8,"x_max":1100,"o":"m 1100 735 l 907 735 l 907 -28 q 814 -10 860 -28 q 768 29 768 7 l 768 321 q 656 307 717 307 l 635 307 l 635 290 q 580 142 635 201 q 424 82 525 82 q 177 187 286 82 q 8 446 68 292 q 82 488 31 475 q 218 280 147 350 q 383 210 289 210 q 478 239 446 210 q 511 315 511 268 q 482 393 511 363 q 401 424 453 424 q 314 406 349 424 q 274 460 294 422 q 247 522 253 497 q 411 601 361 551 q 461 696 461 650 q 386 757 461 757 q 199 668 294 757 q 154 727 178 688 q 125 793 131 767 q 331 874 226 874 q 501 818 436 874 q 565 672 565 763 q 471 500 565 561 q 604 407 563 474 q 768 454 694 417 l 768 735 l 656 735 q 611 858 611 790 l 1056 858 q 1100 735 1100 804 z "},"आ":{"ha":1431,"x_min":8,"x_max":1489,"o":"m 1489 735 l 1296 735 l 1296 -28 q 1202 -10 1247 -28 q 1157 29 1157 7 l 1157 735 l 907 735 l 907 -28 q 814 -10 860 -28 q 768 29 768 7 l 768 321 q 656 307 717 307 l 635 307 l 635 290 q 580 142 635 201 q 424 82 525 82 q 177 187 286 82 q 8 446 68 292 q 82 488 31 475 q 218 280 147 350 q 383 210 289 210 q 478 239 446 210 q 511 315 511 268 q 482 393 511 363 q 401 424 453 424 q 314 406 349 424 q 274 460 294 422 q 247 522 253 497 q 411 601 361 551 q 461 696 461 650 q 386 757 461 757 q 199 668 294 757 q 154 727 178 688 q 125 793 131 767 q 331 874 226 874 q 501 818 436 874 q 565 672 565 763 q 471 500 565 561 q 604 407 563 474 q 768 454 694 417 l 768 735 l 656 735 q 611 858 611 790 l 1444 858 q 1489 735 1489 804 z "},"इ":{"ha":689,"x_min":-58,"x_max":747,"o":"m 499 515 l 372 519 q 224 499 268 519 q 179 424 179 479 q 191 378 179 392 q 215 365 203 365 q 325 392 226 365 q 464 418 424 418 q 589 347 540 418 q 638 197 638 275 q 554 55 638 119 q 332 -10 471 -10 l 318 -10 q 444 -167 410 -108 q 397 -210 436 -182 q 336 -246 358 -239 q 215 8 253 -49 q 107 58 150 26 q 64 127 64 89 q 92 192 64 165 q 149 219 119 219 q 256 115 201 219 q 332 104 285 104 q 483 150 418 104 q 547 247 547 196 q 501 297 547 297 q 390 270 478 297 q 272 243 301 243 q 139 312 207 243 q 71 466 71 381 q 123 594 71 551 q 268 638 175 638 l 421 638 l 421 735 l -14 735 q -58 858 -58 790 l 703 858 q 747 735 747 804 l 560 735 l 560 590 q 538 542 560 568 q 499 515 515 515 z "},"ई":{"ha":689,"x_min":-58,"x_max":747,"o":"m 499 515 l 372 519 q 224 499 268 519 q 179 424 179 479 q 191 378 179 392 q 215 365 203 365 q 325 392 226 365 q 464 418 424 418 q 589 347 540 418 q 638 197 638 275 q 554 55 638 119 q 332 -10 471 -10 l 318 -10 q 444 -167 410 -108 q 397 -210 436 -182 q 336 -246 358 -239 q 215 8 253 -49 q 107 58 150 26 q 64 127 64 89 q 92 192 64 165 q 149 219 119 219 q 256 115 201 219 q 332 104 285 104 q 483 150 418 104 q 547 247 547 196 q 501 297 547 297 q 390 270 478 297 q 272 243 301 243 q 139 312 207 243 q 71 466 71 381 q 123 594 71 551 q 268 638 175 638 l 421 638 l 421 735 l -14 735 q -58 858 -58 790 l 446 858 q 339 1064 339 957 q 401 1210 339 1149 q 547 1271 463 1271 q 677 1232 632 1271 q 738 1138 722 1193 l 700 1111 q 589 1164 650 1164 q 496 1127 528 1164 q 464 1029 464 1090 q 538 858 464 938 l 703 858 q 747 735 747 804 l 560 735 l 560 590 q 538 542 560 568 q 499 515 515 515 z "},"उ":{"ha":754,"x_min":-58,"x_max":813,"o":"m 813 735 l 593 735 q 639 625 639 685 q 532 440 639 515 q 662 363 613 421 q 711 212 711 304 q 647 51 711 119 q 468 -17 582 -17 q 13 429 192 -17 q 88 468 39 456 q 248 209 165 300 q 433 118 331 118 q 538 153 499 118 q 576 244 576 189 q 540 332 576 300 q 456 364 504 364 q 351 347 407 364 q 319 399 338 363 q 296 463 300 435 q 401 500 342 469 q 517 639 517 558 q 472 735 517 694 l -14 735 q -58 858 -58 790 l 768 858 q 813 735 813 804 z "},"ऊ":{"ha":1103,"x_min":-58,"x_max":1163,"o":"m 1163 735 l 592 735 q 638 617 638 681 q 531 440 638 517 q 629 393 585 428 q 836 499 718 499 q 1001 428 932 499 q 1069 265 1069 358 q 1024 100 1069 171 q 915 -11 979 29 q 856 38 883 7 q 815 96 828 68 q 916 186 869 126 q 963 294 963 246 q 937 367 963 343 q 871 392 911 392 q 701 278 793 392 q 708 219 708 247 q 644 51 708 119 q 465 -17 579 -17 q 10 429 189 -17 q 85 468 36 456 q 245 209 163 300 q 432 118 328 118 q 535 153 496 118 q 574 244 574 189 q 538 332 574 300 q 453 364 501 364 q 349 347 404 364 q 317 398 336 361 q 294 463 299 435 q 399 500 339 471 q 515 639 515 560 q 471 735 515 694 l -14 735 q -58 858 -58 790 l 1118 858 q 1163 735 1163 804 z "},"ऋ":{"ha":976,"x_min":-53,"x_max":1035,"o":"m 567 735 l 567 463 q 715 482 661 463 q 699 541 699 511 q 735 601 699 571 q 803 632 772 632 q 853 602 833 632 q 874 537 874 572 q 831 463 874 501 q 914 361 885 410 q 943 250 943 313 q 806 32 943 124 q 719 122 747 63 q 840 279 840 192 q 768 418 840 340 q 567 353 683 372 l 567 -28 q 473 -10 518 -28 q 428 29 428 7 l 428 278 l 158 101 q 90 208 119 138 l 418 417 q 254 494 326 494 q 82 429 182 494 q 14 554 33 490 q 203 617 94 617 q 428 507 311 617 l 428 735 l -8 735 q -53 858 -53 790 l 990 858 q 1035 735 1035 804 l 567 735 z "},"ऌ":{"ha":988,"x_min":-60,"x_max":1047,"o":"m 767 735 l 767 606 q 860 535 826 583 q 894 422 894 488 q 889 376 894 393 q 881 351 883 360 q 870 328 878 342 q 859 308 863 315 q 847 288 856 301 q 834 271 838 275 q 820 252 831 267 q 805 231 810 238 q 780 199 800 224 q 750 161 760 175 q 721 99 721 126 q 768 64 721 64 q 901 151 829 64 q 985 50 968 94 q 906 -15 957 10 q 790 -39 856 -39 q 669 11 725 -39 q 614 128 614 61 q 626 187 614 165 q 642 215 639 208 q 656 235 644 221 q 669 253 667 250 q 685 274 672 257 q 722 321 699 290 q 786 440 786 400 q 704 518 786 518 q 606 476 647 518 q 546 383 564 433 q 519 272 528 332 q 455 296 496 275 q 406 329 414 317 q 422 407 410 365 q 367 470 404 443 q 280 497 331 497 q 198 459 229 497 q 167 348 167 421 q 222 206 167 275 q 381 56 278 136 q 326 -14 356 11 q 33 407 33 196 q 101 567 33 511 q 251 624 168 624 q 385 580 335 624 q 457 488 436 536 q 628 619 518 600 l 628 735 l -15 735 q -60 858 -60 790 l 1003 858 q 1047 735 1047 801 l 767 735 z "},"ऍ":{"ha":797,"x_min":-60,"x_max":856,"o":"m 634 67 q 652 51 634 67 q 685 2 671 35 q 699 -73 699 -31 q 683 -155 699 -115 q 649 -217 667 -194 q 596 -275 631 -240 q 504 -172 546 -242 q 597 -86 597 -124 q 507 4 597 -58 q 388 83 419 64 q 329 120 357 103 q 288 146 301 138 q 124 443 124 249 l 124 735 l -15 735 q -60 858 -60 790 l 811 858 q 856 735 856 804 l 675 735 l 675 468 q 507 247 675 308 q 468 298 490 260 q 439 364 446 336 q 509 399 483 378 q 535 461 535 421 l 535 735 l 263 735 l 260 419 q 286 310 260 347 q 403 219 313 274 q 488 169 425 206 q 574 115 550 132 q 634 67 597 99 m 706 1165 q 590 1026 668 1085 q 407 967 511 967 q 228 1028 303 967 q 114 1181 153 1089 q 192 1225 138 1203 q 385 1083 272 1083 q 585 1244 514 1083 q 706 1165 654 1219 z "},"ऎ":{"ha":797,"x_min":-60,"x_max":856,"o":"m 634 67 q 652 51 634 67 q 685 2 671 35 q 699 -73 699 -31 q 683 -155 699 -115 q 649 -217 667 -194 q 596 -275 631 -240 q 504 -172 546 -242 q 597 -86 597 -124 q 507 4 597 -58 q 388 83 419 64 q 329 120 357 103 q 288 146 301 138 q 124 443 124 249 l 124 735 l -15 735 q -60 858 -60 790 l 574 858 q 588 908 588 883 q 523 972 588 947 q 375 1007 458 996 q 199 1044 292 1018 q 61 1110 106 1069 q -22 1282 -1 1169 l 33 1304 q 111 1204 67 1226 q 344 1142 156 1182 q 585 1078 533 1103 q 676 953 676 1035 q 654 858 676 906 l 811 858 q 856 735 856 804 l 675 735 l 675 468 q 507 247 675 308 q 468 298 490 260 q 439 364 446 336 q 509 399 483 378 q 535 461 535 421 l 535 735 l 263 735 l 260 419 q 286 310 260 347 q 403 219 313 274 q 488 169 425 206 q 574 115 550 132 q 634 67 597 99 z "},"ए":{"ha":797,"x_min":-60,"x_max":856,"o":"m 634 67 q 652 51 634 67 q 685 2 671 35 q 699 -73 699 -31 q 683 -155 699 -115 q 649 -217 667 -194 q 596 -275 631 -240 q 504 -172 546 -242 q 597 -86 597 -124 q 507 4 597 -58 q 388 83 419 64 q 329 120 357 103 q 288 146 301 138 q 124 443 124 249 l 124 735 l -15 735 q -60 858 -60 790 l 811 858 q 856 735 856 804 l 675 735 l 675 468 q 507 247 675 308 q 468 298 490 260 q 439 364 446 336 q 509 399 483 378 q 535 461 535 421 l 535 735 l 263 735 l 260 419 q 286 310 260 347 q 403 219 313 274 q 488 169 425 206 q 574 115 550 132 q 634 67 597 99 z "},"ऐ":{"ha":813,"x_min":-51,"x_max":863,"o":"m 641 67 q 659 51 641 67 q 692 2 678 35 q 706 -83 706 -31 q 680 -180 706 -136 q 603 -275 654 -224 q 513 -172 550 -240 q 604 -86 604 -122 q 573 -40 604 -65 q 521 0 542 -15 q 466 38 500 15 q 410 74 432 60 q 349 113 388 89 q 296 146 311 136 q 131 443 131 247 l 131 735 l -7 735 q -51 858 -51 790 l 540 858 q 481 971 513 919 q 394 1070 449 1022 q 285 1118 339 1118 q 169 1104 232 1118 q 81 1079 107 1090 q 58 1135 74 1090 q 40 1203 43 1181 q 128 1228 64 1214 q 247 1242 193 1242 q 358 1213 300 1242 q 458 1142 415 1185 q 540 1044 501 1100 q 644 858 608 950 l 819 858 q 863 735 863 803 l 682 735 l 682 468 q 514 247 682 308 q 476 299 497 261 q 447 364 454 336 q 516 399 490 378 q 542 461 542 421 l 542 735 l 269 735 l 268 419 q 294 310 268 347 q 410 219 319 274 q 494 169 432 206 q 581 115 557 132 q 641 67 604 99 z "},"ऑ":{"ha":1414,"x_min":8,"x_max":1472,"o":"m 1472 735 l 1279 735 l 1279 -28 q 1185 -10 1231 -28 q 1140 29 1140 7 l 1140 735 l 907 735 l 907 -28 q 814 -10 860 -28 q 768 29 768 7 l 768 321 q 656 307 717 307 l 635 307 l 635 290 q 580 142 635 201 q 424 82 525 82 q 177 187 286 82 q 8 446 68 292 q 82 488 31 475 q 218 280 147 350 q 383 210 289 210 q 478 239 446 210 q 511 315 511 268 q 482 393 511 363 q 401 424 453 424 q 314 406 349 424 q 274 460 294 422 q 247 522 253 497 q 411 601 361 551 q 461 696 461 650 q 386 757 461 757 q 199 668 294 757 q 154 727 178 688 q 125 793 131 767 q 331 874 226 874 q 501 818 436 874 q 565 672 565 763 q 471 500 565 561 q 604 407 563 474 q 768 454 694 417 l 768 735 l 656 735 q 611 858 611 790 l 1428 858 q 1472 735 1472 804 m 1331 1158 q 1213 1019 1292 1078 q 1031 961 1135 961 q 851 1022 926 961 q 738 1175 776 1083 q 815 1219 761 1197 q 1008 1078 894 1078 q 1210 1239 1138 1078 q 1331 1158 1278 1211 z "},"ऒ":{"ha":1414,"x_min":8,"x_max":1472,"o":"m 1472 735 l 1279 735 l 1279 -28 q 1185 -10 1231 -28 q 1140 29 1140 7 l 1140 735 l 907 735 l 907 -28 q 814 -10 860 -28 q 768 29 768 7 l 768 321 q 656 307 717 307 l 635 307 l 635 290 q 580 142 635 201 q 424 82 525 82 q 177 187 286 82 q 8 446 68 292 q 82 488 31 475 q 218 280 147 350 q 383 210 289 210 q 478 239 446 210 q 511 315 511 268 q 482 393 511 363 q 401 424 453 424 q 314 406 349 424 q 274 460 294 422 q 247 522 253 497 q 411 601 361 551 q 461 696 461 650 q 386 757 461 757 q 199 668 294 757 q 154 727 178 688 q 125 793 131 767 q 331 874 226 874 q 501 818 436 874 q 565 672 565 763 q 471 500 565 561 q 604 407 563 474 q 768 454 694 417 l 768 735 l 656 735 q 611 858 611 790 l 1174 858 q 1188 908 1188 883 q 1123 972 1188 947 q 976 1007 1058 996 q 799 1044 893 1018 q 663 1110 706 1069 q 578 1282 601 1165 l 633 1304 q 714 1203 672 1224 q 944 1142 756 1182 q 1185 1078 1133 1103 q 1276 953 1276 1035 q 1256 858 1276 908 l 1428 858 q 1472 735 1472 804 z "},"ओ":{"ha":1418,"x_min":11,"x_max":1476,"o":"m 1476 735 l 1282 735 l 1282 -28 q 1189 -10 1235 -28 q 1143 29 1143 7 l 1143 735 l 911 735 l 911 -28 q 817 -10 863 -28 q 772 29 772 7 l 772 321 q 658 307 721 307 l 639 307 l 639 290 q 584 141 639 200 q 426 82 529 82 q 181 187 289 82 q 11 446 72 292 q 85 488 36 475 q 221 280 150 350 q 386 210 292 210 q 481 239 449 210 q 514 315 514 268 q 485 393 514 363 q 403 424 456 424 q 317 406 351 424 q 276 460 297 422 q 250 522 256 497 q 414 601 364 551 q 464 696 464 650 q 389 757 464 757 q 203 668 299 757 q 158 726 182 686 q 128 793 135 767 q 335 874 231 874 q 504 818 440 874 q 568 672 568 763 q 474 500 568 560 q 607 407 564 475 q 772 454 699 417 l 772 735 l 658 735 q 614 858 614 790 l 1133 858 q 867 1118 1015 1118 q 761 1104 819 1118 q 675 1079 703 1090 q 653 1135 668 1090 q 635 1203 638 1181 q 722 1227 657 1213 q 840 1242 788 1242 q 951 1213 893 1242 q 1053 1142 1010 1185 q 1136 1044 1097 1100 q 1239 858 1200 954 l 1432 858 q 1476 735 1476 801 z "},"औ":{"ha":1415,"x_min":8,"x_max":1472,"o":"m 1472 735 l 1279 735 l 1279 -28 q 1185 -10 1231 -28 q 1140 29 1140 7 l 1140 735 l 907 735 l 907 -28 q 814 -10 860 -28 q 768 29 768 7 l 768 321 q 656 307 717 307 l 635 307 l 635 290 q 580 142 635 201 q 424 82 525 82 q 177 187 286 82 q 8 446 68 292 q 82 488 31 475 q 218 280 147 350 q 383 210 289 210 q 478 239 446 210 q 511 315 511 268 q 482 393 511 363 q 401 424 453 424 q 314 406 349 424 q 274 460 294 422 q 247 522 253 497 q 411 601 361 551 q 461 696 461 650 q 386 757 461 757 q 199 668 294 757 q 154 727 178 688 q 125 793 131 767 q 331 874 226 874 q 501 818 436 874 q 565 672 565 763 q 471 500 565 561 q 604 407 563 474 q 768 454 694 417 l 768 735 l 656 735 q 611 858 611 790 l 1110 858 q 926 967 1015 967 q 835 943 883 967 q 765 899 788 919 q 731 945 754 907 q 700 1010 708 983 q 778 1056 726 1035 q 881 1078 831 1078 q 1106 958 979 1078 q 901 1157 999 1157 q 744 1093 833 1157 q 714 1146 736 1103 q 683 1218 692 1189 q 770 1256 717 1239 q 880 1274 824 1274 q 996 1233 936 1274 q 1100 1126 1056 1192 q 1224 858 1182 1003 l 1428 858 q 1472 735 1472 804 z "},"क":{"ha":1046,"x_min":-58,"x_max":1100,"o":"m 622 735 l 622 542 q 783 600 692 600 q 938 531 874 600 q 1003 351 1003 463 q 856 101 1003 193 q 764 204 803 136 q 863 297 822 242 q 904 399 904 351 q 878 470 904 447 q 814 493 853 493 q 622 367 721 493 l 622 -28 q 528 -10 574 -28 q 483 29 483 7 l 483 186 q 300 136 404 136 q 118 215 196 136 q 40 398 40 293 q 114 565 40 503 q 291 626 188 626 q 483 572 394 626 l 483 735 l -14 735 q -58 858 -58 790 l 1057 858 q 1100 735 1100 803 l 622 735 m 483 474 q 340 514 415 514 q 216 474 264 514 q 168 365 168 433 q 205 265 168 297 q 296 233 242 233 q 483 326 397 233 l 483 474 z "},"ख":{"ha":1111,"x_min":-58,"x_max":1169,"o":"m 1169 735 l 976 735 l 976 -28 q 883 -10 928 -28 q 838 29 838 7 l 838 183 q 693 143 771 143 q 499 221 576 143 q 421 403 421 299 q 493 563 421 507 q 660 618 565 618 q 838 572 756 618 l 838 735 l 333 735 q 351 569 351 653 q 169 269 351 286 q 347 120 224 178 q 619 36 471 63 q 579 -76 610 -26 q 359 -15 464 -65 q 185 101 254 36 q 76 236 117 167 q 36 360 36 306 q 164 468 36 468 q 235 460 185 468 q 242 514 242 479 q 190 735 242 628 l -14 735 q -58 858 -58 790 l 1125 858 q 1169 735 1169 804 m 838 488 q 703 511 776 511 q 585 472 629 511 q 542 367 542 432 q 578 271 542 301 q 664 240 615 240 q 838 318 760 240 l 838 488 z "},"ग":{"ha":815,"x_min":-58,"x_max":872,"o":"m 872 735 l 679 735 l 679 -28 q 585 -10 631 -28 q 540 29 540 7 l 540 735 l 304 735 l 304 397 q 264 250 304 286 q 210 231 244 231 q 98 301 160 231 q 36 410 36 371 q 46 461 36 450 q 165 497 69 497 l 165 735 l -14 735 q -58 858 -58 790 l 829 858 q 872 735 872 803 z "},"घ":{"ha":853,"x_min":-58,"x_max":911,"o":"m 911 735 l 717 735 l 717 -28 q 624 -10 669 -28 q 579 29 579 7 l 579 186 q 378 133 485 133 q 199 192 271 133 q 126 338 126 251 q 183 485 126 425 q 49 658 49 531 q 67 735 49 704 l -14 735 q -58 858 -58 790 l 867 858 q 911 735 911 801 m 579 735 l 204 735 q 179 658 179 706 q 208 583 179 611 q 274 546 236 554 q 381 581 322 567 q 447 478 433 528 q 313 425 369 460 q 257 345 257 390 q 288 273 257 300 q 375 246 319 246 q 579 346 490 246 l 579 735 z "},"ङ":{"ha":858,"x_min":-58,"x_max":917,"o":"m 702 498 q 723 516 702 498 q 760 533 743 533 q 812 492 776 533 q 847 434 847 450 q 807 383 847 418 q 749 347 767 347 q 697 388 732 347 q 661 445 661 428 q 702 498 661 463 m 542 514 l 417 518 q 267 497 313 518 q 221 417 221 475 q 258 358 221 358 q 366 385 268 358 q 510 413 464 413 q 629 340 581 413 q 678 200 678 268 q 601 42 678 104 q 415 -19 524 -19 q 209 38 307 -19 q 35 201 111 96 q 94 257 49 240 q 376 99 228 99 q 528 142 469 99 q 588 238 588 186 q 540 290 588 290 q 431 263 519 290 q 308 236 342 236 q 179 306 247 236 q 111 463 111 375 q 163 592 111 550 q 308 635 215 635 l 463 635 l 463 735 l -14 735 q -58 858 -58 790 l 872 858 q 917 735 917 801 l 601 735 l 601 592 q 578 543 601 572 q 542 514 556 514 z "},"च":{"ha":893,"x_min":-58,"x_max":951,"o":"m 951 735 l 757 735 l 757 -28 q 664 -10 710 -28 q 618 29 618 7 l 618 199 q 422 140 532 140 q 235 215 311 140 q 160 382 160 289 q 203 496 160 453 l 54 496 q 10 619 11 551 l 490 619 q 535 496 533 563 l 486 496 q 347 462 408 496 q 285 361 285 428 q 324 284 285 311 q 419 257 363 257 q 618 351 539 257 l 618 735 l -14 735 q -58 858 -58 790 l 907 858 q 951 735 951 801 z "},"छ":{"ha":957,"x_min":-58,"x_max":997,"o":"m 753 735 l 753 661 q 859 559 821 631 q 897 393 897 488 q 768 87 897 206 q 444 -32 639 -32 q 228 31 307 -32 q 149 189 149 93 q 203 317 149 264 q 88 392 129 342 q 47 509 47 442 q 98 625 47 576 q 231 674 149 674 q 353 628 314 674 q 403 531 393 582 q 363 511 386 518 q 274 571 326 571 q 199 546 222 571 q 175 481 175 521 q 204 411 175 442 q 274 372 233 381 q 390 414 338 406 q 457 306 438 368 q 338 267 390 300 q 286 183 286 235 q 324 103 286 131 q 431 76 361 76 q 679 177 571 76 q 788 431 788 278 q 761 540 788 506 q 701 574 735 574 q 643 551 667 574 q 619 479 619 528 q 699 347 619 406 q 663 292 692 313 q 486 506 486 367 q 526 621 486 574 q 633 678 565 668 l 633 735 l -14 735 q -58 858 -58 790 l 953 858 q 997 735 997 801 l 753 735 z "},"ज":{"ha":1057,"x_min":-53,"x_max":1114,"o":"m 1114 735 l 921 735 l 921 -28 q 828 -10 874 -28 q 782 29 782 7 l 782 458 l 544 458 q 628 253 628 360 q 580 128 628 174 q 455 82 532 82 q 312 124 378 82 q 197 238 246 165 q 49 578 103 375 q 133 608 82 601 q 196 427 160 510 q 292 279 232 344 q 419 214 351 214 q 486 236 460 214 q 513 304 513 258 q 404 511 513 388 q 427 553 410 529 q 454 582 444 578 l 782 582 l 782 735 l -8 735 q -53 858 -53 790 l 1069 858 q 1114 735 1114 804 z "},"झ":{"ha":1013,"x_min":-58,"x_max":1071,"o":"m 1071 735 l 878 735 l 878 -28 q 784 -10 829 -28 q 739 29 739 7 l 739 279 q 614 261 678 261 q 622 206 622 232 q 538 55 622 119 q 315 -10 454 -10 l 303 -10 q 428 -167 397 -112 q 382 -210 421 -182 q 321 -246 343 -239 q 297 -190 314 -232 q 267 -121 279 -149 q 199 8 228 -35 q 90 58 133 26 q 47 127 47 89 q 78 192 47 165 q 136 219 108 219 q 192 185 164 219 q 239 115 221 151 q 317 104 271 104 q 467 150 403 104 q 532 247 532 196 q 485 297 532 297 q 373 270 461 297 q 256 243 285 243 q 124 312 192 243 q 56 466 56 381 q 107 594 56 551 q 251 638 158 638 l 406 638 l 406 735 l -14 735 q -58 858 -58 790 l 1028 858 q 1071 735 1071 803 m 483 515 l 357 519 q 208 499 251 519 q 164 424 164 479 q 176 378 164 392 q 199 365 188 365 q 310 392 211 365 q 449 418 408 418 q 564 358 517 418 q 739 413 660 368 l 739 735 l 544 735 l 544 590 q 522 542 544 569 q 483 515 500 515 z "},"ञ":{"ha":1040,"x_min":-58,"x_max":1099,"o":"m 1099 735 l 904 735 l 904 -28 q 811 -10 857 -28 q 765 29 765 7 l 765 322 q 700 313 736 315 q 615 181 683 231 q 459 132 546 132 q 296 169 372 132 q 164 264 219 206 q 6 483 51 378 q 35 510 11 493 q 72 532 60 528 q 244 319 164 388 q 424 251 324 251 q 521 283 479 251 q 563 375 563 314 q 464 501 563 501 q 293 424 385 501 q 252 478 275 442 q 219 544 229 514 q 308 587 249 568 q 426 606 367 606 q 601 553 525 606 q 699 414 678 501 q 765 436 731 419 l 765 735 l -14 735 q -58 858 -58 790 l 1054 858 q 1099 735 1099 801 z "},"ट":{"ha":731,"x_min":-58,"x_max":788,"o":"m 576 735 l 576 560 q 558 521 575 540 q 528 493 542 501 q 438 499 490 499 q 240 450 311 499 q 169 311 169 401 q 228 178 169 221 q 372 135 286 135 q 635 268 528 135 q 721 172 694 229 q 582 66 667 108 q 393 24 497 24 q 144 113 242 24 q 46 331 46 201 q 138 539 46 461 q 371 617 229 617 q 439 613 404 617 l 439 735 l -14 735 q -58 858 -58 790 l 744 858 q 788 735 788 803 l 576 735 z "},"ठ":{"ha":801,"x_min":-58,"x_max":861,"o":"m 569 735 l 569 593 q 712 494 660 561 q 764 328 764 428 q 665 108 764 190 q 410 26 565 26 q 151 116 254 26 q 47 339 47 206 q 145 545 47 472 q 406 618 243 618 l 432 618 l 432 735 l -14 735 q -58 858 -58 790 l 817 858 q 861 735 861 804 l 569 735 m 171 315 q 171 272 171 315 q 228 179 171 228 q 392 131 285 131 q 578 193 500 131 q 656 351 656 256 q 447 504 656 504 q 250 453 329 504 q 171 315 171 403 z "},"ड":{"ha":718,"x_min":-58,"x_max":778,"o":"m 557 514 l 424 518 q 268 497 315 518 q 221 417 221 475 q 258 358 221 358 q 369 385 268 358 q 515 413 469 413 q 636 340 588 413 q 685 200 685 268 q 608 42 685 104 q 419 -19 531 -19 q 210 38 308 -19 q 35 201 111 96 q 94 257 49 240 q 376 99 228 99 q 533 142 471 99 q 594 238 594 186 q 547 290 594 290 q 433 263 525 290 q 308 236 342 236 q 179 306 247 236 q 111 463 111 375 q 163 592 111 550 q 308 635 215 635 l 469 635 l 469 735 l -14 735 q -58 858 -58 790 l 733 858 q 778 735 778 801 l 608 735 l 608 586 q 588 545 604 567 q 557 514 572 524 z "},"ढ":{"ha":750,"x_min":-58,"x_max":810,"o":"m 583 735 l 583 567 q 565 528 581 549 q 533 503 549 508 q 431 511 442 511 q 233 454 292 511 q 174 315 174 397 q 234 185 174 233 q 390 138 294 138 q 417 139 408 138 q 365 269 365 199 q 412 385 365 339 q 533 431 458 431 q 658 385 608 431 q 708 265 708 340 q 622 101 708 167 q 390 35 536 35 q 147 124 244 35 q 49 356 49 213 q 136 549 49 471 q 376 626 224 626 q 446 622 413 626 l 446 735 l -14 735 q -58 858 -58 790 l 765 858 q 810 735 810 804 l 583 735 m 488 151 q 577 201 543 168 q 611 272 611 235 q 594 326 611 310 q 544 343 576 343 q 490 312 513 343 q 467 237 467 281 q 488 151 467 193 z "},"ण":{"ha":1069,"x_min":-58,"x_max":1128,"o":"m 1128 735 l 933 735 l 933 -28 q 840 -10 886 -28 q 794 29 794 7 l 794 735 l 611 735 l 611 471 q 547 267 611 343 q 363 192 483 192 q 165 275 243 192 q 88 503 88 358 l 88 735 l -14 735 q -58 858 -58 790 l 1085 858 q 1128 735 1128 803 m 474 469 l 474 735 l 228 735 l 228 508 q 260 350 228 413 q 356 288 292 288 q 438 329 403 288 q 474 469 474 371 z "},"त":{"ha":769,"x_min":-58,"x_max":826,"o":"m 826 735 l 633 735 l 633 -28 q 540 -10 585 -28 q 494 29 494 7 l 494 453 l 396 453 q 226 426 275 453 q 178 335 178 400 q 317 22 178 208 q 278 -12 304 7 q 240 -33 253 -31 q 43 388 43 228 q 130 547 43 500 q 396 594 217 594 l 494 594 l 494 735 l -14 735 q -58 858 -58 790 l 783 858 q 826 735 826 803 z "},"थ":{"ha":921,"x_min":99,"x_max":979,"o":"m 979 735 l 785 735 l 785 -28 q 692 -10 738 -28 q 647 29 647 7 l 647 189 q 454 138 560 138 q 224 233 318 138 q 115 456 129 329 q 319 531 251 475 q 388 669 388 586 q 363 756 388 728 q 302 785 339 785 q 243 762 265 785 q 221 703 221 739 q 257 621 221 657 q 283 596 269 608 q 267 569 281 586 q 244 547 253 553 q 99 726 99 610 q 149 832 99 790 q 290 874 200 874 q 447 807 379 874 q 513 642 514 740 q 442 467 513 543 q 242 361 371 392 q 443 263 310 263 q 647 351 576 263 l 647 735 l 578 735 q 535 858 535 788 l 935 858 q 979 735 979 801 z "},"द":{"ha":751,"x_min":-58,"x_max":810,"o":"m 588 735 l 588 568 q 564 526 588 551 q 528 503 540 500 q 435 511 457 511 q 178 313 178 511 q 232 185 178 229 q 367 142 286 142 q 489 165 447 142 q 465 249 465 197 q 512 334 465 300 q 599 368 558 368 q 675 264 675 368 q 626 128 675 185 q 779 -40 743 19 q 730 -91 769 -60 q 664 -133 690 -122 q 616 -41 654 -115 q 556 71 578 33 q 389 33 485 33 q 147 123 240 33 q 53 340 53 213 q 138 547 53 467 q 382 626 224 626 q 450 622 419 626 l 450 735 l -14 735 q -58 858 -58 790 l 765 858 q 810 735 810 804 l 588 735 z "},"ध":{"ha":938,"x_min":90,"x_max":994,"o":"m 994 735 l 801 735 l 801 -28 q 708 -10 754 -28 q 663 29 663 7 l 663 194 q 451 133 565 133 q 266 192 338 133 q 194 346 194 251 q 244 475 194 418 q 132 553 174 501 q 90 678 90 606 q 149 810 90 750 q 311 869 208 869 q 427 836 386 869 q 468 754 468 803 q 340 615 468 656 q 310 663 319 632 q 367 742 367 700 q 353 780 367 765 q 308 794 339 794 q 249 761 278 794 q 219 674 219 728 q 249 585 219 621 q 325 536 279 550 q 463 582 386 567 q 529 478 515 532 q 384 426 443 461 q 325 345 325 390 q 356 272 325 300 q 447 244 388 244 q 564 278 506 244 q 663 365 622 311 l 663 735 l 567 735 q 517 858 517 793 l 951 858 q 994 735 994 803 z "},"न":{"ha":788,"x_min":-58,"x_max":847,"o":"m 342 399 l 272 397 q 253 301 268 347 q 222 241 239 254 q 181 228 204 228 q 146 238 158 228 q 65 330 103 271 q 28 426 28 389 q 172 517 28 508 q 369 522 319 522 l 514 522 l 514 735 l -14 735 q -58 858 -58 790 l 803 858 q 847 735 847 804 l 653 735 l 653 -28 q 559 -10 604 -28 q 514 29 514 7 l 514 399 l 342 399 z "},"ऩ":{"ha":789,"x_min":-57,"x_max":849,"o":"m 343 399 l 274 397 q 255 301 269 349 q 223 241 240 254 q 183 228 206 228 q 147 238 160 228 q 67 330 104 271 q 29 426 29 389 q 174 517 29 508 q 371 522 318 522 l 514 522 l 514 735 l -12 735 q -57 858 -57 790 l 804 858 q 849 735 849 801 l 653 735 l 653 -28 q 560 -10 606 -28 q 514 29 514 7 l 514 399 l 343 399 m 175 49 q 175 58 175 49 q 216 101 175 67 q 273 136 257 136 q 325 94 289 136 q 361 37 361 53 q 321 -15 361 21 q 263 -50 281 -50 q 210 -10 246 -50 q 175 49 175 31 z "},"प":{"ha":817,"x_min":-58,"x_max":875,"o":"m 875 735 l 682 735 l 682 -28 q 588 -10 633 -28 q 543 29 543 7 l 543 233 q 378 186 465 186 q 177 285 243 186 q 111 538 111 383 l 111 735 l -14 735 q -58 858 -58 790 l 831 858 q 875 735 875 804 m 543 735 l 257 735 l 257 539 q 278 334 257 389 q 365 279 300 279 q 458 312 410 279 q 543 397 506 344 l 543 735 z "},"फ":{"ha":1121,"x_min":-58,"x_max":1178,"o":"m 672 735 l 672 517 q 853 583 756 583 q 1017 515 950 583 q 1085 343 1085 446 q 1033 160 1085 240 q 915 32 981 79 q 818 135 860 64 q 928 239 878 174 q 978 365 978 304 q 952 451 978 426 q 886 476 926 476 q 672 318 781 476 l 672 -28 q 579 -10 625 -28 q 533 29 533 7 l 533 261 q 372 218 458 218 q 175 322 240 218 q 110 592 110 426 l 110 735 l -14 735 q -58 858 -58 790 l 1133 858 q 1178 735 1178 801 l 672 735 m 254 735 l 254 593 q 275 375 254 436 q 347 314 296 314 q 533 425 447 314 l 533 735 l 254 735 z "},"ब":{"ha":789,"x_min":-58,"x_max":846,"o":"m 846 735 l 653 735 l 653 -28 q 559 -10 604 -28 q 514 29 514 7 l 514 179 q 335 121 431 121 q 128 205 206 121 q 51 404 51 289 q 133 584 51 519 q 321 649 215 649 q 514 582 426 649 l 514 735 l -14 735 q -58 858 -58 790 l 801 858 q 846 735 846 801 m 489 304 q 514 329 501 317 l 514 490 q 382 531 447 531 q 282 518 317 531 l 489 304 m 213 472 q 175 363 175 431 q 213 260 175 294 q 304 225 250 225 q 424 260 358 225 l 213 472 z "},"भ":{"ha":1038,"x_min":82,"x_max":1096,"o":"m 1096 735 l 903 735 l 903 -28 q 809 -10 854 -28 q 764 29 764 7 l 764 293 q 507 301 613 306 q 490 214 504 257 q 462 160 476 171 q 424 148 447 150 q 388 151 401 146 q 294 224 351 161 q 236 342 236 286 q 265 392 236 375 q 367 411 294 408 l 367 624 q 347 742 365 704 q 283 781 328 781 q 217 704 217 781 q 331 551 217 613 q 301 492 322 510 q 147 579 211 521 q 82 715 82 638 q 137 832 82 792 q 282 872 192 872 q 438 812 372 872 q 503 621 503 751 l 503 415 q 764 408 568 419 l 764 735 l 642 735 q 597 858 597 790 l 1051 858 q 1096 735 1096 804 z "},"म":{"ha":868,"x_min":-58,"x_max":925,"o":"m 925 735 l 732 735 l 732 -28 q 638 -10 683 -28 q 593 29 593 7 l 593 300 q 303 308 471 314 q 290 226 303 268 q 260 167 276 183 q 202 150 243 150 q 97 220 161 150 q 33 338 33 290 q 43 381 33 369 q 161 417 67 417 l 161 735 l -14 735 q -58 858 -58 790 l 882 858 q 925 735 925 803 m 593 735 l 300 735 l 300 421 q 593 417 413 426 l 593 735 z "},"य":{"ha":831,"x_min":-58,"x_max":889,"o":"m 889 735 l 694 735 l 694 -28 q 601 -10 647 -28 q 556 29 556 7 l 556 185 q 392 139 478 139 q 242 167 306 139 q 139 244 178 196 q 43 457 60 339 q 186 517 144 479 q 228 617 228 554 q 181 735 228 679 l -14 735 q -58 858 -58 790 l 846 858 q 889 735 889 803 m 556 735 l 307 735 q 361 595 361 674 q 313 456 361 517 q 163 369 265 394 q 369 267 224 267 q 556 344 486 267 l 556 735 z "},"र":{"ha":472,"x_min":-58,"x_max":532,"o":"m 532 735 l 342 735 q 360 540 360 646 q 313 374 360 435 q 179 311 267 313 q 450 29 232 224 q 411 -12 439 10 q 364 -40 383 -33 q 114 239 224 76 q 46 413 46 343 q 157 504 46 504 q 231 493 193 504 q 242 549 242 511 q 201 735 242 646 l -14 735 q -58 858 -58 790 l 488 858 q 532 735 532 801 z "},"ऱ":{"ha":465,"x_min":-58,"x_max":532,"o":"m 532 735 l 342 735 q 360 540 360 646 q 313 374 360 435 q 179 311 267 313 q 450 29 232 224 q 411 -12 439 10 q 364 -40 383 -33 q 114 239 224 76 q 46 413 46 343 q 157 504 46 504 q 231 493 193 504 q 242 549 242 511 q 201 735 242 646 l -14 735 q -58 858 -58 790 l 488 858 q 532 735 532 801 m 7 3 q 7 12 7 3 q 48 56 7 21 q 105 92 89 92 q 157 50 121 92 q 193 -8 193 8 q 152 -59 193 -24 q 94 -94 111 -94 q 42 -54 76 -94 q 7 3 7 -14 z "},"ल":{"ha":981,"x_min":-53,"x_max":1039,"o":"m 1039 735 l 846 735 l 846 -28 q 752 -10 797 -28 q 707 29 707 7 l 707 514 l 697 514 q 610 471 647 514 q 556 378 572 428 q 531 271 539 328 q 465 296 503 276 q 414 329 426 315 q 433 410 424 381 q 378 472 415 446 q 292 497 342 497 q 210 459 242 497 q 179 347 179 421 q 235 204 179 274 q 393 56 290 135 q 339 -14 368 11 q 46 407 46 194 q 113 567 46 511 q 263 624 181 624 q 395 582 344 624 q 468 492 446 540 q 665 622 538 622 q 707 617 690 622 l 707 735 l -8 735 q -53 858 -53 790 l 994 858 q 1039 735 1039 804 z "},"ळ":{"ha":1013,"x_min":-58,"x_max":1071,"o":"m 806 735 l 806 622 q 926 529 881 597 q 971 367 971 461 q 897 163 971 243 q 717 82 824 82 q 586 119 646 82 q 489 208 526 156 q 303 86 403 86 q 122 164 203 86 q 42 365 42 242 q 109 562 42 489 q 288 635 176 635 q 518 515 424 635 q 668 628 585 606 l 668 735 l -14 735 q -58 858 -58 790 l 1026 858 q 1071 735 1071 801 l 806 735 m 347 242 l 369 264 q 391 294 378 272 q 408 324 404 317 q 451 402 429 358 q 483 460 474 446 q 328 515 417 515 q 192 456 239 515 q 146 334 146 397 q 180 239 146 271 q 263 207 214 207 q 347 242 313 207 m 526 269 q 676 192 600 192 q 806 260 753 192 q 858 411 858 328 q 835 494 858 461 q 765 528 811 528 q 675 489 714 528 q 606 408 628 444 q 574 356 583 371 q 547 308 565 342 q 526 269 529 272 z "},"ऴ":{"ha":1013,"x_min":-58,"x_max":1071,"o":"m 806 735 l 806 622 q 926 529 881 597 q 971 367 971 461 q 897 163 971 243 q 717 82 824 82 q 586 119 646 82 q 489 208 526 156 q 303 86 403 86 q 122 164 203 86 q 42 365 42 242 q 109 562 42 489 q 288 635 176 635 q 518 515 424 635 q 668 628 585 606 l 668 735 l -14 735 q -58 858 -58 790 l 1026 858 q 1071 735 1071 801 l 806 735 m 347 242 l 369 264 q 391 294 378 272 q 408 324 404 317 q 451 402 429 358 q 483 460 474 446 q 328 515 417 515 q 192 456 239 515 q 146 334 146 397 q 180 239 146 271 q 263 207 214 207 q 347 242 313 207 m 526 269 q 676 192 600 192 q 806 260 753 192 q 858 411 858 328 q 835 494 858 461 q 765 528 811 528 q 675 489 714 528 q 606 408 628 444 q 574 356 583 371 q 547 308 565 342 q 526 269 529 272 m 380 5 q 400 23 380 5 q 438 40 421 40 q 490 -1 454 40 q 525 -59 525 -43 q 485 -110 525 -75 q 427 -146 444 -146 q 374 -106 410 -146 q 339 -48 339 -65 q 380 5 339 -31 z "},"व":{"ha":788,"x_min":-58,"x_max":846,"o":"m 846 735 l 653 735 l 653 -28 q 559 -10 604 -28 q 514 29 514 7 l 514 179 q 333 121 431 121 q 128 205 206 121 q 51 405 51 289 q 133 585 51 521 q 317 649 214 649 q 514 583 419 649 l 514 735 l -14 735 q -58 858 -58 790 l 801 858 q 846 735 846 804 m 514 488 q 364 529 447 529 q 228 487 281 529 q 175 368 175 444 q 213 259 175 292 q 302 226 251 226 q 412 257 353 226 q 514 335 471 288 l 514 488 z "},"श":{"ha":968,"x_min":-58,"x_max":1026,"o":"m 1026 735 l 833 735 l 833 -28 q 740 -10 785 -28 q 694 29 694 7 l 694 735 l 518 735 q 568 596 568 678 q 483 400 568 488 q 292 268 399 313 q 433 136 360 211 q 532 15 506 61 q 488 -34 524 -6 q 425 -75 453 -62 q 213 243 346 78 q 170 242 204 242 q 91 267 136 242 q 46 328 46 293 q 79 394 46 363 q 144 425 113 425 q 253 353 193 425 q 375 440 318 369 q 432 596 432 511 q 329 731 432 731 q 266 704 292 731 q 240 632 240 678 q 325 499 240 563 q 294 451 315 467 q 153 539 204 485 q 103 660 103 593 q 118 735 103 701 l -14 735 q -58 858 -58 790 l 982 858 q 1026 735 1026 804 z "},"ष":{"ha":835,"x_min":-58,"x_max":892,"o":"m 892 735 l 699 735 l 699 -28 q 605 -10 650 -28 q 560 29 560 7 l 560 231 q 387 185 483 185 q 225 238 290 185 q 108 547 108 333 l 108 735 l -14 735 q -58 858 -58 790 l 847 858 q 892 735 892 801 m 249 538 q 276 335 249 392 q 371 278 304 278 q 507 336 438 278 l 249 646 l 249 538 m 560 735 l 282 735 l 560 404 l 560 735 z "},"स":{"ha":900,"x_min":-58,"x_max":958,"o":"m 958 735 l 764 735 l 764 -28 q 670 -10 715 -28 q 625 29 625 7 l 625 343 q 513 331 575 331 q 303 371 385 331 q 189 326 261 335 q 306 174 225 265 q 449 28 388 82 q 410 -12 438 10 q 364 -40 382 -33 q 228 113 306 17 q 56 426 56 325 q 86 497 56 474 q 164 519 117 519 q 239 507 211 519 q 251 564 251 531 q 203 735 251 644 l -14 735 q -58 858 -58 790 l 914 858 q 958 735 958 804 m 625 735 l 342 735 q 369 567 369 638 q 354 450 369 496 q 473 440 394 440 q 625 474 551 440 l 625 735 z "},"ह":{"ha":642,"x_min":-58,"x_max":700,"o":"m 488 499 l 340 499 q 183 442 183 499 q 231 353 183 396 q 358 376 290 376 q 540 314 479 376 q 600 175 600 251 q 567 72 600 121 q 479 6 535 24 q 441 53 465 15 q 410 117 417 92 q 476 159 449 132 q 504 210 504 186 q 472 250 504 235 q 375 265 439 265 q 261 227 311 265 q 211 133 211 189 q 242 35 211 76 q 328 -39 272 -7 q 563 -129 419 -90 q 532 -215 557 -181 q 233 -92 364 -172 q 119 14 161 -49 q 76 149 76 76 q 157 311 76 247 q 58 489 58 400 q 276 625 58 625 l 408 625 l 408 735 l -14 735 q -58 858 -58 790 l 656 858 q 700 735 700 801 l 546 735 l 546 569 q 524 524 546 549 q 488 499 503 499 z "},"़":{"ha":0,"x_min":-447,"x_max":-261,"o":"m -261 -152 q -261 -160 -261 -152 q -301 -203 -261 -168 q -359 -237 -342 -237 q -412 -197 -376 -237 q -447 -140 -447 -157 q -406 -87 -447 -122 q -349 -51 -365 -51 q -297 -94 -333 -51 q -261 -152 -261 -136 z "},"ऽ":{"ha":742,"x_min":57,"x_max":714,"o":"m 456 733 q 365 722 396 733 q 335 676 335 711 q 369 601 335 640 q 462 515 403 561 q 550 442 521 468 q 624 369 579 417 q 714 175 714 271 q 652 36 714 79 q 499 -7 590 -7 q 259 70 376 -7 q 57 283 142 147 q 93 314 67 297 q 139 333 119 331 q 166 296 144 322 q 206 247 188 269 q 235 215 224 225 q 268 188 247 206 q 308 161 289 169 q 350 142 326 153 q 454 124 393 124 q 579 208 579 124 q 538 306 579 260 q 389 439 492 356 q 253 581 301 515 q 204 715 204 646 q 258 821 204 783 q 399 858 313 858 l 633 858 q 678 733 675 806 l 456 733 z "},"ा":{"ha":410,"x_min":-58,"x_max":468,"o":"m 468 735 l 275 735 l 275 -28 q 181 -10 226 -28 q 136 29 136 7 l 136 735 l -14 735 q -58 858 -58 790 l 424 858 q 468 735 468 804 z "},"ि":{"ha":410,"x_min":-58,"x_max":1031,"o":"m -58 858 l 129 858 q 63 1013 63 931 q 166 1187 63 1118 q 418 1256 269 1256 q 638 1222 529 1256 q 825 1136 747 1188 q 1031 956 976 1038 q 1009 930 1025 944 q 982 910 993 915 q 726 1071 854 1017 q 461 1125 597 1125 q 189 985 189 1125 q 243 858 189 922 l 424 858 q 468 735 468 804 l 275 735 l 275 -28 q 181 -10 226 -28 q 136 29 136 7 l 136 735 l -14 735 q -58 858 -58 790 z "},"ी":{"ha":410,"x_min":-311,"x_max":467,"o":"m 467 735 l 275 735 l 275 -28 q 181 -10 226 -28 q 136 29 136 7 l 136 735 l -14 735 q -58 858 -58 790 l 153 858 q -96 1122 53 1122 q -172 1097 -143 1122 q -201 1017 -201 1071 q -179 919 -201 964 q -235 892 -206 899 q -287 963 -264 917 q -311 1076 -311 1010 q -260 1192 -311 1142 q -138 1242 -210 1242 q -11 1214 -67 1242 q 85 1144 44 1186 q 160 1047 125 1101 q 249 858 222 950 l 422 858 q 467 735 467 804 z "},"ु":{"ha":0,"x_min":-651,"x_max":7,"o":"m -379 -56 q -217 -8 -311 -8 q -58 -67 -124 -8 q 7 -212 7 -125 q -51 -352 7 -299 q -203 -406 -108 -406 q -455 -306 -331 -406 q -651 -83 -579 -207 q -622 -53 -644 -72 q -582 -29 -599 -33 q -228 -276 -417 -276 q -126 -251 -162 -276 q -90 -194 -90 -226 q -111 -143 -90 -161 q -185 -125 -132 -125 q -307 -169 -237 -125 q -347 -119 -324 -154 q -379 -56 -371 -83 z "},"ू":{"ha":0,"x_min":-451,"x_max":206,"o":"m -65 -358 q -228 -406 -135 -406 q -387 -347 -322 -406 q -451 -201 -451 -289 q -394 -61 -451 -114 q -242 -8 -336 -8 q 10 -107 -114 -8 q 206 -329 135 -206 q 177 -360 200 -340 q 138 -385 154 -379 q -217 -136 -31 -136 q -319 -161 -282 -136 q -356 -224 -356 -186 q -274 -287 -356 -287 q -137 -244 -206 -287 q -98 -295 -122 -260 q -65 -358 -74 -331 z "},"ृ":{"ha":0,"x_min":-389,"x_max":-10,"o":"m -292 -149 q -274 -188 -292 -174 q -228 -203 -257 -203 q -157 -184 -199 -203 q -86 -133 -115 -165 q -10 -221 -35 -172 q -94 -283 -42 -258 q -212 -308 -146 -308 q -334 -262 -279 -308 q -389 -135 -389 -217 q -336 1 -389 -54 q -200 81 -283 56 q -164 31 -185 68 q -136 -28 -143 -6 q -242 -74 -193 -43 q -292 -149 -292 -106 z "},"ॅ":{"ha":0,"x_min":-521,"x_max":67,"o":"m 67 1144 q -51 1006 28 1064 q -232 947 -129 947 q -410 1008 -335 947 q -521 1158 -485 1068 q -443 1203 -500 1176 q -246 1061 -367 1061 q -51 1222 -125 1061 q 67 1144 17 1197 z "},"ॆ":{"ha":0,"x_min":-189,"x_max":510,"o":"m 418 1078 q 510 956 510 1035 q 467 821 510 876 l 386 828 q 421 905 421 863 q 356 972 421 947 q 209 1006 292 996 q 33 1043 126 1017 q -106 1110 -61 1069 q -189 1282 -168 1168 q -174 1288 -187 1283 q -148 1299 -161 1293 q -133 1304 -135 1304 q -56 1203 -101 1226 q 178 1142 -10 1181 q 418 1078 367 1103 z "},"े":{"ha":0,"x_min":-769,"x_max":-157,"o":"m -536 1118 q -643 1104 -585 1118 q -728 1079 -701 1090 q -751 1135 -735 1090 q -769 1203 -767 1181 q -681 1228 -746 1214 q -571 1242 -615 1242 q -417 1195 -492 1242 q -292 1078 -343 1149 q -157 835 -199 950 l -253 819 q -536 1118 -379 1118 z "},"ै":{"ha":0,"x_min":-701,"x_max":-153,"o":"m -701 1218 q -615 1256 -668 1239 q -503 1274 -561 1274 q -381 1227 -444 1274 q -274 1108 -318 1181 q -153 825 -189 968 l -246 821 q -342 922 -283 876 q -451 967 -401 967 q -549 943 -501 967 q -619 899 -597 919 q -653 945 -631 907 q -685 1010 -676 983 q -606 1056 -658 1035 q -504 1078 -554 1078 q -279 958 -406 1078 q -483 1157 -386 1157 q -640 1093 -551 1157 q -671 1146 -649 1103 q -701 1218 -693 1189 z "},"ॉ":{"ha":410,"x_min":-118,"x_max":468,"o":"m 468 735 l 275 735 l 275 -28 q 181 -10 226 -28 q 136 29 136 7 l 136 735 l -14 735 q -58 858 -58 790 l 424 858 q 468 735 468 804 m 454 1138 q 337 999 415 1057 q 157 940 258 940 q -12 1002 56 940 q -118 1157 -81 1064 q -60 1196 -94 1178 q 140 1054 18 1054 q 335 1215 263 1054 q 454 1138 400 1192 z "},"ॊ":{"ha":410,"x_min":-443,"x_max":468,"o":"m 468 735 l 275 735 l 275 -28 q 181 -10 226 -28 q 136 29 136 7 l 136 735 l -14 735 q -58 858 -58 790 l 146 858 q 167 918 167 892 q 102 983 167 958 q -46 1019 38 1008 q -222 1055 -129 1029 q -360 1121 -315 1081 q -443 1294 -422 1179 q -417 1306 -440 1297 q -387 1317 -393 1315 q -306 1213 -362 1240 q -75 1153 -264 1190 q 164 1090 114 1115 q 256 964 256 1044 q 229 858 256 911 l 424 858 q 468 735 468 804 z "},"ो":{"ha":410,"x_min":-386,"x_max":468,"o":"m 468 735 l 275 735 l 275 -28 q 181 -10 226 -28 q 136 29 136 7 l 136 735 l -14 735 q -58 858 -58 790 l 114 858 q 14 1022 74 946 q -153 1118 -60 1118 q -260 1104 -201 1118 q -344 1079 -318 1090 q -367 1135 -351 1090 q -386 1203 -383 1181 q -297 1228 -362 1214 q -179 1242 -232 1242 q -68 1213 -126 1242 q 33 1142 -10 1185 q 115 1044 76 1100 q 218 858 179 954 l 424 858 q 468 735 468 804 z "},"ौ":{"ha":410,"x_min":-324,"x_max":468,"o":"m 468 735 l 275 735 l 275 -28 q 181 -10 226 -28 q 136 29 136 7 l 136 735 l -14 735 q -58 858 -58 790 l 103 858 q -81 967 8 967 q -170 944 -122 967 q -243 899 -218 921 q -276 946 -253 908 q -307 1010 -299 983 q -228 1056 -281 1035 q -126 1078 -176 1078 q 99 958 -28 1078 q -107 1157 -8 1157 q -262 1093 -179 1157 q -293 1146 -271 1103 q -324 1218 -315 1189 q -237 1256 -290 1239 q -127 1274 -183 1274 q -11 1233 -71 1274 q 92 1126 49 1192 q 217 858 175 1003 l 424 858 q 468 735 468 804 z "},"्":{"ha":0,"x_min":-389,"x_max":78,"o":"m -389 -99 q -294 -93 -347 -93 q -200 -108 -240 -93 q -50 -203 -128 -135 q 78 -333 28 -272 q 28 -381 63 -357 q -193 -214 -97 -244 q -274 -206 -224 -206 q -367 -212 -325 -206 q -382 -157 -374 -197 q -389 -99 -390 -117 z "},"ॐ":{"ha":1578,"x_min":179,"x_max":1464,"o":"m 846 1051 q 846 1059 846 1051 q 884 1100 846 1067 q 938 1133 922 1133 q 986 1094 954 1133 q 1018 1042 1018 1056 q 981 994 1018 1029 q 928 960 943 960 q 879 997 913 960 q 846 1051 846 1035 m 956 756 q 664 915 800 756 q 710 969 681 949 q 810 900 767 921 q 906 879 853 879 q 1149 1021 1049 879 q 1242 915 1213 986 q 1125 808 1204 861 q 956 756 1046 756 m 1257 592 q 1108 450 1181 592 q 1079 389 1099 429 q 1226 254 1136 254 q 1324 303 1282 254 q 1367 431 1367 353 q 1333 550 1367 508 q 1257 592 1300 592 m 328 747 q 536 828 429 828 q 706 771 643 828 q 768 613 768 714 q 675 456 768 511 q 800 367 753 431 q 873 319 840 319 q 944 388 906 319 q 984 465 956 407 q 1033 556 1013 522 q 1085 633 1053 590 q 1237 719 1149 719 q 1394 628 1325 719 q 1464 404 1464 536 q 1401 195 1464 272 q 1250 118 1338 118 q 1032 300 1121 118 q 913 204 976 204 q 847 229 878 204 q 788 67 847 131 q 625 3 729 3 q 363 122 483 3 q 179 400 242 240 q 251 439 208 431 q 586 129 401 129 q 685 163 649 129 q 722 250 722 196 q 692 342 722 304 q 608 381 661 381 q 518 360 556 381 q 476 413 497 375 q 449 476 454 450 q 616 556 568 508 q 664 651 664 603 q 647 696 664 682 q 594 710 631 710 q 401 622 494 710 q 328 747 344 676 z "},"॑":{"ha":0,"x_min":-233,"x_max":-132,"o":"m -233 1313 l -132 1313 l -132 981 l -233 981 l -233 1313 z "},"॒":{"ha":0,"x_min":-779,"x_max":-112,"o":"m -112 -307 l -779 -307 l -779 -210 l -112 -210 l -112 -307 z "},"॓":{"ha":447,"x_min":65,"x_max":367,"o":"m 65 1233 l 144 1297 l 367 1028 l 286 964 l 65 1233 z "},"॔":{"ha":444,"x_min":71,"x_max":374,"o":"m 292 1297 l 374 1233 l 151 964 l 71 1028 l 292 1297 z "},"क़":{"ha":1043,"x_min":-68,"x_max":1092,"o":"m 613 735 l 613 540 q 774 600 683 600 q 928 531 864 600 q 993 351 993 463 q 846 101 993 193 q 756 204 790 138 q 853 297 813 242 q 894 399 894 351 q 869 470 894 447 q 804 493 843 493 q 613 365 710 493 l 613 -28 q 519 -10 564 -28 q 474 29 474 7 l 474 186 q 290 136 394 136 q 108 215 186 136 q 31 398 31 293 q 104 565 31 503 q 281 626 178 626 q 474 572 385 626 l 474 735 l -24 735 q -68 858 -68 790 l 1047 858 q 1092 735 1092 801 l 613 735 m 474 474 q 330 514 406 514 q 207 474 254 514 q 160 365 160 433 q 196 265 160 297 q 286 233 232 233 q 474 326 388 233 l 474 474 m 81 2 q 81 11 81 2 q 122 55 81 19 q 178 90 163 90 q 231 48 194 90 q 267 -10 267 6 q 226 -61 267 -26 q 169 -96 186 -96 q 116 -56 151 -96 q 81 2 81 -15 z "},"ख़":{"ha":1110,"x_min":-68,"x_max":1160,"o":"m 1160 735 l 965 735 l 965 -28 q 873 -10 918 -28 q 828 29 828 7 l 828 183 q 683 143 761 143 q 489 221 567 143 q 411 403 411 299 q 483 563 411 507 q 651 618 556 618 q 828 572 746 618 l 828 735 l 322 735 q 342 569 342 657 q 160 269 342 286 q 610 36 257 101 q 568 -76 597 -28 q 349 -15 454 -65 q 176 101 244 36 q 67 236 107 167 q 26 360 26 306 q 153 468 26 468 q 228 460 172 468 q 231 514 231 493 q 181 735 231 625 l -24 735 q -68 858 -68 790 l 1115 858 q 1160 735 1160 801 m 828 488 q 693 511 767 511 q 576 472 619 511 q 532 367 532 432 q 568 271 532 301 q 653 240 604 240 q 828 318 750 240 l 828 488 m -13 70 q 7 88 -13 70 q 44 106 28 106 q 97 64 61 106 q 132 6 132 22 q 92 -45 132 -10 q 34 -81 51 -81 q -19 -40 17 -81 q -54 17 -54 0 q -13 70 -54 35 z "},"ग़":{"ha":828,"x_min":-53,"x_max":878,"o":"m 878 735 l 685 735 l 685 -28 q 591 -10 636 -28 q 546 29 546 7 l 546 735 l 308 735 l 308 397 q 268 250 308 286 q 214 231 249 231 q 103 301 165 231 q 42 418 42 371 q 50 461 42 449 q 169 497 76 497 l 169 735 l -10 735 q -53 858 -53 788 l 833 858 q 878 735 878 804 m 155 67 q 175 85 155 67 q 213 103 196 103 q 265 60 229 103 q 300 2 300 18 q 260 -49 300 -14 q 202 -83 219 -83 q 149 -43 185 -83 q 114 15 114 -3 q 155 67 114 32 z "},"ज़":{"ha":1042,"x_min":-62,"x_max":1103,"o":"m 1103 735 l 911 735 l 911 -28 q 817 -10 863 -28 q 772 29 772 7 l 772 458 l 535 458 q 617 253 617 361 q 569 127 617 172 q 444 82 521 82 q 301 124 368 82 q 186 238 235 165 q 38 578 92 375 q 122 608 72 601 q 185 427 149 510 q 281 279 221 344 q 408 214 342 214 q 501 304 501 214 q 394 511 501 389 q 416 553 399 528 q 444 582 433 578 l 772 582 l 772 735 l -18 735 q -62 858 -62 790 l 1060 858 q 1103 735 1103 803 m 385 -63 q 385 -55 385 -63 q 426 -10 385 -46 q 483 25 467 25 q 535 -17 499 25 q 571 -74 571 -58 q 531 -126 571 -90 q 473 -161 490 -161 q 420 -121 456 -161 q 385 -63 385 -81 z "},"ड़":{"ha":690,"x_min":-62,"x_max":772,"o":"m 551 514 l 418 518 q 263 497 310 518 q 215 417 215 475 q 253 358 215 358 q 364 385 263 358 q 511 413 465 413 q 631 340 582 413 q 681 200 681 268 q 603 42 681 104 q 415 -19 526 -19 q 206 38 304 -19 q 29 201 107 96 q 89 257 46 239 q 372 99 224 99 q 528 142 467 99 q 590 238 590 186 q 543 290 590 290 q 431 263 522 290 q 304 236 339 236 q 174 306 242 236 q 107 463 107 375 q 159 592 107 550 q 304 635 211 635 l 464 635 l 464 735 l -19 735 q -62 858 -62 788 l 729 858 q 772 735 772 803 l 603 735 l 603 586 q 584 545 600 567 q 551 514 568 524 m 301 -165 q 301 -156 301 -165 q 342 -112 301 -147 q 399 -76 383 -76 q 451 -118 415 -76 q 488 -176 488 -160 q 447 -227 488 -192 q 388 -262 406 -262 q 336 -222 371 -262 q 301 -165 301 -182 z "},"ढ़":{"ha":757,"x_min":-57,"x_max":811,"o":"m 585 735 l 585 567 q 565 528 581 549 q 535 503 550 508 q 432 511 443 511 q 234 454 293 511 q 175 315 175 397 q 235 185 175 233 q 392 138 296 138 q 418 139 410 138 q 367 269 367 199 q 413 385 367 339 q 535 431 460 431 q 660 385 610 431 q 710 265 710 340 q 624 101 710 167 q 392 35 538 35 q 148 124 246 35 q 50 356 50 213 q 138 549 50 471 q 378 626 225 626 q 447 622 414 626 l 447 735 l -12 735 q -57 858 -57 790 l 767 858 q 811 735 811 801 l 585 735 m 489 151 q 578 201 544 168 q 613 272 613 235 q 595 326 613 310 q 546 343 578 343 q 491 312 514 343 q 468 237 468 281 q 489 151 468 193 m 333 -127 q 333 -118 333 -127 q 374 -74 333 -110 q 431 -39 415 -39 q 483 -81 447 -39 q 519 -140 519 -124 q 479 -190 519 -156 q 422 -225 439 -225 q 369 -185 404 -225 q 333 -127 333 -144 z "},"फ़":{"ha":1131,"x_min":-85,"x_max":1151,"o":"m 646 735 l 646 517 q 826 583 729 583 q 991 515 924 583 q 1058 343 1058 446 q 1006 160 1058 240 q 889 32 954 79 q 792 135 833 64 q 901 239 851 174 q 951 365 951 304 q 926 451 951 426 q 860 476 900 476 q 646 318 754 476 l 646 -28 q 553 -10 599 -28 q 507 29 507 7 l 507 261 q 346 218 431 218 q 149 322 214 218 q 83 592 83 426 l 83 735 l -40 735 q -85 858 -85 790 l 1107 858 q 1151 735 1151 804 l 646 735 m 228 735 l 228 593 q 249 375 228 436 q 326 314 269 314 q 507 425 424 314 l 507 735 l 228 735 m 192 102 q 212 120 192 102 q 249 138 232 138 q 301 95 265 138 q 338 37 338 53 q 297 -14 338 21 q 238 -49 256 -49 q 186 -8 221 -49 q 151 49 151 32 q 192 102 151 67 z "},"य़":{"ha":814,"x_min":-93,"x_max":856,"o":"m 856 735 l 660 735 l 660 -28 q 567 -10 613 -28 q 522 29 522 7 l 522 186 q 356 139 442 139 q 207 167 271 139 q 103 244 143 196 q 8 457 25 339 q 151 517 110 479 q 193 617 193 554 q 146 735 193 679 l -49 735 q -93 858 -93 790 l 811 858 q 856 735 856 801 m 522 735 l 272 735 q 326 595 326 674 q 278 456 326 517 q 128 369 231 394 q 335 267 189 267 q 522 346 453 267 l 522 735 m 86 -9 q 86 0 86 -9 q 127 44 86 8 q 184 79 168 79 q 236 38 200 79 q 272 -20 272 -4 q 232 -72 272 -36 q 174 -107 192 -107 q 122 -67 157 -107 q 86 -9 86 -26 z "},"ॠ":{"ha":1068,"x_min":-62,"x_max":1118,"o":"m 818 158 q 836 116 818 133 q 881 99 854 99 q 1018 167 954 99 q 1085 72 1069 118 q 1003 20 1054 40 q 889 0 951 0 q 776 47 826 0 q 725 167 725 93 q 822 333 725 268 q 751 407 774 364 q 571 354 696 376 l 571 -28 q 479 -8 526 -28 q 432 29 432 11 l 432 278 l 163 101 q 96 208 117 147 l 424 417 q 260 494 332 494 q 86 429 189 494 q 18 554 36 496 q 208 617 101 617 q 432 507 315 617 l 432 735 l -18 735 q -62 858 -62 790 l 1074 858 q 1118 735 1118 801 l 571 735 l 571 461 q 721 482 661 461 q 703 538 703 504 q 740 602 703 572 q 808 632 776 632 q 859 602 840 632 q 878 537 878 572 q 824 454 878 501 q 848 410 829 436 q 886 367 867 383 l 917 378 q 953 326 936 360 q 969 271 969 292 q 862 231 906 261 q 818 158 818 200 z "},"ॡ":{"ha":1051,"x_min":-56,"x_max":1107,"o":"m 768 735 l 768 604 q 856 534 824 581 q 888 439 888 488 q 873 353 888 390 q 845 297 858 317 q 811 250 832 278 q 770 197 790 222 q 740 158 750 172 q 714 100 714 124 q 760 65 714 65 q 894 154 822 65 q 944 104 918 135 q 978 53 969 74 q 821 -35 928 -18 q 772 -104 772 -60 q 790 -143 772 -129 q 835 -157 807 -157 q 968 -71 897 -157 q 1046 -157 1029 -117 q 958 -224 1014 -199 q 838 -250 903 -250 q 727 -206 772 -250 q 682 -108 682 -161 q 708 -17 682 -56 q 633 43 660 4 q 607 129 607 82 q 649 236 607 181 q 693 293 682 282 q 742 358 728 340 q 779 444 779 408 q 697 519 779 519 q 570 444 615 519 q 511 274 525 368 q 447 299 488 278 q 399 332 407 319 q 415 407 403 368 q 361 470 399 443 q 273 497 324 497 q 191 459 222 497 q 160 347 160 421 q 215 204 160 274 q 374 56 271 135 q 319 -14 349 11 q 26 407 26 196 q 94 567 26 511 q 244 624 161 624 q 377 581 326 624 q 450 489 428 538 q 631 622 515 607 l 631 735 l -12 735 q -56 858 -56 788 l 1063 858 q 1107 735 1107 801 l 768 735 z "},"।":{"ha":492,"x_min":167,"x_max":306,"o":"m 167 31 l 167 856 q 261 838 217 856 q 306 796 306 819 l 306 -28 q 213 -10 260 -29 q 167 31 167 8 z "},"॥":{"ha":797,"x_min":167,"x_max":622,"o":"m 482 31 l 482 856 q 577 838 532 856 q 622 796 622 819 l 622 -28 q 529 -10 576 -29 q 482 31 482 8 m 167 31 l 167 856 q 261 838 217 856 q 306 796 306 819 l 306 -28 q 213 -10 260 -29 q 167 31 167 8 z "},"०":{"ha":685,"x_min":71,"x_max":599,"o":"m 486 406 q 486 446 486 406 q 444 533 486 486 q 337 581 401 581 q 229 533 272 581 q 186 405 186 485 q 227 273 186 325 q 340 221 268 221 q 449 273 411 221 q 486 406 486 325 m 71 420 q 71 487 71 420 q 135 628 71 554 q 316 701 200 701 q 515 606 432 701 q 599 378 599 511 q 533 173 599 246 q 358 100 468 100 q 160 193 249 100 q 71 420 71 286 z "},"१":{"ha":636,"x_min":94,"x_max":567,"o":"m 432 651 q 406 736 432 704 q 332 768 379 768 q 256 741 285 768 q 228 672 228 714 q 329 531 228 600 q 292 476 318 497 q 94 694 94 567 q 150 819 94 765 q 306 874 206 874 q 487 806 407 874 q 567 621 567 738 q 476 406 567 504 q 269 261 385 307 q 543 -74 543 79 q 486 -229 543 -162 q 418 -208 467 -229 q 358 -174 369 -186 q 406 -57 406 -106 q 128 265 406 50 l 129 318 q 340 451 249 356 q 432 651 432 547 z "}}}
